<svg width="769" height="612" viewBox="0 0 769 612" fill="none" xmlns="http://www.w3.org/2000/svg">
<g filter="url(#filter0_b_315_1036)">
<path d="M51.1562 39.4444C74.4196 31.136 143.323 37.3396 232.832 128.621C344.717 242.722 436.535 197.638 450.5 186" stroke="url(#paint0_linear_315_1036)" stroke-width="1.37871"/>
</g>
<g filter="url(#filter1_b_315_1036)">
<path d="M366.319 39.4441C389.583 31.1358 458.486 37.3394 547.995 128.62C659.88 242.721 711.879 200.04 733.481 184.531" stroke="url(#paint1_linear_315_1036)" stroke-width="1.37871"/>
</g>
<g filter="url(#filter2_b_315_1036)">
<path d="M404.137 43.1341C380.873 34.8257 311.265 37.3399 221.757 128.621C109.871 242.722 42.2773 200.623 20.6756 185.114" stroke="url(#paint2_linear_315_1036)" stroke-width="1.37871"/>
</g>
<g filter="url(#filter3_b_315_1036)">
<path d="M704.748 39.4442C681.485 31.1358 612.581 37.3393 523.072 128.62C419 244.5 336.5 196.5 312.5 187.5" stroke="url(#paint3_linear_315_1036)" stroke-width="1.37871"/>
</g>
<path d="M20.9361 20V6H25.8561C26.8427 6 27.6561 6.16 28.2961 6.48C28.9494 6.78667 29.4361 7.21333 29.7561 7.76C30.0761 8.29333 30.2361 8.89333 30.2361 9.56C30.2361 10.4667 29.9894 11.18 29.4961 11.7C29.0161 12.22 28.4361 12.58 27.7561 12.78C28.2761 12.8733 28.7494 13.08 29.1761 13.4C29.6027 13.72 29.9361 14.12 30.1761 14.6C30.4294 15.08 30.5561 15.6067 30.5561 16.18C30.5561 16.8867 30.3827 17.5333 30.0361 18.12C29.6894 18.6933 29.1761 19.1533 28.4961 19.5C27.8161 19.8333 26.9894 20 26.0161 20H20.9361ZM22.6161 12.12H25.7361C26.6294 12.12 27.3161 11.9133 27.7961 11.5C28.2761 11.0733 28.5161 10.4867 28.5161 9.74C28.5161 9.03333 28.2761 8.46667 27.7961 8.04C27.3294 7.61333 26.6227 7.4 25.6761 7.4H22.6161V12.12ZM22.6161 18.6H25.8361C26.7961 18.6 27.5361 18.38 28.0561 17.94C28.5761 17.4867 28.8361 16.86 28.8361 16.06C28.8361 15.2733 28.5627 14.6467 28.0161 14.18C27.4694 13.7 26.7294 13.46 25.7961 13.46H22.6161V18.6ZM37.3273 20.24C36.3806 20.24 35.5406 20.0267 34.8073 19.6C34.074 19.16 33.494 18.5533 33.0673 17.78C32.654 17.0067 32.4473 16.0933 32.4473 15.04C32.4473 14 32.654 13.0933 33.0673 12.32C33.4806 11.5333 34.054 10.9267 34.7873 10.5C35.534 10.06 36.394 9.84 37.3673 9.84C38.3273 9.84 39.154 10.06 39.8473 10.5C40.554 10.9267 41.094 11.4933 41.4673 12.2C41.8406 12.9067 42.0273 13.6667 42.0273 14.48C42.0273 14.6267 42.0206 14.7733 42.0073 14.92C42.0073 15.0667 42.0073 15.2333 42.0073 15.42H34.1073C34.1473 16.18 34.3206 16.8133 34.6273 17.32C34.9473 17.8133 35.3406 18.1867 35.8073 18.44C36.2873 18.6933 36.794 18.82 37.3273 18.82C38.0206 18.82 38.6006 18.66 39.0673 18.34C39.534 18.02 39.874 17.5867 40.0873 17.04H41.7473C41.4806 17.96 40.9673 18.7267 40.2073 19.34C39.4606 19.94 38.5006 20.24 37.3273 20.24ZM37.3273 11.26C36.5273 11.26 35.814 11.5067 35.1873 12C34.574 12.48 34.2206 13.1867 34.1273 14.12H40.3673C40.3273 13.2267 40.0206 12.5267 39.4473 12.02C38.874 11.5133 38.1673 11.26 37.3273 11.26ZM48.054 20.24C46.8674 20.24 45.8807 19.94 45.094 19.34C44.3074 18.74 43.8474 17.9267 43.714 16.9H45.434C45.5407 17.42 45.814 17.8733 46.254 18.26C46.7074 18.6333 47.314 18.82 48.074 18.82C48.7807 18.82 49.3007 18.6733 49.634 18.38C49.9674 18.0733 50.134 17.7133 50.134 17.3C50.134 16.7 49.914 16.3 49.474 16.1C49.0474 15.9 48.4407 15.72 47.654 15.56C47.1207 15.4533 46.5874 15.3 46.054 15.1C45.5207 14.9 45.074 14.62 44.714 14.26C44.354 13.8867 44.174 13.4 44.174 12.8C44.174 11.9333 44.494 11.2267 45.134 10.68C45.7874 10.12 46.6674 9.84 47.774 9.84C48.8274 9.84 49.6874 10.1067 50.354 10.64C51.034 11.16 51.4274 11.9067 51.534 12.88H49.874C49.8074 12.3733 49.5874 11.98 49.214 11.7C48.854 11.4067 48.3674 11.26 47.754 11.26C47.154 11.26 46.6874 11.3867 46.354 11.64C46.034 11.8933 45.874 12.2267 45.874 12.64C45.874 13.04 46.0807 13.3533 46.494 13.58C46.9207 13.8067 47.494 14 48.214 14.16C48.8274 14.2933 49.4074 14.46 49.954 14.66C50.514 14.8467 50.9674 15.1333 51.314 15.52C51.674 15.8933 51.854 16.44 51.854 17.16C51.8674 18.0533 51.5274 18.7933 50.834 19.38C50.154 19.9533 49.2274 20.24 48.054 20.24ZM57.7248 20C56.8181 20 56.1048 19.78 55.5848 19.34C55.0648 18.9 54.8048 18.1067 54.8048 16.96V11.5H53.0848V10.08H54.8048L55.0248 7.7H56.4848V10.08H59.4048V11.5H56.4848V16.96C56.4848 17.5867 56.6115 18.0133 56.8648 18.24C57.1181 18.4533 57.5648 18.56 58.2048 18.56H59.2448V20H57.7248ZM66.9321 20V6H71.5321C72.6255 6 73.5255 6.18 74.2321 6.54C74.9388 6.9 75.4588 7.38667 75.7921 8C76.1388 8.61333 76.3121 9.30667 76.3121 10.08C76.3121 10.84 76.1455 11.5267 75.8121 12.14C75.4788 12.7533 74.9588 13.2467 74.2521 13.62C73.5455 13.98 72.6388 14.16 71.5321 14.16H68.6121V20H66.9321ZM68.6121 12.74H71.4921C72.6121 12.74 73.4055 12.5067 73.8721 12.04C74.3521 11.56 74.5921 10.9067 74.5921 10.08C74.5921 9.24 74.3521 8.58667 73.8721 8.12C73.4055 7.64 72.6121 7.4 71.4921 7.4H68.6121V12.74ZM78.4142 20V10.08H79.9342L80.0742 11.98C80.3808 11.3267 80.8475 10.8067 81.4742 10.42C82.1008 10.0333 82.8742 9.84 83.7942 9.84V11.6H83.3342C82.7475 11.6 82.2075 11.7067 81.7142 11.92C81.2208 12.12 80.8275 12.4667 80.5342 12.96C80.2408 13.4533 80.0942 14.1333 80.0942 15V20H78.4142ZM86.6998 7.88C86.3665 7.88 86.0865 7.77333 85.8598 7.56C85.6465 7.33333 85.5398 7.05333 85.5398 6.72C85.5398 6.4 85.6465 6.13333 85.8598 5.92C86.0865 5.70667 86.3665 5.6 86.6998 5.6C87.0198 5.6 87.2931 5.70667 87.5198 5.92C87.7465 6.13333 87.8598 6.4 87.8598 6.72C87.8598 7.05333 87.7465 7.33333 87.5198 7.56C87.2931 7.77333 87.0198 7.88 86.6998 7.88ZM85.8598 20V10.08H87.5398V20H85.8598ZM95.025 20.24C94.0783 20.24 93.225 20.0267 92.465 19.6C91.7183 19.16 91.125 18.5533 90.685 17.78C90.2583 16.9933 90.045 16.08 90.045 15.04C90.045 14 90.2583 13.0933 90.685 12.32C91.125 11.5333 91.7183 10.9267 92.465 10.5C93.225 10.06 94.0783 9.84 95.025 9.84C96.1983 9.84 97.185 10.1467 97.985 10.76C98.7983 11.3733 99.3116 12.1933 99.525 13.22H97.805C97.6716 12.6067 97.345 12.1333 96.825 11.8C96.305 11.4533 95.6983 11.28 95.005 11.28C94.445 11.28 93.9183 11.42 93.425 11.7C92.9316 11.98 92.5316 12.4 92.225 12.96C91.9183 13.52 91.765 14.2133 91.765 15.04C91.765 15.8667 91.9183 16.56 92.225 17.12C92.5316 17.68 92.9316 18.1067 93.425 18.4C93.9183 18.68 94.445 18.82 95.005 18.82C95.6983 18.82 96.305 18.6533 96.825 18.32C97.345 17.9733 97.6716 17.4867 97.805 16.86H99.525C99.325 17.86 98.8183 18.6733 98.005 19.3C97.1916 19.9267 96.1983 20.24 95.025 20.24ZM106.331 20.24C105.385 20.24 104.545 20.0267 103.811 19.6C103.078 19.16 102.498 18.5533 102.071 17.78C101.658 17.0067 101.451 16.0933 101.451 15.04C101.451 14 101.658 13.0933 102.071 12.32C102.485 11.5333 103.058 10.9267 103.791 10.5C104.538 10.06 105.398 9.84 106.371 9.84C107.331 9.84 108.158 10.06 108.851 10.5C109.558 10.9267 110.098 11.4933 110.471 12.2C110.845 12.9067 111.031 13.6667 111.031 14.48C111.031 14.6267 111.025 14.7733 111.011 14.92C111.011 15.0667 111.011 15.2333 111.011 15.42H103.111C103.151 16.18 103.325 16.8133 103.631 17.32C103.951 17.8133 104.345 18.1867 104.811 18.44C105.291 18.6933 105.798 18.82 106.331 18.82C107.025 18.82 107.605 18.66 108.071 18.34C108.538 18.02 108.878 17.5867 109.091 17.04H110.751C110.485 17.96 109.971 18.7267 109.211 19.34C108.465 19.94 107.505 20.24 106.331 20.24ZM106.331 11.26C105.531 11.26 104.818 11.5067 104.191 12C103.578 12.48 103.225 13.1867 103.131 14.12H109.371C109.331 13.2267 109.025 12.5267 108.451 12.02C107.878 11.5133 107.171 11.26 106.331 11.26ZM117.058 20.24C115.871 20.24 114.885 19.94 114.098 19.34C113.311 18.74 112.851 17.9267 112.718 16.9H114.438C114.545 17.42 114.818 17.8733 115.258 18.26C115.711 18.6333 116.318 18.82 117.078 18.82C117.785 18.82 118.305 18.6733 118.638 18.38C118.971 18.0733 119.138 17.7133 119.138 17.3C119.138 16.7 118.918 16.3 118.478 16.1C118.051 15.9 117.445 15.72 116.658 15.56C116.125 15.4533 115.591 15.3 115.058 15.1C114.525 14.9 114.078 14.62 113.718 14.26C113.358 13.8867 113.178 13.4 113.178 12.8C113.178 11.9333 113.498 11.2267 114.138 10.68C114.791 10.12 115.671 9.84 116.778 9.84C117.831 9.84 118.691 10.1067 119.358 10.64C120.038 11.16 120.431 11.9067 120.538 12.88H118.878C118.811 12.3733 118.591 11.98 118.218 11.7C117.858 11.4067 117.371 11.26 116.758 11.26C116.158 11.26 115.691 11.3867 115.358 11.64C115.038 11.8933 114.878 12.2267 114.878 12.64C114.878 13.04 115.085 13.3533 115.498 13.58C115.925 13.8067 116.498 14 117.218 14.16C117.831 14.2933 118.411 14.46 118.958 14.66C119.518 14.8467 119.971 15.1333 120.318 15.52C120.678 15.8933 120.858 16.44 120.858 17.16C120.871 18.0533 120.531 18.7933 119.838 19.38C119.158 19.9533 118.231 20.24 117.058 20.24Z" fill="#F6F6F6"/>
<path d="M318.324 20.3693V6.36926H326.984V7.74926H320.004V12.6293H326.384V13.9893H320.004V18.9893H326.984V20.3693H318.324ZM332.813 20.6093C331.986 20.6093 331.299 20.4693 330.753 20.1893C330.206 19.9093 329.799 19.5359 329.533 19.0693C329.266 18.6026 329.133 18.0959 329.133 17.5493C329.133 16.5359 329.519 15.7559 330.293 15.2093C331.066 14.6626 332.119 14.3893 333.453 14.3893H336.133V14.2693C336.133 13.4026 335.906 12.7493 335.453 12.3093C334.999 11.8559 334.393 11.6293 333.633 11.6293C332.979 11.6293 332.413 11.7959 331.933 12.1293C331.466 12.4493 331.173 12.9226 331.053 13.5493H329.333C329.399 12.8293 329.639 12.2226 330.053 11.7293C330.479 11.2359 331.006 10.8626 331.633 10.6093C332.259 10.3426 332.926 10.2093 333.633 10.2093C335.019 10.2093 336.059 10.5826 336.753 11.3293C337.459 12.0626 337.813 13.0426 337.813 14.2693V20.3693H336.313L336.213 18.5893C335.933 19.1493 335.519 19.6293 334.973 20.0293C334.439 20.4159 333.719 20.6093 332.813 20.6093ZM333.073 19.1893C333.713 19.1893 334.259 19.0226 334.713 18.6893C335.179 18.3559 335.533 17.9226 335.773 17.3893C336.013 16.8559 336.133 16.2959 336.133 15.7093V15.6893H333.593C332.606 15.6893 331.906 15.8626 331.493 16.2093C331.093 16.5426 330.893 16.9626 330.893 17.4693C330.893 17.9893 331.079 18.4093 331.453 18.7293C331.839 19.0359 332.379 19.1893 333.073 19.1893ZM340.333 20.3693V10.4493H341.853L341.993 12.3493C342.3 11.6959 342.766 11.1759 343.393 10.7893C344.02 10.4026 344.793 10.2093 345.713 10.2093V11.9693H345.253C344.666 11.9693 344.126 12.0759 343.633 12.2893C343.14 12.4893 342.746 12.8359 342.453 13.3293C342.16 13.8226 342.013 14.5026 342.013 15.3693V20.3693H340.333ZM347.599 20.3693V10.4493H349.119L349.219 12.2293C349.539 11.6026 349.999 11.1093 350.599 10.7493C351.199 10.3893 351.879 10.2093 352.639 10.2093C353.812 10.2093 354.745 10.5693 355.439 11.2893C356.145 11.9959 356.499 13.0893 356.499 14.5693V20.3693H354.819V14.7493C354.819 12.6826 353.965 11.6493 352.259 11.6493C351.405 11.6493 350.692 11.9626 350.119 12.5893C349.559 13.2026 349.279 14.0826 349.279 15.2293V20.3693H347.599ZM364.437 20.3693V6.36926H373.097V7.74926H366.117V12.6293H372.497V13.9893H366.117V18.9893H373.097V20.3693H364.437ZM375.626 20.3693V10.4493H377.146L377.266 11.8893C377.586 11.3559 378.013 10.9426 378.546 10.6493C379.079 10.3559 379.679 10.2093 380.346 10.2093C381.133 10.2093 381.806 10.3693 382.366 10.6893C382.939 11.0093 383.379 11.4959 383.686 12.1493C384.033 11.5493 384.506 11.0759 385.106 10.7293C385.719 10.3826 386.379 10.2093 387.086 10.2093C388.273 10.2093 389.219 10.5693 389.926 11.2893C390.633 11.9959 390.986 13.0893 390.986 14.5693V20.3693H389.326V14.7493C389.326 13.7226 389.119 12.9493 388.706 12.4293C388.293 11.9093 387.699 11.6493 386.926 11.6493C386.126 11.6493 385.459 11.9626 384.926 12.5893C384.406 13.2026 384.146 14.0826 384.146 15.2293V20.3693H382.466V14.7493C382.466 13.7226 382.259 12.9493 381.846 12.4293C381.433 11.9093 380.839 11.6493 380.066 11.6493C379.279 11.6493 378.619 11.9626 378.086 12.5893C377.566 13.2026 377.306 14.0826 377.306 15.2293V20.3693H375.626ZM394.537 8.24926C394.203 8.24926 393.923 8.1426 393.697 7.92926C393.483 7.70259 393.377 7.4226 393.377 7.08926C393.377 6.76926 393.483 6.5026 393.697 6.28926C393.923 6.07593 394.203 5.96926 394.537 5.96926C394.857 5.96926 395.13 6.07593 395.357 6.28926C395.583 6.5026 395.697 6.76926 395.697 7.08926C395.697 7.4226 395.583 7.70259 395.357 7.92926C395.13 8.1426 394.857 8.24926 394.537 8.24926ZM393.697 20.3693V10.4493H395.377V20.3693H393.697ZM402.102 20.6093C400.915 20.6093 399.929 20.3093 399.142 19.7093C398.355 19.1093 397.895 18.2959 397.762 17.2693H399.482C399.589 17.7893 399.862 18.2426 400.302 18.6293C400.755 19.0026 401.362 19.1893 402.122 19.1893C402.829 19.1893 403.349 19.0426 403.682 18.7493C404.015 18.4426 404.182 18.0826 404.182 17.6693C404.182 17.0693 403.962 16.6693 403.522 16.4693C403.095 16.2693 402.489 16.0893 401.702 15.9293C401.169 15.8226 400.635 15.6693 400.102 15.4693C399.569 15.2693 399.122 14.9893 398.762 14.6293C398.402 14.2559 398.222 13.7693 398.222 13.1693C398.222 12.3026 398.542 11.5959 399.182 11.0493C399.835 10.4893 400.715 10.2093 401.822 10.2093C402.875 10.2093 403.735 10.4759 404.402 11.0093C405.082 11.5293 405.475 12.2759 405.582 13.2493H403.922C403.855 12.7426 403.635 12.3493 403.262 12.0693C402.902 11.7759 402.415 11.6293 401.802 11.6293C401.202 11.6293 400.735 11.7559 400.402 12.0093C400.082 12.2626 399.922 12.5959 399.922 13.0093C399.922 13.4093 400.129 13.7226 400.542 13.9493C400.969 14.1759 401.542 14.3693 402.262 14.5293C402.875 14.6626 403.455 14.8293 404.002 15.0293C404.562 15.2159 405.015 15.5026 405.362 15.8893C405.722 16.2626 405.902 16.8093 405.902 17.5293C405.915 18.4226 405.575 19.1626 404.882 19.7493C404.202 20.3226 403.275 20.6093 402.102 20.6093ZM412.102 20.6093C410.915 20.6093 409.929 20.3093 409.142 19.7093C408.355 19.1093 407.895 18.2959 407.762 17.2693H409.482C409.589 17.7893 409.862 18.2426 410.302 18.6293C410.755 19.0026 411.362 19.1893 412.122 19.1893C412.829 19.1893 413.349 19.0426 413.682 18.7493C414.015 18.4426 414.182 18.0826 414.182 17.6693C414.182 17.0693 413.962 16.6693 413.522 16.4693C413.095 16.2693 412.489 16.0893 411.702 15.9293C411.169 15.8226 410.635 15.6693 410.102 15.4693C409.569 15.2693 409.122 14.9893 408.762 14.6293C408.402 14.2559 408.222 13.7693 408.222 13.1693C408.222 12.3026 408.542 11.5959 409.182 11.0493C409.835 10.4893 410.715 10.2093 411.822 10.2093C412.875 10.2093 413.735 10.4759 414.402 11.0093C415.082 11.5293 415.475 12.2759 415.582 13.2493H413.922C413.855 12.7426 413.635 12.3493 413.262 12.0693C412.902 11.7759 412.415 11.6293 411.802 11.6293C411.202 11.6293 410.735 11.7559 410.402 12.0093C410.082 12.2626 409.922 12.5959 409.922 13.0093C409.922 13.4093 410.129 13.7226 410.542 13.9493C410.969 14.1759 411.542 14.3693 412.262 14.5293C412.875 14.6626 413.455 14.8293 414.002 15.0293C414.562 15.2159 415.015 15.5026 415.362 15.8893C415.722 16.2626 415.902 16.8093 415.902 17.5293C415.915 18.4226 415.575 19.1626 414.882 19.7493C414.202 20.3226 413.275 20.6093 412.102 20.6093ZM419.322 8.24926C418.989 8.24926 418.709 8.1426 418.482 7.92926C418.269 7.70259 418.162 7.4226 418.162 7.08926C418.162 6.76926 418.269 6.5026 418.482 6.28926C418.709 6.07593 418.989 5.96926 419.322 5.96926C419.642 5.96926 419.915 6.07593 420.142 6.28926C420.369 6.5026 420.482 6.76926 420.482 7.08926C420.482 7.4226 420.369 7.70259 420.142 7.92926C419.915 8.1426 419.642 8.24926 419.322 8.24926ZM418.482 20.3693V10.4493H420.162V20.3693H418.482ZM427.607 20.6093C426.674 20.6093 425.834 20.3959 425.087 19.9693C424.34 19.5426 423.747 18.9426 423.307 18.1693C422.88 17.3826 422.667 16.4626 422.667 15.4093C422.667 14.3559 422.887 13.4426 423.327 12.6693C423.767 11.8826 424.36 11.2759 425.107 10.8493C425.867 10.4226 426.714 10.2093 427.647 10.2093C428.58 10.2093 429.42 10.4226 430.167 10.8493C430.914 11.2759 431.5 11.8826 431.927 12.6693C432.367 13.4426 432.587 14.3559 432.587 15.4093C432.587 16.4626 432.367 17.3826 431.927 18.1693C431.487 18.9426 430.887 19.5426 430.127 19.9693C429.38 20.3959 428.54 20.6093 427.607 20.6093ZM427.607 19.1693C428.18 19.1693 428.714 19.0293 429.207 18.7493C429.7 18.4693 430.1 18.0493 430.407 17.4893C430.714 16.9293 430.867 16.2359 430.867 15.4093C430.867 14.5826 430.714 13.8893 430.407 13.3293C430.114 12.7693 429.72 12.3493 429.227 12.0693C428.734 11.7893 428.207 11.6493 427.647 11.6493C427.074 11.6493 426.54 11.7893 426.047 12.0693C425.554 12.3493 425.154 12.7693 424.847 13.3293C424.54 13.8893 424.387 14.5826 424.387 15.4093C424.387 16.2359 424.54 16.9293 424.847 17.4893C425.154 18.0493 425.547 18.4693 426.027 18.7493C426.52 19.0293 427.047 19.1693 427.607 19.1693ZM434.923 20.3693V10.4493H436.443L436.543 12.2293C436.863 11.6026 437.323 11.1093 437.923 10.7493C438.523 10.3893 439.203 10.2093 439.963 10.2093C441.136 10.2093 442.07 10.5693 442.763 11.2893C443.47 11.9959 443.823 13.0893 443.823 14.5693V20.3693H442.143V14.7493C442.143 12.6826 441.29 11.6493 439.583 11.6493C438.73 11.6493 438.016 11.9626 437.443 12.5893C436.883 13.2026 436.603 14.0826 436.603 15.2293V20.3693H434.923ZM450.168 20.6093C448.982 20.6093 447.995 20.3093 447.208 19.7093C446.422 19.1093 445.962 18.2959 445.828 17.2693H447.548C447.655 17.7893 447.928 18.2426 448.368 18.6293C448.822 19.0026 449.428 19.1893 450.188 19.1893C450.895 19.1893 451.415 19.0426 451.748 18.7493C452.082 18.4426 452.248 18.0826 452.248 17.6693C452.248 17.0693 452.028 16.6693 451.588 16.4693C451.162 16.2693 450.555 16.0893 449.768 15.9293C449.235 15.8226 448.702 15.6693 448.168 15.4693C447.635 15.2693 447.188 14.9893 446.828 14.6293C446.468 14.2559 446.288 13.7693 446.288 13.1693C446.288 12.3026 446.608 11.5959 447.248 11.0493C447.902 10.4893 448.782 10.2093 449.888 10.2093C450.942 10.2093 451.802 10.4759 452.468 11.0093C453.148 11.5293 453.542 12.2759 453.648 13.2493H451.988C451.922 12.7426 451.702 12.3493 451.328 12.0693C450.968 11.7759 450.482 11.6293 449.868 11.6293C449.268 11.6293 448.802 11.7559 448.468 12.0093C448.148 12.2626 447.988 12.5959 447.988 13.0093C447.988 13.4093 448.195 13.7226 448.608 13.9493C449.035 14.1759 449.608 14.3693 450.328 14.5293C450.942 14.6626 451.522 14.8293 452.068 15.0293C452.628 15.2159 453.082 15.5026 453.428 15.8893C453.788 16.2626 453.968 16.8093 453.968 17.5293C453.982 18.4226 453.642 19.1626 452.948 19.7493C452.268 20.3226 451.342 20.6093 450.168 20.6093Z" fill="#F6F6F6"/>
<path d="M619.173 20.3693V6.36926H623.473C625.94 6.36926 627.753 6.99593 628.913 8.24926C630.087 9.5026 630.673 11.2226 630.673 13.4093C630.673 15.5559 630.087 17.2559 628.913 18.5093C627.753 19.7493 625.94 20.3693 623.473 20.3693H619.173ZM620.853 18.9693H623.433C624.793 18.9693 625.873 18.7493 626.673 18.3093C627.487 17.8559 628.067 17.2159 628.413 16.3893C628.76 15.5493 628.933 14.5559 628.933 13.4093C628.933 12.2359 628.76 11.2293 628.413 10.3893C628.067 9.54926 627.487 8.9026 626.673 8.44926C625.873 7.99593 624.793 7.76926 623.433 7.76926H620.853V18.9693ZM637.459 20.6093C636.512 20.6093 635.672 20.3959 634.939 19.9693C634.206 19.5293 633.626 18.9226 633.199 18.1493C632.786 17.3759 632.579 16.4626 632.579 15.4093C632.579 14.3693 632.786 13.4626 633.199 12.6893C633.612 11.9026 634.186 11.2959 634.919 10.8693C635.666 10.4293 636.526 10.2093 637.499 10.2093C638.459 10.2093 639.286 10.4293 639.979 10.8693C640.686 11.2959 641.226 11.8626 641.599 12.5693C641.972 13.2759 642.159 14.0359 642.159 14.8493C642.159 14.9959 642.152 15.1426 642.139 15.2893C642.139 15.4359 642.139 15.6026 642.139 15.7893H634.239C634.279 16.5493 634.452 17.1826 634.759 17.6893C635.079 18.1826 635.472 18.5559 635.939 18.8093C636.419 19.0626 636.926 19.1893 637.459 19.1893C638.152 19.1893 638.732 19.0293 639.199 18.7093C639.666 18.3893 640.006 17.9559 640.219 17.4093H641.879C641.612 18.3293 641.099 19.0959 640.339 19.7093C639.592 20.3093 638.632 20.6093 637.459 20.6093ZM637.459 11.6293C636.659 11.6293 635.946 11.8759 635.319 12.3693C634.706 12.8493 634.352 13.5559 634.259 14.4893H640.499C640.459 13.5959 640.152 12.8959 639.579 12.3893C639.006 11.8826 638.299 11.6293 637.459 11.6293ZM648.846 20.6093C647.899 20.6093 647.059 20.3959 646.326 19.9693C645.593 19.5293 645.013 18.9226 644.586 18.1493C644.173 17.3759 643.966 16.4626 643.966 15.4093C643.966 14.3693 644.173 13.4626 644.586 12.6893C644.999 11.9026 645.573 11.2959 646.306 10.8693C647.053 10.4293 647.913 10.2093 648.886 10.2093C649.846 10.2093 650.673 10.4293 651.366 10.8693C652.073 11.2959 652.613 11.8626 652.986 12.5693C653.359 13.2759 653.546 14.0359 653.546 14.8493C653.546 14.9959 653.539 15.1426 653.526 15.2893C653.526 15.4359 653.526 15.6026 653.526 15.7893H645.626C645.666 16.5493 645.839 17.1826 646.146 17.6893C646.466 18.1826 646.859 18.5559 647.326 18.8093C647.806 19.0626 648.313 19.1893 648.846 19.1893C649.539 19.1893 650.119 19.0293 650.586 18.7093C651.053 18.3893 651.393 17.9559 651.606 17.4093H653.266C652.999 18.3293 652.486 19.0959 651.726 19.7093C650.979 20.3093 650.019 20.6093 648.846 20.6093ZM648.846 11.6293C648.046 11.6293 647.333 11.8759 646.706 12.3693C646.093 12.8493 645.739 13.5559 645.646 14.4893H651.886C651.846 13.5959 651.539 12.8959 650.966 12.3893C650.393 11.8826 649.686 11.6293 648.846 11.6293ZM655.773 24.7693V10.4493H657.293L657.453 12.0893C657.773 11.6093 658.226 11.1759 658.813 10.7893C659.413 10.4026 660.173 10.2093 661.093 10.2093C662.079 10.2093 662.939 10.4359 663.673 10.8893C664.406 11.3426 664.973 11.9626 665.373 12.7493C665.786 13.5359 665.993 14.4293 665.993 15.4293C665.993 16.4293 665.786 17.3226 665.373 18.1093C664.973 18.8826 664.399 19.4959 663.653 19.9493C662.919 20.3893 662.059 20.6093 661.073 20.6093C660.259 20.6093 659.533 20.4426 658.893 20.1093C658.266 19.7759 657.786 19.3093 657.453 18.7093V24.7693H655.773ZM660.893 19.1493C661.559 19.1493 662.146 18.9959 662.653 18.6893C663.159 18.3693 663.559 17.9293 663.853 17.3693C664.146 16.8093 664.293 16.1559 664.293 15.4093C664.293 14.6626 664.146 14.0093 663.853 13.4493C663.559 12.8893 663.159 12.4559 662.653 12.1493C662.146 11.8293 661.559 11.6693 660.893 11.6693C660.226 11.6693 659.639 11.8293 659.133 12.1493C658.626 12.4559 658.226 12.8893 657.933 13.4493C657.639 14.0093 657.493 14.6626 657.493 15.4093C657.493 16.1559 657.639 16.8093 657.933 17.3693C658.226 17.9293 658.626 18.3693 659.133 18.6893C659.639 18.9959 660.226 19.1493 660.893 19.1493ZM673.724 20.3693V6.36926H675.404V19.0293H681.924V20.3693H673.724ZM685.152 8.24926C684.819 8.24926 684.539 8.1426 684.312 7.92926C684.099 7.70259 683.992 7.4226 683.992 7.08926C683.992 6.76926 684.099 6.5026 684.312 6.28926C684.539 6.07593 684.819 5.96926 685.152 5.96926C685.472 5.96926 685.745 6.07593 685.972 6.28926C686.199 6.5026 686.312 6.76926 686.312 7.08926C686.312 7.4226 686.199 7.70259 685.972 7.92926C685.745 8.1426 685.472 8.24926 685.152 8.24926ZM684.312 20.3693V10.4493H685.992V20.3693H684.312ZM697.057 24.7693V18.7293C696.737 19.2093 696.277 19.6426 695.677 20.0293C695.077 20.4159 694.324 20.6093 693.417 20.6093C692.43 20.6093 691.564 20.3826 690.817 19.9293C690.084 19.4759 689.51 18.8559 689.097 18.0693C688.697 17.2826 688.497 16.3893 688.497 15.3893C688.497 14.3893 688.704 13.5026 689.117 12.7293C689.53 11.9426 690.104 11.3293 690.837 10.8893C691.57 10.4359 692.437 10.2093 693.437 10.2093C694.25 10.2093 694.97 10.3759 695.597 10.7093C696.224 11.0426 696.71 11.5093 697.057 12.1093L697.217 10.4493H698.737V24.7693H697.057ZM693.597 19.1493C694.264 19.1493 694.85 18.9959 695.357 18.6893C695.877 18.3693 696.277 17.9293 696.557 17.3693C696.85 16.8093 696.997 16.1559 696.997 15.4093C696.997 14.6626 696.85 14.0093 696.557 13.4493C696.277 12.8893 695.877 12.4559 695.357 12.1493C694.85 11.8293 694.264 11.6693 693.597 11.6693C692.944 11.6693 692.357 11.8293 691.837 12.1493C691.33 12.4559 690.93 12.8893 690.637 13.4493C690.357 14.0093 690.217 14.6626 690.217 15.4093C690.217 16.1559 690.357 16.8093 690.637 17.3693C690.93 17.9293 691.33 18.3693 691.837 18.6893C692.357 18.9959 692.944 19.1493 693.597 19.1493ZM705.096 20.6093C703.922 20.6093 702.989 20.2559 702.296 19.5493C701.602 18.8293 701.256 17.7293 701.256 16.2493V10.4493H702.936V16.0693C702.936 18.1359 703.782 19.1693 705.476 19.1693C706.342 19.1693 707.056 18.8626 707.616 18.2493C708.189 17.6226 708.476 16.7359 708.476 15.5893V10.4493H710.156V20.3693H708.636L708.516 18.5893C708.209 19.2159 707.749 19.7093 707.136 20.0693C706.536 20.4293 705.856 20.6093 705.096 20.6093ZM713.941 8.24926C713.608 8.24926 713.328 8.1426 713.101 7.92926C712.888 7.70259 712.781 7.4226 712.781 7.08926C712.781 6.76926 712.888 6.5026 713.101 6.28926C713.328 6.07593 713.608 5.96926 713.941 5.96926C714.261 5.96926 714.534 6.07593 714.761 6.28926C714.988 6.5026 715.101 6.76926 715.101 7.08926C715.101 7.4226 714.988 7.70259 714.761 7.92926C714.534 8.1426 714.261 8.24926 713.941 8.24926ZM713.101 20.3693V10.4493H714.781V20.3693H713.101ZM722.206 20.6093C721.22 20.6093 720.353 20.3826 719.606 19.9293C718.873 19.4759 718.3 18.8559 717.886 18.0693C717.486 17.2826 717.286 16.3893 717.286 15.3893C717.286 14.3893 717.493 13.5026 717.906 12.7293C718.32 11.9426 718.893 11.3293 719.626 10.8893C720.36 10.4359 721.226 10.2093 722.226 10.2093C723.04 10.2093 723.76 10.3759 724.386 10.7093C725.013 11.0426 725.5 11.5093 725.846 12.1093V5.96926H727.526V20.3693H726.006L725.846 18.7293C725.526 19.2093 725.066 19.6426 724.466 20.0293C723.866 20.4159 723.113 20.6093 722.206 20.6093ZM722.386 19.1493C723.053 19.1493 723.64 18.9959 724.146 18.6893C724.666 18.3693 725.066 17.9293 725.346 17.3693C725.64 16.8093 725.786 16.1559 725.786 15.4093C725.786 14.6626 725.64 14.0093 725.346 13.4493C725.066 12.8893 724.666 12.4559 724.146 12.1493C723.64 11.8293 723.053 11.6693 722.386 11.6693C721.733 11.6693 721.146 11.8293 720.626 12.1493C720.12 12.4559 719.72 12.8893 719.426 13.4493C719.146 14.0093 719.006 14.6626 719.006 15.4093C719.006 16.1559 719.146 16.8093 719.426 17.3693C719.72 17.9293 720.12 18.3693 720.626 18.6893C721.146 18.9959 721.733 19.1493 722.386 19.1493ZM731.285 8.24926C730.951 8.24926 730.671 8.1426 730.445 7.92926C730.231 7.70259 730.125 7.4226 730.125 7.08926C730.125 6.76926 730.231 6.5026 730.445 6.28926C730.671 6.07593 730.951 5.96926 731.285 5.96926C731.605 5.96926 731.878 6.07593 732.105 6.28926C732.331 6.5026 732.445 6.76926 732.445 7.08926C732.445 7.4226 732.331 7.70259 732.105 7.92926C731.878 8.1426 731.605 8.24926 731.285 8.24926ZM730.445 20.3693V10.4493H732.125V20.3693H730.445ZM738.97 20.3693C738.063 20.3693 737.35 20.1493 736.83 19.7093C736.31 19.2693 736.05 18.4759 736.05 17.3293V11.8693H734.33V10.4493H736.05L736.27 8.06926H737.73V10.4493H740.65V11.8693H737.73V17.3293C737.73 17.9559 737.857 18.3826 738.11 18.6093C738.363 18.8226 738.81 18.9293 739.45 18.9293H740.49V20.3693H738.97ZM743.864 24.7693L746.324 19.4093H745.744L741.804 10.4493H743.624L746.904 18.1693L750.384 10.4493H752.124L745.624 24.7693H743.864Z" fill="#F6F6F6"/>
<g filter="url(#filter4_b_315_1036)">
<path d="M390 384L459.282 424V504L390 544L320.718 504V424L390 384Z" fill="url(#paint4_linear_315_1036)"/>
</g>
<path d="M343.806 497L340.798 489.064H342.206L344.59 495.704L346.99 489.064H348.366L345.358 497H343.806ZM353.024 497.192C352.266 497.192 351.594 497.021 351.008 496.68C350.421 496.328 349.957 495.843 349.616 495.224C349.285 494.605 349.12 493.875 349.12 493.032C349.12 492.2 349.285 491.475 349.616 490.856C349.946 490.227 350.405 489.741 350.992 489.4C351.589 489.048 352.277 488.872 353.056 488.872C353.824 488.872 354.485 489.048 355.04 489.4C355.605 489.741 356.037 490.195 356.336 490.76C356.634 491.325 356.784 491.933 356.784 492.584C356.784 492.701 356.778 492.819 356.768 492.936C356.768 493.053 356.768 493.187 356.768 493.336H350.448C350.48 493.944 350.618 494.451 350.864 494.856C351.12 495.251 351.434 495.549 351.808 495.752C352.192 495.955 352.597 496.056 353.024 496.056C353.578 496.056 354.042 495.928 354.416 495.672C354.789 495.416 355.061 495.069 355.232 494.632H356.56C356.346 495.368 355.936 495.981 355.328 496.472C354.73 496.952 353.962 497.192 353.024 497.192ZM353.024 490.008C352.384 490.008 351.813 490.205 351.312 490.6C350.821 490.984 350.538 491.549 350.464 492.296H355.456C355.424 491.581 355.178 491.021 354.72 490.616C354.261 490.211 353.696 490.008 353.024 490.008ZM362.213 497.192C361.392 497.192 360.677 497.043 360.069 496.744C359.461 496.445 358.992 496.029 358.661 495.496C358.33 494.963 358.165 494.344 358.165 493.64H359.573C359.573 494.077 359.674 494.483 359.877 494.856C360.08 495.219 360.373 495.512 360.757 495.736C361.152 495.949 361.637 496.056 362.213 496.056C362.97 496.056 363.557 495.875 363.973 495.512C364.389 495.149 364.597 494.696 364.597 494.152C364.597 493.704 364.501 493.347 364.309 493.08C364.117 492.803 363.856 492.579 363.525 492.408C363.205 492.237 362.832 492.088 362.405 491.96C361.989 491.832 361.552 491.688 361.093 491.528C360.229 491.229 359.589 490.861 359.173 490.424C358.757 489.976 358.549 489.395 358.549 488.68C358.538 488.083 358.677 487.555 358.965 487.096C359.253 486.627 359.658 486.264 360.181 486.008C360.714 485.741 361.344 485.608 362.069 485.608C362.784 485.608 363.402 485.741 363.925 486.008C364.458 486.275 364.869 486.643 365.157 487.112C365.456 487.581 365.61 488.115 365.621 488.712H364.213C364.213 488.403 364.133 488.099 363.973 487.8C363.813 487.491 363.568 487.24 363.237 487.048C362.917 486.856 362.512 486.76 362.021 486.76C361.413 486.749 360.912 486.904 360.517 487.224C360.133 487.544 359.941 487.987 359.941 488.552C359.941 489.032 360.074 489.4 360.341 489.656C360.618 489.912 361.002 490.125 361.493 490.296C361.984 490.456 362.549 490.643 363.189 490.856C363.722 491.048 364.202 491.272 364.629 491.528C365.056 491.784 365.386 492.115 365.621 492.52C365.866 492.925 365.989 493.443 365.989 494.072C365.989 494.605 365.85 495.112 365.573 495.592C365.296 496.061 364.874 496.445 364.309 496.744C363.754 497.043 363.056 497.192 362.213 497.192ZM372.983 497.192C371.884 497.192 370.919 496.952 370.087 496.472C369.266 495.981 368.62 495.299 368.151 494.424C367.692 493.549 367.463 492.541 367.463 491.4C367.463 490.259 367.692 489.256 368.151 488.392C368.62 487.517 369.266 486.835 370.087 486.344C370.919 485.853 371.884 485.608 372.983 485.608C374.092 485.608 375.058 485.853 375.879 486.344C376.711 486.835 377.356 487.517 377.815 488.392C378.274 489.256 378.503 490.259 378.503 491.4C378.503 492.541 378.274 493.549 377.815 494.424C377.356 495.299 376.711 495.981 375.879 496.472C375.058 496.952 374.092 497.192 372.983 497.192ZM372.983 496.008C373.804 496.008 374.524 495.827 375.143 495.464C375.772 495.091 376.258 494.563 376.599 493.88C376.951 493.187 377.127 492.36 377.127 491.4C377.127 490.44 376.951 489.619 376.599 488.936C376.258 488.253 375.772 487.731 375.143 487.368C374.524 486.995 373.804 486.808 372.983 486.808C372.162 486.808 371.436 486.995 370.807 487.368C370.188 487.731 369.703 488.253 369.351 488.936C369.01 489.619 368.839 490.44 368.839 491.4C368.839 492.36 369.01 493.187 369.351 493.88C369.703 494.563 370.188 495.091 370.807 495.464C371.436 495.827 372.162 496.008 372.983 496.008ZM380.442 497V485.8H381.786V495.928H387.002V497H380.442ZM396.458 497L392.25 485.8H393.706L397.242 495.576L400.81 485.8H402.234L398.026 497H396.458ZM406.259 497.192C405.512 497.192 404.84 497.021 404.243 496.68C403.646 496.339 403.171 495.859 402.819 495.24C402.478 494.611 402.307 493.875 402.307 493.032C402.307 492.189 402.483 491.459 402.835 490.84C403.187 490.211 403.662 489.725 404.259 489.384C404.867 489.043 405.544 488.872 406.291 488.872C407.038 488.872 407.71 489.043 408.307 489.384C408.904 489.725 409.374 490.211 409.715 490.84C410.067 491.459 410.243 492.189 410.243 493.032C410.243 493.875 410.067 494.611 409.715 495.24C409.363 495.859 408.883 496.339 408.275 496.68C407.678 497.021 407.006 497.192 406.259 497.192ZM406.259 496.04C406.718 496.04 407.144 495.928 407.539 495.704C407.934 495.48 408.254 495.144 408.499 494.696C408.744 494.248 408.867 493.693 408.867 493.032C408.867 492.371 408.744 491.816 408.499 491.368C408.264 490.92 407.95 490.584 407.555 490.36C407.16 490.136 406.739 490.024 406.291 490.024C405.832 490.024 405.406 490.136 405.011 490.36C404.616 490.584 404.296 490.92 404.051 491.368C403.806 491.816 403.683 492.371 403.683 493.032C403.683 493.693 403.806 494.248 404.051 494.696C404.296 495.144 404.611 495.48 404.995 495.704C405.39 495.928 405.811 496.04 406.259 496.04ZM414.935 497C414.21 497 413.639 496.824 413.223 496.472C412.807 496.12 412.599 495.485 412.599 494.568V490.2H411.223V489.064H412.599L412.775 487.16H413.943V489.064H416.279V490.2H413.943V494.568C413.943 495.069 414.045 495.411 414.247 495.592C414.45 495.763 414.807 495.848 415.319 495.848H416.151V497H414.935ZM421.336 497.192C420.579 497.192 419.907 497.021 419.32 496.68C418.733 496.328 418.269 495.843 417.928 495.224C417.597 494.605 417.432 493.875 417.432 493.032C417.432 492.2 417.597 491.475 417.928 490.856C418.259 490.227 418.717 489.741 419.304 489.4C419.901 489.048 420.589 488.872 421.368 488.872C422.136 488.872 422.797 489.048 423.352 489.4C423.917 489.741 424.349 490.195 424.648 490.76C424.947 491.325 425.096 491.933 425.096 492.584C425.096 492.701 425.091 492.819 425.08 492.936C425.08 493.053 425.08 493.187 425.08 493.336H418.76C418.792 493.944 418.931 494.451 419.176 494.856C419.432 495.251 419.747 495.549 420.12 495.752C420.504 495.955 420.909 496.056 421.336 496.056C421.891 496.056 422.355 495.928 422.728 495.672C423.101 495.416 423.373 495.069 423.544 494.632H424.872C424.659 495.368 424.248 495.981 423.64 496.472C423.043 496.952 422.275 497.192 421.336 497.192ZM421.336 490.008C420.696 490.008 420.125 490.205 419.624 490.6C419.133 490.984 418.851 491.549 418.776 492.296H423.768C423.736 491.581 423.491 491.021 423.032 490.616C422.573 490.211 422.008 490.008 421.336 490.008ZM426.877 497V489.064H428.093L428.205 490.584C428.451 490.061 428.824 489.645 429.325 489.336C429.827 489.027 430.445 488.872 431.181 488.872V490.28H430.813C430.344 490.28 429.912 490.365 429.517 490.536C429.123 490.696 428.808 490.973 428.573 491.368C428.339 491.763 428.221 492.307 428.221 493V497H426.877ZM435.73 497.192C434.781 497.192 433.991 496.952 433.362 496.472C432.733 495.992 432.365 495.341 432.258 494.52H433.634C433.719 494.936 433.938 495.299 434.29 495.608C434.653 495.907 435.138 496.056 435.746 496.056C436.311 496.056 436.727 495.939 436.994 495.704C437.261 495.459 437.394 495.171 437.394 494.84C437.394 494.36 437.218 494.04 436.866 493.88C436.525 493.72 436.039 493.576 435.41 493.448C434.983 493.363 434.557 493.24 434.13 493.08C433.703 492.92 433.346 492.696 433.058 492.408C432.77 492.109 432.626 491.72 432.626 491.24C432.626 490.547 432.882 489.981 433.394 489.544C433.917 489.096 434.621 488.872 435.506 488.872C436.349 488.872 437.037 489.085 437.57 489.512C438.114 489.928 438.429 490.525 438.514 491.304H437.186C437.133 490.899 436.957 490.584 436.658 490.36C436.37 490.125 435.981 490.008 435.49 490.008C435.01 490.008 434.637 490.109 434.37 490.312C434.114 490.515 433.986 490.781 433.986 491.112C433.986 491.432 434.151 491.683 434.482 491.864C434.823 492.045 435.282 492.2 435.858 492.328C436.349 492.435 436.813 492.568 437.25 492.728C437.698 492.877 438.061 493.107 438.338 493.416C438.626 493.715 438.77 494.152 438.77 494.728C438.781 495.443 438.509 496.035 437.954 496.504C437.41 496.963 436.669 497.192 435.73 497.192Z" fill="#F6F6F6"/>
<path d="M392.103 430.934H387.897V435.14H392.103V430.934ZM400.515 435.14H404.721V439.346H400.515V435.14ZM387.897 447.759H392.103V451.965H387.897V447.759ZM371.072 447.759H375.278V451.965H371.072V447.759ZM408.927 447.759H404.721V451.965H408.927V447.759ZM375.278 435.14H379.484V439.346H375.278V435.14ZM404.721 464.583H400.515V460.377H404.721V464.583ZM387.897 468.789H392.103V464.583H387.897V468.789ZM379.484 464.583H375.278V460.377H379.484V464.583ZM383.69 439.346H396.309V443.553H383.69V439.346ZM383.69 456.171H379.484V443.553H383.69V456.171ZM383.69 456.171V460.377H396.309V456.171H400.515V443.553H396.309V456.171H383.69Z" fill="#DFFE00"/>
<g filter="url(#filter5_b_315_1036)">
<path d="M80 36L149.282 76V156L80 196L10.718 156V76L80 36Z" fill="url(#paint5_linear_315_1036)"/>
</g>
<path d="M94.2193 121.669H65.7266V93.1758H84.0433V89.1055H61.6562V125.739H98.2897V103.352H94.2193V121.669Z" fill="#DFFE00"/>
<path d="M77.9367 97.2462H82.007V117.598H77.9367V97.2462ZM86.0774 109.457H90.1478V117.598H86.0774V109.457ZM69.7959 103.352H73.8663V117.598H69.7959V103.352ZM94.2182 93.1758V89.1055H90.1478V93.1758H86.0774V97.2462H90.1478V101.317H94.2182V97.2462H98.2886V93.1758H94.2182Z" fill="#DFFE00"/>
<path d="M58.9437 153.415V143.319H55.5997V142.215H63.6317V143.319H60.2877V153.415H58.9437ZM64.2866 153.415V145.479H65.5026L65.6146 146.999C65.86 146.476 66.2333 146.06 66.7346 145.751C67.236 145.441 67.8546 145.287 68.5906 145.287V146.695H68.2226C67.7533 146.695 67.3213 146.78 66.9266 146.951C66.532 147.111 66.2173 147.388 65.9826 147.783C65.748 148.177 65.6306 148.721 65.6306 149.415V153.415H64.2866ZM72.7391 153.607C72.0778 153.607 71.5285 153.495 71.0911 153.271C70.6538 153.047 70.3285 152.748 70.1151 152.375C69.9018 152.001 69.7951 151.596 69.7951 151.159C69.7951 150.348 70.1045 149.724 70.7231 149.287C71.3418 148.849 72.1845 148.631 73.2511 148.631H75.3951V148.535C75.3951 147.841 75.2138 147.319 74.8511 146.967C74.4885 146.604 74.0031 146.423 73.3951 146.423C72.8725 146.423 72.4191 146.556 72.0351 146.823C71.6618 147.079 71.4271 147.457 71.3311 147.959H69.9551C70.0085 147.383 70.2005 146.897 70.5311 146.503C70.8725 146.108 71.2938 145.809 71.7951 145.607C72.2965 145.393 72.8298 145.287 73.3951 145.287C74.5045 145.287 75.3365 145.585 75.8911 146.183C76.4565 146.769 76.7391 147.553 76.7391 148.535V153.415H75.5391L75.4591 151.991C75.2351 152.439 74.9045 152.823 74.4671 153.143C74.0405 153.452 73.4645 153.607 72.7391 153.607ZM72.9471 152.471C73.4591 152.471 73.8965 152.337 74.2591 152.071C74.6325 151.804 74.9151 151.457 75.1071 151.031C75.2991 150.604 75.3951 150.156 75.3951 149.687V149.671H73.3631C72.5738 149.671 72.0138 149.809 71.6831 150.087C71.3631 150.353 71.2031 150.689 71.2031 151.095C71.2031 151.511 71.3525 151.847 71.6511 152.103C71.9605 152.348 72.3925 152.471 72.9471 152.471ZM82.3554 153.607C81.566 153.607 80.8727 153.425 80.2754 153.063C79.6887 152.7 79.23 152.204 78.8994 151.575C78.5794 150.945 78.4194 150.231 78.4194 149.431C78.4194 148.631 78.5847 147.921 78.9154 147.303C79.246 146.673 79.7047 146.183 80.2914 145.831C80.878 145.468 81.5714 145.287 82.3714 145.287C83.022 145.287 83.598 145.42 84.0994 145.687C84.6007 145.953 84.99 146.327 85.2674 146.807V141.895H86.6114V153.415H85.3954L85.2674 152.103C85.0114 152.487 84.6434 152.833 84.1634 153.143C83.6834 153.452 83.0807 153.607 82.3554 153.607ZM82.4994 152.439C83.0327 152.439 83.502 152.316 83.9074 152.071C84.3234 151.815 84.6434 151.463 84.8674 151.015C85.102 150.567 85.2194 150.044 85.2194 149.447C85.2194 148.849 85.102 148.327 84.8674 147.879C84.6434 147.431 84.3234 147.084 83.9074 146.839C83.502 146.583 83.0327 146.455 82.4994 146.455C81.9767 146.455 81.5074 146.583 81.0914 146.839C80.686 147.084 80.366 147.431 80.1314 147.879C79.9074 148.327 79.7954 148.849 79.7954 149.447C79.7954 150.044 79.9074 150.567 80.1314 151.015C80.366 151.463 80.686 151.815 81.0914 152.071C81.5074 152.316 81.9767 152.439 82.4994 152.439ZM92.3702 153.607C91.6129 153.607 90.9409 153.436 90.3542 153.095C89.7676 152.743 89.3036 152.257 88.9622 151.639C88.6316 151.02 88.4662 150.289 88.4662 149.447C88.4662 148.615 88.6316 147.889 88.9622 147.271C89.2929 146.641 89.7516 146.156 90.3382 145.815C90.9356 145.463 91.6236 145.287 92.4022 145.287C93.1702 145.287 93.8316 145.463 94.3862 145.815C94.9516 146.156 95.3836 146.609 95.6822 147.175C95.9809 147.74 96.1302 148.348 96.1302 148.999C96.1302 149.116 96.1249 149.233 96.1142 149.351C96.1142 149.468 96.1142 149.601 96.1142 149.751H89.7942C89.8262 150.359 89.9649 150.865 90.2102 151.271C90.4662 151.665 90.7809 151.964 91.1542 152.167C91.5382 152.369 91.9436 152.471 92.3702 152.471C92.9249 152.471 93.3889 152.343 93.7622 152.087C94.1356 151.831 94.4076 151.484 94.5782 151.047H95.9062C95.6929 151.783 95.2822 152.396 94.6742 152.887C94.0769 153.367 93.3089 153.607 92.3702 153.607ZM92.3702 146.423C91.7302 146.423 91.1596 146.62 90.6582 147.015C90.1676 147.399 89.8849 147.964 89.8102 148.711H94.8022C94.7702 147.996 94.5249 147.436 94.0662 147.031C93.6076 146.625 93.0422 146.423 92.3702 146.423ZM100.952 153.607C100.002 153.607 99.213 153.367 98.5836 152.887C97.9543 152.407 97.5863 151.756 97.4796 150.935H98.8556C98.941 151.351 99.1596 151.713 99.5116 152.023C99.8743 152.321 100.36 152.471 100.968 152.471C101.533 152.471 101.949 152.353 102.216 152.119C102.482 151.873 102.616 151.585 102.616 151.255C102.616 150.775 102.44 150.455 102.088 150.295C101.746 150.135 101.261 149.991 100.632 149.863C100.205 149.777 99.7783 149.655 99.3516 149.495C98.925 149.335 98.5676 149.111 98.2796 148.823C97.9916 148.524 97.8476 148.135 97.8476 147.655C97.8476 146.961 98.1036 146.396 98.6156 145.959C99.1383 145.511 99.8423 145.287 100.728 145.287C101.57 145.287 102.258 145.5 102.792 145.927C103.336 146.343 103.65 146.94 103.736 147.719H102.408C102.354 147.313 102.178 146.999 101.88 146.775C101.592 146.54 101.202 146.423 100.712 146.423C100.232 146.423 99.8583 146.524 99.5916 146.727C99.3356 146.929 99.2076 147.196 99.2076 147.527C99.2076 147.847 99.373 148.097 99.7036 148.279C100.045 148.46 100.504 148.615 101.08 148.743C101.57 148.849 102.034 148.983 102.472 149.143C102.92 149.292 103.282 149.521 103.56 149.831C103.848 150.129 103.992 150.567 103.992 151.143C104.002 151.857 103.73 152.449 103.176 152.919C102.632 153.377 101.89 153.607 100.952 153.607Z" fill="#F6F6F6"/>
<g filter="url(#filter6_b_315_1036)">
<path d="M390 35L459.282 75V155L390 195L320.718 155V75L390 35Z" fill="url(#paint6_linear_315_1036)"/>
</g>
<path d="M405.896 122.704V108.458M389.615 122.704V102.352M373.333 122.704L373.333 114.563M392.477 92.2321L402.996 96.1766M387.17 92.992L375.776 101.538M408.055 95.1054C409.247 96.2976 409.247 98.2305 408.055 99.4227C406.863 100.615 404.93 100.615 403.737 99.4227C402.545 98.2305 402.545 96.2976 403.737 95.1054C404.93 93.9132 406.863 93.9132 408.055 95.1054ZM375.492 101.211C376.684 102.403 376.684 104.336 375.492 105.528C374.3 106.72 372.367 106.72 371.174 105.528C369.982 104.336 369.982 102.403 371.174 101.211C372.367 100.019 374.3 100.019 375.492 101.211ZM391.773 88.9999C392.965 90.192 392.965 92.125 391.773 93.3171C390.581 94.5093 388.648 94.5093 387.456 93.3171C386.264 92.125 386.264 90.192 387.456 88.9999C388.648 87.8077 390.581 87.8077 391.773 88.9999Z" stroke="#DFFE00" stroke-width="3.04846" stroke-linecap="round" stroke-linejoin="round"/>
<path d="M377.963 152.942V141.742H379.307V151.87H384.523V152.942H377.963ZM386.37 152.942V141.742H390.05C390.924 141.742 391.644 141.886 392.21 142.174C392.775 142.462 393.191 142.851 393.458 143.342C393.735 143.832 393.874 144.387 393.874 145.006C393.874 145.614 393.74 146.163 393.474 146.654C393.207 147.144 392.791 147.539 392.226 147.838C391.66 148.126 390.935 148.27 390.05 148.27H387.714V152.942H386.37ZM387.714 147.134H390.018C390.914 147.134 391.548 146.947 391.922 146.574C392.306 146.19 392.498 145.667 392.498 145.006C392.498 144.334 392.306 143.811 391.922 143.438C391.548 143.054 390.914 142.862 390.018 142.862H387.714V147.134ZM398.595 153.134C397.646 153.134 396.857 152.894 396.227 152.414C395.598 151.934 395.23 151.283 395.123 150.462H396.499C396.585 150.878 396.803 151.24 397.155 151.55C397.518 151.848 398.003 151.998 398.611 151.998C399.177 151.998 399.593 151.88 399.859 151.646C400.126 151.4 400.259 151.112 400.259 150.782C400.259 150.302 400.083 149.982 399.731 149.822C399.39 149.662 398.905 149.518 398.275 149.39C397.849 149.304 397.422 149.182 396.995 149.022C396.569 148.862 396.211 148.638 395.923 148.35C395.635 148.051 395.491 147.662 395.491 147.182C395.491 146.488 395.747 145.923 396.259 145.486C396.782 145.038 397.486 144.814 398.371 144.814C399.214 144.814 399.902 145.027 400.435 145.454C400.979 145.87 401.294 146.467 401.379 147.246H400.051C399.998 146.84 399.822 146.526 399.523 146.302C399.235 146.067 398.846 145.95 398.355 145.95C397.875 145.95 397.502 146.051 397.235 146.254C396.979 146.456 396.851 146.723 396.851 147.054C396.851 147.374 397.017 147.624 397.347 147.806C397.689 147.987 398.147 148.142 398.723 148.27C399.214 148.376 399.678 148.51 400.115 148.67C400.563 148.819 400.926 149.048 401.203 149.358C401.491 149.656 401.635 150.094 401.635 150.67C401.646 151.384 401.374 151.976 400.819 152.446C400.275 152.904 399.534 153.134 398.595 153.134Z" fill="#F6F6F6"/>
<g filter="url(#filter7_b_315_1036)">
<path d="M689 34L758.282 74V154L689 194L619.718 154V74L689 34Z" fill="url(#paint7_linear_315_1036)"/>
</g>
<path d="M692.604 118.598L690.257 116.252L692.684 113.825L695.033 116.169C695.462 116.598 696.044 116.84 696.651 116.84C697.259 116.84 697.841 116.598 698.27 116.169L707.346 107.093C707.559 106.881 707.728 106.628 707.843 106.35C707.958 106.072 708.018 105.774 708.018 105.473C708.018 105.172 707.958 104.875 707.843 104.597C707.728 104.319 707.559 104.066 707.346 103.853L698.27 94.7775C698.058 94.5646 697.805 94.3958 697.527 94.2805C697.249 94.1653 696.951 94.106 696.65 94.106C696.349 94.106 696.052 94.1653 695.774 94.2805C695.496 94.3958 695.243 94.5646 695.03 94.7775L692.684 97.1243L690.257 94.6974L692.604 92.3483C693.677 91.2752 695.133 90.6724 696.65 90.6724C698.168 90.6724 699.624 91.2752 700.697 92.3483L709.775 101.426C710.849 102.5 711.451 103.956 711.451 105.473C711.451 106.991 710.849 108.447 709.775 109.52L700.697 118.598C699.624 119.671 698.168 120.274 696.65 120.274C695.133 120.274 693.677 119.671 692.604 118.598ZM676.576 92.3483L667.498 101.426C666.425 102.5 665.822 103.956 665.822 105.473C665.822 106.991 666.425 108.447 667.498 109.52L676.576 118.598C677.65 119.671 679.105 120.274 680.623 120.274C682.141 120.274 683.597 119.671 684.67 118.598L693.748 109.52C694.821 108.447 695.424 106.991 695.424 105.473C695.424 103.956 694.821 102.5 693.748 101.426L684.67 92.3483C683.597 91.2752 682.141 90.6724 680.623 90.6724C679.105 90.6724 677.65 91.2752 676.576 92.3483ZM669.927 103.856L679.006 94.7775C679.435 94.3483 680.017 94.1072 680.624 94.1072C681.231 94.1072 681.814 94.3483 682.243 94.7775L691.319 103.856C691.748 104.285 691.989 104.867 691.989 105.474C691.989 106.082 691.748 106.664 691.319 107.093L682.243 116.167C681.814 116.596 681.231 116.837 680.624 116.837C680.017 116.837 679.435 116.596 679.006 116.167L669.927 107.091C669.715 106.878 669.546 106.626 669.43 106.348C669.315 106.07 669.256 105.772 669.256 105.471C669.256 105.17 669.315 104.872 669.43 104.594C669.546 104.316 669.715 104.064 669.927 103.851" fill="#DFFE00"/>
<path d="M655.064 154.462V143.262H658.744C659.619 143.262 660.339 143.406 660.904 143.694C661.469 143.982 661.885 144.372 662.152 144.862C662.429 145.353 662.568 145.908 662.568 146.526C662.568 147.134 662.435 147.684 662.168 148.174C661.901 148.665 661.485 149.06 660.92 149.358C660.355 149.646 659.629 149.79 658.744 149.79H656.408V154.462H655.064ZM656.408 148.654H658.712C659.608 148.654 660.243 148.468 660.616 148.094C661 147.71 661.192 147.188 661.192 146.526C661.192 145.854 661 145.332 660.616 144.958C660.243 144.574 659.608 144.382 658.712 144.382H656.408V148.654ZM664.25 154.462V146.526H665.466L665.578 148.046C665.823 147.524 666.196 147.108 666.698 146.798C667.199 146.489 667.818 146.334 668.554 146.334V147.742H668.186C667.716 147.742 667.284 147.828 666.89 147.998C666.495 148.158 666.18 148.436 665.946 148.83C665.711 149.225 665.594 149.769 665.594 150.462V154.462H664.25ZM673.381 154.654C672.634 154.654 671.962 154.484 671.365 154.142C670.768 153.801 670.293 153.321 669.941 152.702C669.6 152.073 669.429 151.337 669.429 150.494C669.429 149.652 669.605 148.921 669.957 148.302C670.309 147.673 670.784 147.188 671.381 146.846C671.989 146.505 672.666 146.334 673.413 146.334C674.16 146.334 674.832 146.505 675.429 146.846C676.026 147.188 676.496 147.673 676.837 148.302C677.189 148.921 677.365 149.652 677.365 150.494C677.365 151.337 677.189 152.073 676.837 152.702C676.485 153.321 676.005 153.801 675.397 154.142C674.8 154.484 674.128 154.654 673.381 154.654ZM673.381 153.502C673.84 153.502 674.266 153.39 674.661 153.166C675.056 152.942 675.376 152.606 675.621 152.158C675.866 151.71 675.989 151.156 675.989 150.494C675.989 149.833 675.866 149.278 675.621 148.83C675.386 148.382 675.072 148.046 674.677 147.822C674.282 147.598 673.861 147.486 673.413 147.486C672.954 147.486 672.528 147.598 672.133 147.822C671.738 148.046 671.418 148.382 671.173 148.83C670.928 149.278 670.805 149.833 670.805 150.494C670.805 151.156 670.928 151.71 671.173 152.158C671.418 152.606 671.733 152.942 672.117 153.166C672.512 153.39 672.933 153.502 673.381 153.502ZM682.057 154.462C681.332 154.462 680.761 154.286 680.345 153.934C679.929 153.582 679.721 152.948 679.721 152.03V147.662H678.345V146.526H679.721L679.897 144.622H681.065V146.526H683.401V147.662H681.065V152.03C681.065 152.532 681.167 152.873 681.369 153.054C681.572 153.225 681.929 153.31 682.441 153.31H683.273V154.462H682.057ZM688.506 154.654C687.759 154.654 687.087 154.484 686.49 154.142C685.893 153.801 685.418 153.321 685.066 152.702C684.725 152.073 684.554 151.337 684.554 150.494C684.554 149.652 684.73 148.921 685.082 148.302C685.434 147.673 685.909 147.188 686.506 146.846C687.114 146.505 687.791 146.334 688.538 146.334C689.285 146.334 689.957 146.505 690.554 146.846C691.151 147.188 691.621 147.673 691.962 148.302C692.314 148.921 692.49 149.652 692.49 150.494C692.49 151.337 692.314 152.073 691.962 152.702C691.61 153.321 691.13 153.801 690.522 154.142C689.925 154.484 689.253 154.654 688.506 154.654ZM688.506 153.502C688.965 153.502 689.391 153.39 689.786 153.166C690.181 152.942 690.501 152.606 690.746 152.158C690.991 151.71 691.114 151.156 691.114 150.494C691.114 149.833 690.991 149.278 690.746 148.83C690.511 148.382 690.197 148.046 689.802 147.822C689.407 147.598 688.986 147.486 688.538 147.486C688.079 147.486 687.653 147.598 687.258 147.822C686.863 148.046 686.543 148.382 686.298 148.83C686.053 149.278 685.93 149.833 685.93 150.494C685.93 151.156 686.053 151.71 686.298 152.158C686.543 152.606 686.858 152.942 687.242 153.166C687.637 153.39 688.058 153.502 688.506 153.502ZM698.007 154.654C697.25 154.654 696.567 154.484 695.959 154.142C695.362 153.79 694.887 153.305 694.535 152.686C694.194 152.057 694.023 151.326 694.023 150.494C694.023 149.662 694.194 148.937 694.535 148.318C694.887 147.689 695.362 147.204 695.959 146.862C696.567 146.51 697.25 146.334 698.007 146.334C698.946 146.334 699.735 146.58 700.375 147.07C701.026 147.561 701.436 148.217 701.607 149.038H700.231C700.124 148.548 699.863 148.169 699.447 147.902C699.031 147.625 698.546 147.486 697.991 147.486C697.543 147.486 697.122 147.598 696.727 147.822C696.332 148.046 696.012 148.382 695.767 148.83C695.522 149.278 695.399 149.833 695.399 150.494C695.399 151.156 695.522 151.71 695.767 152.158C696.012 152.606 696.332 152.948 696.727 153.182C697.122 153.406 697.543 153.518 697.991 153.518C698.546 153.518 699.031 153.385 699.447 153.118C699.863 152.841 700.124 152.452 700.231 151.95H701.607C701.447 152.75 701.042 153.401 700.391 153.902C699.74 154.404 698.946 154.654 698.007 154.654ZM707.1 154.654C706.353 154.654 705.681 154.484 705.084 154.142C704.487 153.801 704.012 153.321 703.66 152.702C703.319 152.073 703.148 151.337 703.148 150.494C703.148 149.652 703.324 148.921 703.676 148.302C704.028 147.673 704.503 147.188 705.1 146.846C705.708 146.505 706.385 146.334 707.132 146.334C707.879 146.334 708.551 146.505 709.148 146.846C709.745 147.188 710.215 147.673 710.556 148.302C710.908 148.921 711.084 149.652 711.084 150.494C711.084 151.337 710.908 152.073 710.556 152.702C710.204 153.321 709.724 153.801 709.116 154.142C708.519 154.484 707.847 154.654 707.1 154.654ZM707.1 153.502C707.559 153.502 707.985 153.39 708.38 153.166C708.775 152.942 709.095 152.606 709.34 152.158C709.585 151.71 709.708 151.156 709.708 150.494C709.708 149.833 709.585 149.278 709.34 148.83C709.105 148.382 708.791 148.046 708.396 147.822C708.001 147.598 707.58 147.486 707.132 147.486C706.673 147.486 706.247 147.598 705.852 147.822C705.457 148.046 705.137 148.382 704.892 148.83C704.647 149.278 704.524 149.833 704.524 150.494C704.524 151.156 704.647 151.71 704.892 152.158C705.137 152.606 705.452 152.942 705.836 153.166C706.231 153.39 706.652 153.502 707.1 153.502ZM712.953 154.462V142.942H714.297V154.462H712.953ZM719.54 154.654C718.59 154.654 717.801 154.414 717.172 153.934C716.542 153.454 716.174 152.804 716.068 151.982H717.444C717.529 152.398 717.748 152.761 718.1 153.07C718.462 153.369 718.948 153.518 719.556 153.518C720.121 153.518 720.537 153.401 720.804 153.166C721.07 152.921 721.204 152.633 721.204 152.302C721.204 151.822 721.028 151.502 720.676 151.342C720.334 151.182 719.849 151.038 719.22 150.91C718.793 150.825 718.366 150.702 717.94 150.542C717.513 150.382 717.156 150.158 716.868 149.87C716.58 149.572 716.436 149.182 716.436 148.702C716.436 148.009 716.692 147.444 717.204 147.006C717.726 146.558 718.43 146.334 719.316 146.334C720.158 146.334 720.846 146.548 721.38 146.974C721.924 147.39 722.238 147.988 722.324 148.766H720.996C720.942 148.361 720.766 148.046 720.468 147.822C720.18 147.588 719.79 147.47 719.3 147.47C718.82 147.47 718.446 147.572 718.18 147.774C717.924 147.977 717.796 148.244 717.796 148.574C717.796 148.894 717.961 149.145 718.292 149.326C718.633 149.508 719.092 149.662 719.668 149.79C720.158 149.897 720.622 150.03 721.06 150.19C721.508 150.34 721.87 150.569 722.148 150.878C722.436 151.177 722.58 151.614 722.58 152.19C722.59 152.905 722.318 153.497 721.764 153.966C721.22 154.425 720.478 154.654 719.54 154.654Z" fill="#F6F6F6"/>
<path d="M151.136 224.309L149.888 237.739L136.458 236.491L151.136 224.309Z" fill="#DFFE00"/>
<g opacity="0.2">
<path d="M194.625 279.243L193.377 292.673L179.947 291.426L194.625 279.243Z" fill="#F6F6F6"/>
</g>
<g opacity="0.2">
<path d="M238.116 329.6L236.868 343.03L223.438 341.782L238.116 329.6Z" fill="#F6F6F6"/>
</g>
<g opacity="0.2">
<path d="M271.304 371.946L270.057 385.376L256.627 384.129L271.304 371.946Z" fill="#F6F6F6"/>
</g>
<path d="M147.017 177.608L333.677 412.457" stroke="url(#paint8_linear_315_1036)" stroke-width="2.71172"/>
<path d="M89.9668 213.611L287.151 458.984" stroke="url(#paint9_linear_315_1036)" stroke-width="2.71172"/>
<path d="M134.075 326.847L145.387 318.598L150.407 325.482L149.292 326.295L145.262 320.769L141.286 323.668L144.716 328.37L143.617 329.171L140.188 324.469L135.065 328.204L134.075 326.847ZM142.492 338.796C141.934 338.031 141.611 337.227 141.524 336.383C141.448 335.531 141.596 334.705 141.969 333.905C142.351 333.115 142.967 332.41 143.818 331.789C144.658 331.177 145.513 330.809 146.381 330.688C147.26 330.558 148.088 330.664 148.865 331.005C149.66 331.349 150.345 331.914 150.918 332.701C151.484 333.476 151.793 334.274 151.846 335.093C151.918 335.916 151.778 336.686 151.427 337.404C151.076 338.122 150.572 338.721 149.915 339.2C149.797 339.286 149.674 339.367 149.548 339.443C149.429 339.529 149.295 339.628 149.144 339.738L144.489 333.355C143.899 333.835 143.489 334.348 143.26 334.894C143.05 335.443 142.98 335.981 143.051 336.508C143.129 337.045 143.325 337.529 143.639 337.96C144.048 338.52 144.519 338.894 145.052 339.083C145.586 339.271 146.136 339.291 146.704 339.141L147.682 340.482C146.781 340.809 145.859 340.846 144.916 340.593C143.991 340.343 143.183 339.744 142.492 338.796ZM149.748 333.505C149.276 332.859 148.657 332.428 147.889 332.212C147.139 331.999 146.36 332.13 145.551 332.605L149.228 337.647C149.926 337.088 150.311 336.428 150.383 335.666C150.454 334.904 150.242 334.184 149.748 333.505ZM149.201 347.996C148.643 347.232 148.321 346.427 148.233 345.583C148.157 344.731 148.305 343.905 148.679 343.105C149.06 342.315 149.676 341.61 150.527 340.99C151.367 340.377 152.222 340.01 153.09 339.888C153.969 339.758 154.797 339.864 155.574 340.205C156.37 340.549 157.054 341.115 157.628 341.901C158.193 342.677 158.503 343.474 158.556 344.294C158.627 345.116 158.487 345.886 158.136 346.604C157.785 347.322 157.281 347.921 156.624 348.4C156.506 348.487 156.383 348.568 156.257 348.643C156.138 348.73 156.004 348.828 155.853 348.938L151.198 342.555C150.608 343.035 150.198 343.548 149.969 344.094C149.759 344.644 149.689 345.181 149.76 345.708C149.838 346.245 150.034 346.729 150.348 347.16C150.757 347.72 151.228 348.094 151.761 348.283C152.295 348.471 152.845 348.491 153.413 348.341L154.391 349.682C153.49 350.009 152.568 350.046 151.625 349.793C150.7 349.543 149.892 348.945 149.201 347.996ZM156.457 342.705C155.985 342.059 155.366 341.628 154.598 341.412C153.849 341.2 153.069 341.33 152.26 341.805L155.937 346.847C156.635 346.288 157.02 345.628 157.092 344.866C157.163 344.104 156.952 343.384 156.457 342.705ZM155.521 356.663C154.822 355.705 154.483 354.731 154.504 353.742C154.526 352.752 154.912 351.902 155.663 351.189L156.676 352.579C156.319 352.971 156.114 353.459 156.06 354.042C156.026 354.629 156.233 355.229 156.68 355.843C157.097 356.414 157.522 356.748 157.955 356.844C158.399 356.933 158.788 356.855 159.122 356.612C159.607 356.258 159.801 355.845 159.703 355.371C159.613 354.909 159.401 354.313 159.067 353.583C158.839 353.089 158.649 352.568 158.496 352.019C158.343 351.47 158.306 350.944 158.385 350.441C158.475 349.93 158.762 349.498 159.247 349.145C159.947 348.634 160.706 348.476 161.525 348.671C162.362 348.869 163.107 349.415 163.759 350.309C164.38 351.161 164.671 352.013 164.633 352.865C164.614 353.721 164.242 354.479 163.518 355.139L162.54 353.797C162.91 353.445 163.099 353.036 163.105 352.569C163.13 352.105 162.962 351.626 162.6 351.13C162.247 350.645 161.869 350.343 161.468 350.223C161.075 350.113 160.711 350.181 160.377 350.424C160.054 350.66 159.923 351.011 159.983 351.479C160.051 351.957 160.233 352.534 160.528 353.21C160.782 353.784 160.989 354.351 161.149 354.911C161.328 355.473 161.364 356.008 161.256 356.516C161.166 357.027 160.831 357.495 160.249 357.919C159.535 358.456 158.737 358.617 157.854 358.403C156.99 358.191 156.213 357.611 155.521 356.663Z" fill="#F6F6F6"/>
<path d="M614.71 224.309L615.958 237.739L629.388 236.491L614.71 224.309Z" fill="#DFFE00"/>
<g opacity="0.2">
<path d="M571.218 279.243L572.466 292.673L585.896 291.426L571.218 279.243Z" fill="#F6F6F6"/>
</g>
<g opacity="0.2">
<path d="M527.727 329.6L528.974 343.03L542.404 341.782L527.727 329.6Z" fill="#F6F6F6"/>
</g>
<g opacity="0.2">
<path d="M494.536 371.946L495.784 385.376L509.214 384.129L494.536 371.946Z" fill="#F6F6F6"/>
</g>
<path d="M618.826 177.608L432.166 412.457" stroke="url(#paint10_linear_315_1036)" stroke-width="2.71172"/>
<path d="M675.877 213.611L478.692 458.984" stroke="url(#paint11_linear_315_1036)" stroke-width="2.71172"/>
<path d="M608.642 359.517L596.792 349.682L600.248 345.518C600.941 344.682 601.648 344.106 602.369 343.789C603.087 343.452 603.79 343.34 604.478 343.453C605.154 343.557 605.774 343.843 606.339 344.311C607.106 344.948 607.536 345.658 607.63 346.441C607.733 347.212 607.63 347.956 607.322 348.672C607.766 348.298 608.274 348.042 608.844 347.906C609.415 347.769 609.988 347.768 610.563 347.902C611.147 348.025 611.682 348.288 612.167 348.691C612.765 349.187 613.191 349.788 613.444 350.494C613.685 351.19 613.714 351.948 613.53 352.767C613.334 353.576 612.895 354.393 612.211 355.217L608.642 359.517ZM603.152 352.559L605.344 349.918C605.972 349.162 606.279 348.436 606.267 347.739C606.243 347.033 605.915 346.418 605.283 345.893C604.684 345.397 604.036 345.202 603.338 345.308C602.649 345.404 601.972 345.852 601.307 346.653L599.157 349.244L603.152 352.559ZM608.637 357.112L610.899 354.386C611.574 353.573 611.907 352.792 611.9 352.043C611.882 351.285 611.534 350.624 610.857 350.062C610.191 349.51 609.469 349.301 608.69 349.436C607.899 349.561 607.176 350.019 606.521 350.809L604.287 353.501L608.637 357.112ZM617.024 349.418L608.627 342.449L609.695 341.162L611.402 342.379C611.064 341.66 610.952 340.9 611.065 340.098C611.178 339.296 611.557 338.505 612.203 337.726L613.693 338.963L613.37 339.352C612.958 339.849 612.669 340.381 612.503 340.948C612.326 341.506 612.343 342.083 612.554 342.678C612.766 343.273 613.238 343.874 613.972 344.483L618.204 347.996L617.024 349.418ZM612.586 333.89C612.351 334.172 612.064 334.334 611.725 334.376C611.383 334.398 611.071 334.291 610.789 334.057C610.518 333.832 610.367 333.555 610.336 333.224C610.315 332.882 610.422 332.571 610.656 332.288C610.881 332.018 611.163 331.861 611.503 331.819C611.842 331.777 612.148 331.869 612.419 332.093C612.701 332.327 612.858 332.62 612.891 332.971C612.912 333.313 612.81 333.619 612.586 333.89ZM622.255 343.115L613.858 336.147L615.038 334.725L623.435 341.693L622.255 343.115ZM629.416 334.9C628.845 335.588 628.193 336.086 627.461 336.394C626.739 336.69 626.007 336.769 625.265 336.629L626.558 337.931L625.49 339.217L613.301 329.101L614.481 327.679L619.661 331.979C619.48 331.371 619.431 330.682 619.516 329.914C619.611 329.135 619.981 328.356 620.627 327.577C621.32 326.742 622.116 326.173 623.015 325.871C623.914 325.568 624.837 325.524 625.784 325.738C626.74 325.941 627.641 326.394 628.488 327.096C629.334 327.799 629.945 328.601 630.321 329.504C630.694 330.386 630.811 331.302 630.67 332.252C630.527 333.182 630.109 334.065 629.416 334.9ZM628.054 334.027C628.522 333.462 628.805 332.858 628.901 332.214C628.986 331.56 628.895 330.912 628.627 330.271C628.359 329.629 627.909 329.046 627.277 328.521C626.645 327.997 625.989 327.662 625.309 327.517C624.628 327.372 623.981 327.406 623.365 327.619C622.738 327.823 622.191 328.207 621.722 328.772C621.254 329.336 620.977 329.945 620.892 330.599C620.796 331.243 620.882 331.886 621.15 332.528C621.418 333.169 621.868 333.753 622.5 334.277C623.132 334.802 623.788 335.136 624.468 335.282C625.148 335.427 625.801 335.397 626.428 335.193C627.044 334.98 627.586 334.591 628.054 334.027ZM637.649 324.981C636.983 325.782 636.213 326.343 635.336 326.664C634.449 326.976 633.528 327.04 632.574 326.858C631.629 326.665 630.71 326.198 629.819 325.458C628.938 324.728 628.316 323.916 627.952 323.023C627.576 322.12 627.466 321.209 627.62 320.288C627.772 319.347 628.19 318.465 628.874 317.641C629.548 316.828 630.315 316.283 631.174 316.005C632.032 315.707 632.891 315.648 633.751 315.828C634.612 316.009 635.386 316.384 636.075 316.956C636.199 317.059 636.318 317.168 636.433 317.282C636.557 317.385 636.698 317.502 636.856 317.633L631.307 324.32C631.978 324.82 632.636 325.118 633.28 325.215C633.923 325.29 634.515 325.22 635.057 325.003C635.609 324.774 636.072 324.434 636.447 323.983C636.934 323.396 637.206 322.793 637.263 322.173C637.32 321.553 637.192 320.961 636.879 320.396L638.045 318.991C638.636 319.863 638.925 320.836 638.91 321.911C638.893 322.964 638.473 323.987 637.649 324.981ZM630.047 318.672C629.485 319.349 629.193 320.126 629.17 321.003C629.146 321.86 629.496 322.655 630.22 323.39L634.604 318.108C633.82 317.514 633.012 317.282 632.18 317.411C631.348 317.541 630.637 317.961 630.047 318.672ZM645.184 315.901C644.35 316.905 643.403 317.53 642.343 317.774C641.282 318.019 640.271 317.837 639.308 317.228L640.516 315.772C641.031 316.047 641.607 316.134 642.244 316.034C642.878 315.912 643.462 315.53 643.996 314.886C644.493 314.288 644.734 313.745 644.72 313.257C644.694 312.759 644.507 312.365 644.157 312.075C643.649 311.653 643.156 311.559 642.677 311.791C642.208 312.011 641.63 312.398 640.942 312.952C640.477 313.328 639.972 313.672 639.428 313.983C638.884 314.294 638.334 314.475 637.776 314.527C637.207 314.57 636.669 314.38 636.161 313.958C635.427 313.35 635.054 312.582 635.041 311.657C635.026 310.71 635.407 309.769 636.184 308.832C636.924 307.94 637.754 307.4 638.674 307.21C639.592 307 640.5 307.191 641.399 307.785L640.233 309.19C639.757 308.89 639.27 308.8 638.77 308.92C638.269 309.018 637.803 309.327 637.372 309.846C636.951 310.354 636.73 310.838 636.71 311.298C636.7 311.747 636.87 312.117 637.22 312.407C637.558 312.688 637.969 312.733 638.451 312.543C638.942 312.341 639.509 311.991 640.15 311.494C640.694 311.069 641.242 310.695 641.796 310.373C642.347 310.03 642.908 309.847 643.479 309.826C644.048 309.783 644.637 310.015 645.247 310.521C646.012 311.137 646.4 311.945 646.409 312.944C646.417 313.922 646.008 314.908 645.184 315.901Z" fill="#F6F6F6"/>
<g opacity="0.2">
<path d="M400.768 343.685L389.469 332.386L378.17 343.685L400.768 343.685Z" fill="#F6F6F6"/>
</g>
<g opacity="0.2">
<path d="M400.768 282.671L389.469 271.372L378.17 282.671L400.768 282.671Z" fill="#F6F6F6"/>
</g>
<path d="M400.768 221.657L389.469 210.358L378.17 221.657L400.768 221.657Z" fill="#DFFE00"/>
<path d="M345.186 381.732V218.072" stroke="url(#paint12_linear_315_1036)" stroke-width="2.71172"/>
<path d="M425.299 381.732V218.072" stroke="url(#paint13_linear_315_1036)" stroke-width="2.71172"/>
<path d="M304.243 605.449V593.329L301.983 593.829V592.669L304.803 591.449H305.943V605.449H304.243ZM314.358 605.689C313.118 605.689 312.045 605.389 311.138 604.789C310.245 604.176 309.558 603.329 309.078 602.249C308.598 601.156 308.358 599.889 308.358 598.449C308.358 597.009 308.598 595.749 309.078 594.669C309.558 593.576 310.245 592.729 311.138 592.129C312.045 591.516 313.118 591.209 314.358 591.209C315.598 591.209 316.665 591.516 317.558 592.129C318.451 592.729 319.138 593.576 319.618 594.669C320.098 595.749 320.338 597.009 320.338 598.449C320.338 599.889 320.098 601.156 319.618 602.249C319.138 603.329 318.451 604.176 317.558 604.789C316.665 605.389 315.598 605.689 314.358 605.689ZM314.358 604.209C315.171 604.209 315.898 603.982 316.538 603.529C317.191 603.062 317.698 602.402 318.058 601.549C318.431 600.682 318.618 599.649 318.618 598.449C318.618 597.249 318.431 596.222 318.058 595.369C317.698 594.516 317.191 593.862 316.538 593.409C315.898 592.942 315.171 592.709 314.358 592.709C313.531 592.709 312.798 592.942 312.158 593.409C311.518 593.862 311.011 594.516 310.638 595.369C310.265 596.222 310.078 597.249 310.078 598.449C310.078 599.649 310.265 600.682 310.638 601.549C311.011 602.402 311.518 603.062 312.158 603.529C312.798 603.982 313.531 604.209 314.358 604.209ZM328.225 605.689C326.985 605.689 325.912 605.389 325.005 604.789C324.112 604.176 323.425 603.329 322.945 602.249C322.465 601.156 322.225 599.889 322.225 598.449C322.225 597.009 322.465 595.749 322.945 594.669C323.425 593.576 324.112 592.729 325.005 592.129C325.912 591.516 326.985 591.209 328.225 591.209C329.465 591.209 330.532 591.516 331.425 592.129C332.318 592.729 333.005 593.576 333.485 594.669C333.965 595.749 334.205 597.009 334.205 598.449C334.205 599.889 333.965 601.156 333.485 602.249C333.005 603.329 332.318 604.176 331.425 604.789C330.532 605.389 329.465 605.689 328.225 605.689ZM328.225 604.209C329.038 604.209 329.765 603.982 330.405 603.529C331.058 603.062 331.565 602.402 331.925 601.549C332.298 600.682 332.485 599.649 332.485 598.449C332.485 597.249 332.298 596.222 331.925 595.369C331.565 594.516 331.058 593.862 330.405 593.409C329.765 592.942 329.038 592.709 328.225 592.709C327.398 592.709 326.665 592.942 326.025 593.409C325.385 593.862 324.878 594.516 324.505 595.369C324.132 596.222 323.945 597.249 323.945 598.449C323.945 599.649 324.132 600.682 324.505 601.549C324.878 602.402 325.385 603.062 326.025 603.529C326.665 603.982 327.398 604.209 328.225 604.209ZM339.152 597.949C338.552 597.949 338.006 597.816 337.512 597.549C337.032 597.269 336.652 596.882 336.372 596.389C336.092 595.882 335.952 595.282 335.952 594.589C335.952 593.896 336.092 593.302 336.372 592.809C336.666 592.302 337.052 591.916 337.532 591.649C338.026 591.369 338.572 591.229 339.172 591.229C339.772 591.229 340.312 591.369 340.792 591.649C341.272 591.916 341.652 592.302 341.932 592.809C342.212 593.302 342.352 593.896 342.352 594.589C342.352 595.282 342.206 595.882 341.912 596.389C341.632 596.882 341.252 597.269 340.772 597.549C340.292 597.816 339.752 597.949 339.152 597.949ZM337.912 605.449L346.052 591.449H347.732L339.592 605.449H337.912ZM339.152 596.649C339.619 596.649 340.026 596.476 340.372 596.129C340.732 595.782 340.912 595.269 340.912 594.589C340.912 593.896 340.739 593.376 340.392 593.029C340.046 592.669 339.639 592.489 339.172 592.489C338.706 592.489 338.286 592.669 337.912 593.029C337.552 593.376 337.372 593.896 337.372 594.589C337.372 595.269 337.552 595.782 337.912 596.129C338.272 596.476 338.686 596.649 339.152 596.649ZM346.632 605.689C346.032 605.689 345.486 605.556 344.992 605.289C344.512 605.009 344.132 604.622 343.852 604.129C343.572 603.622 343.432 603.022 343.432 602.329C343.432 601.636 343.572 601.042 343.852 600.549C344.146 600.042 344.532 599.656 345.012 599.389C345.492 599.109 346.032 598.969 346.632 598.969C347.232 598.969 347.772 599.109 348.252 599.389C348.732 599.656 349.112 600.042 349.392 600.549C349.672 601.042 349.812 601.636 349.812 602.329C349.812 603.022 349.672 603.622 349.392 604.129C349.112 604.622 348.732 605.009 348.252 605.289C347.772 605.556 347.232 605.689 346.632 605.689ZM346.612 604.389C347.092 604.389 347.506 604.216 347.852 603.869C348.212 603.522 348.392 603.009 348.392 602.329C348.392 601.636 348.219 601.116 347.872 600.769C347.526 600.422 347.112 600.249 346.632 600.249C346.166 600.249 345.752 600.422 345.392 600.769C345.032 601.116 344.852 601.636 344.852 602.329C344.852 603.009 345.026 603.522 345.372 603.869C345.732 604.216 346.146 604.389 346.612 604.389ZM361.814 605.689C360.881 605.689 360.041 605.476 359.294 605.049C358.547 604.622 357.954 604.022 357.514 603.249C357.087 602.462 356.874 601.542 356.874 600.489C356.874 599.436 357.094 598.522 357.534 597.749C357.974 596.962 358.567 596.356 359.314 595.929C360.074 595.502 360.921 595.289 361.854 595.289C362.787 595.289 363.627 595.502 364.374 595.929C365.121 596.356 365.707 596.962 366.134 597.749C366.574 598.522 366.794 599.436 366.794 600.489C366.794 601.542 366.574 602.462 366.134 603.249C365.694 604.022 365.094 604.622 364.334 605.049C363.587 605.476 362.747 605.689 361.814 605.689ZM361.814 604.249C362.387 604.249 362.921 604.109 363.414 603.829C363.907 603.549 364.307 603.129 364.614 602.569C364.921 602.009 365.074 601.316 365.074 600.489C365.074 599.662 364.921 598.969 364.614 598.409C364.321 597.849 363.927 597.429 363.434 597.149C362.941 596.869 362.414 596.729 361.854 596.729C361.281 596.729 360.747 596.869 360.254 597.149C359.761 597.429 359.361 597.849 359.054 598.409C358.747 598.969 358.594 599.662 358.594 600.489C358.594 601.316 358.747 602.009 359.054 602.569C359.361 603.129 359.754 603.549 360.234 603.829C360.727 604.109 361.254 604.249 361.814 604.249ZM369.67 605.449V596.949H368.17V595.529H369.67V593.809C369.67 592.849 369.91 592.149 370.39 591.709C370.87 591.269 371.57 591.049 372.49 591.049H373.49V592.489H372.75C372.243 592.489 371.883 592.596 371.67 592.809C371.457 593.009 371.35 593.356 371.35 593.849V595.529H373.79V596.949H371.35V605.449H369.67ZM381.183 605.449V591.449H385.703C386.796 591.449 387.69 591.629 388.383 591.989C389.076 592.349 389.59 592.842 389.923 593.469C390.256 594.096 390.423 594.789 390.423 595.549C390.423 596.429 390.183 597.222 389.703 597.929C389.236 598.636 388.503 599.136 387.503 599.429L390.563 605.449H388.583L385.743 599.669H385.623H382.863V605.449H381.183ZM382.863 598.349H385.583C386.663 598.349 387.45 598.089 387.943 597.569C388.436 597.049 388.683 596.382 388.683 595.569C388.683 594.742 388.436 594.089 387.943 593.609C387.463 593.116 386.67 592.869 385.563 592.869H382.863V598.349ZM396.793 605.689C395.846 605.689 395.006 605.476 394.273 605.049C393.54 604.609 392.96 604.002 392.533 603.229C392.12 602.456 391.913 601.542 391.913 600.489C391.913 599.449 392.12 598.542 392.533 597.769C392.946 596.982 393.52 596.376 394.253 595.949C395 595.509 395.86 595.289 396.833 595.289C397.793 595.289 398.62 595.509 399.313 595.949C400.02 596.376 400.56 596.942 400.933 597.649C401.306 598.356 401.493 599.116 401.493 599.929C401.493 600.076 401.486 600.222 401.473 600.369C401.473 600.516 401.473 600.682 401.473 600.869H393.573C393.613 601.629 393.786 602.262 394.093 602.769C394.413 603.262 394.806 603.636 395.273 603.889C395.753 604.142 396.26 604.269 396.793 604.269C397.486 604.269 398.066 604.109 398.533 603.789C399 603.469 399.34 603.036 399.553 602.489H401.213C400.946 603.409 400.433 604.176 399.673 604.789C398.926 605.389 397.966 605.689 396.793 605.689ZM396.793 596.709C395.993 596.709 395.28 596.956 394.653 597.449C394.04 597.929 393.686 598.636 393.593 599.569H399.833C399.793 598.676 399.486 597.976 398.913 597.469C398.34 596.962 397.633 596.709 396.793 596.709ZM406.189 605.449L402.429 595.529H404.189L407.169 603.829L410.169 595.529H411.889L408.129 605.449H406.189ZM417.711 605.689C416.764 605.689 415.924 605.476 415.191 605.049C414.458 604.609 413.878 604.002 413.451 603.229C413.038 602.456 412.831 601.542 412.831 600.489C412.831 599.449 413.038 598.542 413.451 597.769C413.864 596.982 414.438 596.376 415.171 595.949C415.918 595.509 416.778 595.289 417.751 595.289C418.711 595.289 419.538 595.509 420.231 595.949C420.938 596.376 421.478 596.942 421.851 597.649C422.224 598.356 422.411 599.116 422.411 599.929C422.411 600.076 422.404 600.222 422.391 600.369C422.391 600.516 422.391 600.682 422.391 600.869H414.491C414.531 601.629 414.704 602.262 415.011 602.769C415.331 603.262 415.724 603.636 416.191 603.889C416.671 604.142 417.178 604.269 417.711 604.269C418.404 604.269 418.984 604.109 419.451 603.789C419.918 603.469 420.258 603.036 420.471 602.489H422.131C421.864 603.409 421.351 604.176 420.591 604.789C419.844 605.389 418.884 605.689 417.711 605.689ZM417.711 596.709C416.911 596.709 416.198 596.956 415.571 597.449C414.958 597.929 414.604 598.636 414.511 599.569H420.751C420.711 598.676 420.404 597.976 419.831 597.469C419.258 596.962 418.551 596.709 417.711 596.709ZM424.638 605.449V595.529H426.158L426.258 597.309C426.578 596.682 427.038 596.189 427.638 595.829C428.238 595.469 428.918 595.289 429.678 595.289C430.851 595.289 431.784 595.649 432.478 596.369C433.184 597.076 433.538 598.169 433.538 599.649V605.449H431.858V599.829C431.858 597.762 431.004 596.729 429.298 596.729C428.444 596.729 427.731 597.042 427.158 597.669C426.598 598.282 426.318 599.162 426.318 600.309V605.449H424.638ZM439.703 605.689C438.53 605.689 437.596 605.336 436.903 604.629C436.21 603.909 435.863 602.809 435.863 601.329V595.529H437.543V601.149C437.543 603.216 438.39 604.249 440.083 604.249C440.95 604.249 441.663 603.942 442.223 603.329C442.796 602.702 443.083 601.816 443.083 600.669V595.529H444.763V605.449H443.243L443.123 603.669C442.816 604.296 442.356 604.789 441.743 605.149C441.143 605.509 440.463 605.689 439.703 605.689ZM451.988 605.689C451.042 605.689 450.202 605.476 449.468 605.049C448.735 604.609 448.155 604.002 447.728 603.229C447.315 602.456 447.108 601.542 447.108 600.489C447.108 599.449 447.315 598.542 447.728 597.769C448.142 596.982 448.715 596.376 449.448 595.949C450.195 595.509 451.055 595.289 452.028 595.289C452.988 595.289 453.815 595.509 454.508 595.949C455.215 596.376 455.755 596.942 456.128 597.649C456.502 598.356 456.688 599.116 456.688 599.929C456.688 600.076 456.682 600.222 456.668 600.369C456.668 600.516 456.668 600.682 456.668 600.869H448.768C448.808 601.629 448.982 602.262 449.288 602.769C449.608 603.262 450.002 603.636 450.468 603.889C450.948 604.142 451.455 604.269 451.988 604.269C452.682 604.269 453.262 604.109 453.728 603.789C454.195 603.469 454.535 603.036 454.748 602.489H456.408C456.142 603.409 455.628 604.176 454.868 604.789C454.122 605.389 453.162 605.689 451.988 605.689ZM451.988 596.709C451.188 596.709 450.475 596.956 449.848 597.449C449.235 597.929 448.882 598.636 448.788 599.569H455.028C454.988 598.676 454.682 597.976 454.108 597.469C453.535 596.962 452.828 596.709 451.988 596.709Z" fill="#F6F6F6"/>
<defs>
<filter id="filter0_b_315_1036" x="-82.9479" y="-97.7994" width="667.762" height="436.939" filterUnits="userSpaceOnUse" color-interpolation-filters="sRGB">
<feFlood flood-opacity="0" result="BackgroundImageFix"/>
<feGaussianBlur in="BackgroundImageFix" stdDeviation="66.9363"/>
<feComposite in2="SourceAlpha" operator="in" result="effect1_backgroundBlur_315_1036"/>
<feBlend mode="normal" in="SourceGraphic" in2="effect1_backgroundBlur_315_1036" result="shape"/>
</filter>
<filter id="filter1_b_315_1036" x="232.215" y="-97.7997" width="635.54" height="437.671" filterUnits="userSpaceOnUse" color-interpolation-filters="sRGB">
<feFlood flood-opacity="0" result="BackgroundImageFix"/>
<feGaussianBlur in="BackgroundImageFix" stdDeviation="66.9363"/>
<feComposite in2="SourceAlpha" operator="in" result="effect1_backgroundBlur_315_1036"/>
<feBlend mode="normal" in="SourceGraphic" in2="effect1_backgroundBlur_315_1036" result="shape"/>
</filter>
<filter id="filter2_b_315_1036" x="-113.599" y="-94.5129" width="651.84" height="434.7" filterUnits="userSpaceOnUse" color-interpolation-filters="sRGB">
<feFlood flood-opacity="0" result="BackgroundImageFix"/>
<feGaussianBlur in="BackgroundImageFix" stdDeviation="66.9363"/>
<feComposite in2="SourceAlpha" operator="in" result="effect1_backgroundBlur_315_1036"/>
<feBlend mode="normal" in="SourceGraphic" in2="effect1_backgroundBlur_315_1036" result="shape"/>
</filter>
<filter id="filter3_b_315_1036" x="178.385" y="-97.7997" width="660.467" height="437.343" filterUnits="userSpaceOnUse" color-interpolation-filters="sRGB">
<feFlood flood-opacity="0" result="BackgroundImageFix"/>
<feGaussianBlur in="BackgroundImageFix" stdDeviation="66.9363"/>
<feComposite in2="SourceAlpha" operator="in" result="effect1_backgroundBlur_315_1036"/>
<feBlend mode="normal" in="SourceGraphic" in2="effect1_backgroundBlur_315_1036" result="shape"/>
</filter>
<filter id="filter4_b_315_1036" x="252.306" y="315.589" width="275.387" height="296.823" filterUnits="userSpaceOnUse" color-interpolation-filters="sRGB">
<feFlood flood-opacity="0" result="BackgroundImageFix"/>
<feGaussianBlur in="BackgroundImageFix" stdDeviation="34.2057"/>
<feComposite in2="SourceAlpha" operator="in" result="effect1_backgroundBlur_315_1036"/>
<feBlend mode="normal" in="SourceGraphic" in2="effect1_backgroundBlur_315_1036" result="shape"/>
</filter>
<filter id="filter5_b_315_1036" x="-57.6937" y="-32.4114" width="275.387" height="296.823" filterUnits="userSpaceOnUse" color-interpolation-filters="sRGB">
<feFlood flood-opacity="0" result="BackgroundImageFix"/>
<feGaussianBlur in="BackgroundImageFix" stdDeviation="34.2057"/>
<feComposite in2="SourceAlpha" operator="in" result="effect1_backgroundBlur_315_1036"/>
<feBlend mode="normal" in="SourceGraphic" in2="effect1_backgroundBlur_315_1036" result="shape"/>
</filter>
<filter id="filter6_b_315_1036" x="252.306" y="-33.4114" width="275.387" height="296.823" filterUnits="userSpaceOnUse" color-interpolation-filters="sRGB">
<feFlood flood-opacity="0" result="BackgroundImageFix"/>
<feGaussianBlur in="BackgroundImageFix" stdDeviation="34.2057"/>
<feComposite in2="SourceAlpha" operator="in" result="effect1_backgroundBlur_315_1036"/>
<feBlend mode="normal" in="SourceGraphic" in2="effect1_backgroundBlur_315_1036" result="shape"/>
</filter>
<filter id="filter7_b_315_1036" x="551.306" y="-34.4114" width="275.387" height="296.823" filterUnits="userSpaceOnUse" color-interpolation-filters="sRGB">
<feFlood flood-opacity="0" result="BackgroundImageFix"/>
<feGaussianBlur in="BackgroundImageFix" stdDeviation="34.2057"/>
<feComposite in2="SourceAlpha" operator="in" result="effect1_backgroundBlur_315_1036"/>
<feBlend mode="normal" in="SourceGraphic" in2="effect1_backgroundBlur_315_1036" result="shape"/>
</filter>
<linearGradient id="paint0_linear_315_1036" x1="510.244" y1="174.528" x2="84.6091" y2="71.6095" gradientUnits="userSpaceOnUse">
<stop stop-color="white"/>
<stop offset="1" stop-color="#718599" stop-opacity="0"/>
</linearGradient>
<linearGradient id="paint1_linear_315_1036" x1="806.567" y1="173.655" x2="396.414" y2="80.3696" gradientUnits="userSpaceOnUse">
<stop stop-color="white"/>
<stop offset="1" stop-color="#718599" stop-opacity="0"/>
</linearGradient>
<linearGradient id="paint2_linear_315_1036" x1="-55.6554" y1="174.529" x2="369.979" y2="71.61" gradientUnits="userSpaceOnUse">
<stop stop-color="white"/>
<stop offset="1" stop-color="#718599" stop-opacity="0"/>
</linearGradient>
<linearGradient id="paint3_linear_315_1036" x1="250.805" y1="172.648" x2="672.081" y2="73.1207" gradientUnits="userSpaceOnUse">
<stop stop-color="white"/>
<stop offset="1" stop-color="#718599" stop-opacity="0"/>
</linearGradient>
<linearGradient id="paint4_linear_315_1036" x1="465.921" y1="384" x2="346.885" y2="428.394" gradientUnits="userSpaceOnUse">
<stop stop-color="#252B31" stop-opacity="0"/>
<stop offset="1" stop-color="#252B31"/>
</linearGradient>
<linearGradient id="paint5_linear_315_1036" x1="155.921" y1="36" x2="36.8853" y2="80.394" gradientUnits="userSpaceOnUse">
<stop stop-color="#252B31" stop-opacity="0"/>
<stop offset="1" stop-color="#252B31"/>
</linearGradient>
<linearGradient id="paint6_linear_315_1036" x1="465.921" y1="35" x2="346.885" y2="79.394" gradientUnits="userSpaceOnUse">
<stop stop-color="#252B31" stop-opacity="0"/>
<stop offset="1" stop-color="#252B31"/>
</linearGradient>
<linearGradient id="paint7_linear_315_1036" x1="764.921" y1="34" x2="645.885" y2="78.394" gradientUnits="userSpaceOnUse">
<stop stop-color="#252B31" stop-opacity="0"/>
<stop offset="1" stop-color="#252B31"/>
</linearGradient>
<linearGradient id="paint8_linear_315_1036" x1="307.901" y1="399.313" x2="138.794" y2="188.071" gradientUnits="userSpaceOnUse">
<stop offset="0.0526645" stop-color="white" stop-opacity="0"/>
<stop offset="0.498926" stop-color="white"/>
<stop offset="1" stop-color="white" stop-opacity="0"/>
</linearGradient>
<linearGradient id="paint9_linear_315_1036" x1="259.922" y1="445.25" x2="83.6721" y2="222.649" gradientUnits="userSpaceOnUse">
<stop offset="0.0526645" stop-color="white" stop-opacity="0"/>
<stop offset="0.498926" stop-color="white"/>
<stop offset="1" stop-color="white" stop-opacity="0"/>
</linearGradient>
<linearGradient id="paint10_linear_315_1036" x1="457.942" y1="399.313" x2="627.049" y2="188.071" gradientUnits="userSpaceOnUse">
<stop offset="0.0526645" stop-color="white" stop-opacity="0"/>
<stop offset="0.498926" stop-color="white"/>
<stop offset="1" stop-color="white" stop-opacity="0"/>
</linearGradient>
<linearGradient id="paint11_linear_315_1036" x1="505.922" y1="445.25" x2="682.172" y2="222.649" gradientUnits="userSpaceOnUse">
<stop offset="0.0526645" stop-color="white" stop-opacity="0"/>
<stop offset="0.498926" stop-color="white"/>
<stop offset="1" stop-color="white" stop-opacity="0"/>
</linearGradient>
<linearGradient id="paint12_linear_315_1036" x1="345.686" y1="381.732" x2="345.686" y2="218.072" gradientUnits="userSpaceOnUse">
<stop stop-color="white" stop-opacity="0"/>
<stop offset="0.504743" stop-color="white"/>
<stop offset="1" stop-color="white" stop-opacity="0"/>
</linearGradient>
<linearGradient id="paint13_linear_315_1036" x1="425.799" y1="381.732" x2="425.799" y2="218.072" gradientUnits="userSpaceOnUse">
<stop stop-color="white" stop-opacity="0"/>
<stop offset="0.504743" stop-color="white"/>
<stop offset="1" stop-color="white" stop-opacity="0"/>
</linearGradient>
</defs>
</svg>
