<svg width="379" height="321" viewBox="0 0 379 321" fill="none" xmlns="http://www.w3.org/2000/svg">
<g filter="url(#filter0_bf_400_655)">
<circle cx="24.3331" cy="24.3331" r="24.3331" transform="matrix(0.707107 -0.707107 -0.707107 -0.707107 336.412 76.8243)" fill="url(#paint0_linear_400_655)" fill-opacity="0.5"/>
<circle cx="24.3331" cy="24.3331" r="23.2963" transform="matrix(0.707107 -0.707107 -0.707107 -0.707107 336.412 76.8243)" stroke="url(#paint1_linear_400_655)" stroke-width="2.07349"/>
</g>
<g opacity="0.5">
<path opacity="0.0344828" d="M81.9082 78.5917C83.3556 77.6041 85.2309 77.2505 87.5259 77.5389C89.8248 77.8279 92.5147 78.7585 95.5429 80.3012C101.599 83.3866 108.919 88.8737 117.026 96.3437C133.235 111.278 152.51 134.065 171.001 161.166C189.492 188.266 203.68 214.524 211.675 235.063C215.674 245.336 218.114 254.153 218.778 260.917C219.11 264.299 218.996 267.143 218.426 269.389C217.858 271.631 216.845 273.249 215.398 274.236C213.95 275.224 212.075 275.577 209.78 275.289C207.481 275 204.791 274.069 201.763 272.527C195.707 269.441 188.387 263.954 180.279 256.484C164.071 241.55 144.795 218.763 126.305 191.662C107.814 164.562 93.6257 138.304 85.6306 117.765C81.6317 107.492 79.192 98.675 78.5277 91.9108C78.1955 88.5285 78.3099 85.6846 78.8793 83.4386C79.4476 81.1964 80.4607 79.5793 81.9082 78.5917Z" stroke="#F6F6F6" stroke-width="0.949284"/>
<path opacity="0.0689655" d="M90.9444 72.2333C92.4724 71.3756 94.3714 71.1868 96.6325 71.6742C98.8975 72.1624 101.496 73.3239 104.378 75.1247C110.142 78.7261 116.956 84.8303 124.382 92.9784C139.227 109.269 156.443 133.649 172.501 162.258C188.56 190.867 200.406 218.262 206.58 239.419C209.669 250.001 211.331 258.998 211.403 265.794C211.439 269.192 211.077 272.015 210.314 274.203C209.552 276.387 208.402 277.91 206.874 278.768C205.346 279.625 203.447 279.814 201.186 279.327C198.921 278.839 196.323 277.677 193.44 275.876C187.676 272.275 180.862 266.171 173.437 258.023C158.592 241.732 141.376 217.352 125.317 188.743C109.259 160.134 97.4131 132.739 91.2385 111.582C88.1501 101 86.4882 92.0034 86.4159 85.2071C86.3798 81.8087 86.7417 78.9856 87.5046 76.7977C88.2662 74.6137 89.4164 73.091 90.9444 72.2333Z" stroke="#F6F6F6" stroke-width="0.949284"/>
<path opacity="0.103448" d="M100.422 66.6601C102.019 65.9389 103.927 65.9163 106.137 66.5989C108.351 67.2827 110.839 68.6662 113.553 70.7114C118.981 74.8015 125.237 81.4764 131.924 90.2406C145.293 107.763 160.319 133.551 173.823 163.45C187.327 193.35 196.74 221.673 201.047 243.288C203.201 254.099 204.073 263.206 203.552 269.983C203.292 273.371 202.686 276.152 201.735 278.265C200.786 280.375 199.507 281.791 197.91 282.513C196.313 283.234 194.405 283.256 192.195 282.574C189.981 281.89 187.494 280.506 184.78 278.461C179.351 274.371 173.095 267.696 166.408 258.932C153.039 241.41 138.014 215.622 124.51 185.722C111.006 155.823 101.593 127.5 97.2858 105.885C95.1314 95.0735 94.2599 85.9667 94.7802 79.1899C95.0405 75.8013 95.647 73.0204 96.5977 70.9074C97.5468 68.798 98.8253 67.3814 100.422 66.6601Z" stroke="#F6F6F6" stroke-width="0.949284"/>
<path opacity="0.137931" d="M110.271 61.9086C111.925 61.3293 113.828 61.4731 115.97 62.3457C118.116 63.2198 120.473 64.8149 122.999 67.0889C128.05 71.6365 133.7 78.8312 139.598 88.1449C151.389 106.766 164.11 133.765 174.956 164.728C185.803 195.691 192.712 224.726 195.118 246.634C196.322 257.592 196.397 266.74 195.288 273.446C194.733 276.799 193.887 279.516 192.755 281.538C191.626 283.557 190.229 284.857 188.575 285.436C186.921 286.016 185.019 285.872 182.876 284.999C180.731 284.125 178.373 282.53 175.848 280.256C170.796 275.708 165.146 268.514 159.248 259.2C147.458 240.579 134.736 213.58 123.89 182.617C113.043 151.654 106.135 122.619 103.728 100.711C102.524 89.7527 102.449 80.6046 103.558 73.899C104.113 70.5459 104.96 67.8285 106.091 65.8064C107.22 63.7878 108.617 62.4879 110.271 61.9086Z" stroke="#F6F6F6" stroke-width="0.949284"/>
<path opacity="0.172414" d="M120.417 58.0078C122.115 57.5748 123.998 57.8839 126.056 58.9399C128.118 59.9977 130.327 61.7921 132.645 64.2776C137.281 69.2481 142.283 76.908 147.346 86.7002C157.469 106.278 167.789 134.283 175.895 166.073C184.002 197.864 188.354 227.391 188.842 249.425C189.086 260.447 188.363 269.566 186.674 276.15C185.829 279.442 184.749 282.075 183.446 283.991C182.145 285.903 180.64 287.076 178.942 287.509C177.244 287.942 175.361 287.633 173.303 286.577C171.242 285.52 169.032 283.725 166.714 281.24C162.079 276.269 157.077 268.609 152.013 258.817C141.89 239.239 131.571 211.234 123.464 179.444C115.357 147.653 111.006 118.126 110.517 96.0918C110.273 85.0707 110.996 75.9509 112.685 69.3675C113.53 66.0755 114.61 63.4422 115.913 61.5264C117.214 59.6139 118.72 58.4407 120.417 58.0078Z" stroke="#F6F6F6" stroke-width="0.949284"/>
<path opacity="0.206897" d="M130.788 54.9802C132.517 54.6968 134.366 55.1689 136.324 56.4002C138.285 57.6337 140.33 59.6138 142.422 62.2919C146.607 67.6475 150.923 75.7142 155.113 85.9105C163.491 106.296 171.331 135.094 176.636 167.47C181.941 199.846 183.703 229.64 182.269 251.633C181.552 262.634 180.037 271.656 177.78 278.067C176.652 281.273 175.346 283.802 173.881 285.597C172.418 287.389 170.816 288.426 169.087 288.709C167.358 288.993 165.509 288.521 163.551 287.289C161.59 286.056 159.545 284.076 157.452 281.398C153.268 276.042 148.952 267.975 144.762 257.779C136.384 237.394 128.544 208.596 123.239 176.22C117.934 143.844 116.172 114.05 117.606 92.0565C118.323 81.056 119.838 72.0339 122.095 65.6228C123.223 62.417 124.529 59.8879 125.994 58.0929C127.457 56.301 129.059 55.2635 130.788 54.9802Z" stroke="#F6F6F6" stroke-width="0.949284"/>
<path opacity="0.241379" d="M141.302 52.8416C143.049 52.71 144.85 53.3414 146.693 54.7387C148.54 56.1384 150.404 58.2892 152.255 61.1394C155.957 66.8394 159.553 75.2515 162.839 85.7742C169.409 106.812 174.708 136.184 177.172 168.899C179.635 201.614 178.793 231.448 175.448 253.233C173.775 264.129 171.479 272.985 168.672 279.175C167.269 282.27 165.747 284.676 164.131 286.336C162.518 287.994 160.832 288.888 159.085 289.019C157.337 289.151 155.537 288.519 153.693 287.122C151.847 285.722 149.983 283.572 148.132 280.721C144.43 275.021 140.834 266.609 137.548 256.087C130.978 235.049 125.678 205.677 123.215 172.962C120.752 140.247 121.594 110.412 124.939 88.6279C126.612 77.7318 128.908 68.8761 131.715 62.686C133.118 59.5908 134.639 57.185 136.255 55.5246C137.869 53.8671 139.555 52.9731 141.302 52.8416Z" stroke="#F6F6F6" stroke-width="0.949284"/>
<path opacity="0.275862" d="M151.884 51.6027C153.637 51.6239 155.375 52.4099 157.09 53.9625C158.807 55.5178 160.477 57.8229 162.073 60.8236C165.264 66.8246 168.113 75.5181 170.469 86.2871C175.18 107.818 177.9 137.54 177.502 170.345C177.105 203.15 173.666 232.798 168.435 254.208C165.819 264.916 162.76 273.538 159.424 279.46C157.756 282.421 156.031 284.685 154.277 286.199C152.525 287.709 150.768 288.453 149.015 288.432C147.263 288.41 145.524 287.624 143.81 286.072C142.092 284.516 140.423 282.211 138.827 279.211C135.636 273.21 132.787 264.516 130.43 253.747C125.719 232.217 123 202.495 123.397 169.689C123.795 136.884 127.233 107.237 132.465 85.8267C135.081 75.1179 138.14 66.496 141.476 60.5741C143.144 57.613 144.869 55.349 146.623 53.8357C148.375 52.3251 150.132 51.5815 151.884 51.6027Z" stroke="#F6F6F6" stroke-width="0.949284"/>
<path opacity="0.310345" d="M162.456 51.2645C164.2 51.4383 165.864 52.3729 167.436 54.069C169.012 55.7681 170.474 58.21 171.802 61.3383C174.458 67.5946 176.539 76.5033 177.947 87.4367C180.764 109.296 180.883 139.142 177.628 171.788C174.373 204.433 168.363 233.668 161.286 254.541C157.746 264.981 153.947 273.303 150.108 278.912C148.188 281.717 146.273 283.822 144.393 285.176C142.516 286.528 140.701 287.116 138.957 286.942C137.213 286.768 135.55 285.834 133.977 284.138C132.402 282.439 130.939 279.997 129.611 276.868C126.955 270.612 124.875 261.703 123.466 250.77C120.649 228.911 120.53 199.065 123.786 166.419C127.041 133.773 133.05 104.538 140.128 83.6658C143.667 73.2258 147.466 64.9032 151.305 59.2946C153.225 56.4901 155.141 54.385 157.02 53.0305C158.897 51.6782 160.713 51.0906 162.456 51.2645Z" stroke="#F6F6F6" stroke-width="0.949284"/>
<path opacity="0.344828" d="M172.939 51.8231C174.661 52.1483 176.237 53.2243 177.656 55.051C179.077 56.8809 180.321 59.441 181.371 62.6732C183.472 69.1371 184.768 78.1932 185.219 89.2079C186.12 111.229 183.637 140.972 177.549 173.21C171.461 205.448 162.926 234.048 154.056 254.224C149.62 264.316 145.11 272.275 140.797 277.528C138.64 280.155 136.549 282.085 134.558 283.27C132.571 284.454 130.711 284.881 128.989 284.556C127.267 284.231 125.691 283.155 124.272 281.328C122.851 279.498 121.607 276.938 120.556 273.706C118.456 267.242 117.16 258.186 116.709 247.171C115.808 225.15 118.291 195.407 124.379 163.169C130.467 130.931 139.002 102.331 147.872 82.155C152.308 72.0633 156.817 64.1035 161.131 58.8508C163.287 56.2243 165.379 54.2942 167.37 53.1086C169.357 51.9251 171.217 51.498 172.939 51.8231Z" stroke="#F6F6F6" stroke-width="0.949284"/>
<path opacity="0.37931" d="M183.254 53.2669C184.941 53.7409 186.417 54.9502 187.672 56.8936C188.928 58.8405 189.944 61.4992 190.709 64.8106C192.238 71.433 192.74 80.5677 192.229 91.5797C191.207 113.596 186.141 143.009 177.267 174.594C168.392 206.178 157.397 233.925 146.803 253.252C141.504 262.919 136.318 270.455 131.563 275.312C129.186 277.74 126.933 279.481 124.847 280.488C122.764 281.494 120.874 281.758 119.187 281.284C117.5 280.81 116.024 279.6 114.77 277.657C113.513 275.71 112.497 273.051 111.732 269.74C110.203 263.117 109.701 253.983 110.212 242.971C111.234 220.955 116.3 191.542 125.175 159.957C134.049 128.372 145.044 100.625 155.638 81.2987C160.937 71.6319 166.123 64.0955 170.878 59.2387C173.256 56.8101 175.508 55.0697 177.594 54.0622C179.677 53.0563 181.567 52.7929 183.254 53.2669Z" stroke="#F6F6F6" stroke-width="0.949284"/>
<path opacity="0.413793" d="M193.326 55.5786C194.965 56.1978 196.33 57.5311 197.411 59.5765C198.492 61.6254 199.273 64.3625 199.746 67.728C200.692 74.4585 200.396 83.6022 198.927 94.5277C195.99 116.371 188.38 145.231 176.787 175.922C165.193 206.613 151.822 233.296 139.584 251.626C133.462 260.794 127.639 267.849 122.479 272.273C119.899 274.485 117.504 276.023 115.337 276.845C113.175 277.665 111.269 277.763 109.63 277.144C107.991 276.524 106.625 275.191 105.545 273.146C104.463 271.097 103.683 268.36 103.21 264.994C102.263 258.264 102.559 249.12 104.028 238.195C106.965 216.351 114.575 187.492 126.169 156.801C137.762 126.11 151.134 99.4264 163.372 81.0967C169.494 71.9286 175.317 64.8729 180.477 60.4489C183.057 58.2368 185.452 56.6994 187.618 55.8775C189.781 55.057 191.687 54.9593 193.326 55.5786Z" stroke="#F6F6F6" stroke-width="0.949284"/>
<path opacity="0.448276" d="M203.078 58.7334C204.657 59.4932 205.901 60.9404 206.799 63.0721C207.698 65.2076 208.237 68.0023 208.415 71.3962C208.771 78.1836 207.679 87.2666 205.264 98.0226C200.434 119.527 190.338 147.613 176.114 177.177C161.889 206.741 146.243 232.157 132.454 249.35C125.557 257.95 119.141 264.472 113.615 268.429C110.852 270.408 108.332 271.731 106.102 272.361C103.876 272.989 101.969 272.921 100.39 272.161C98.8109 271.401 97.5671 269.954 96.6694 267.822C95.7701 265.687 95.2312 262.892 95.0531 259.498C94.6971 252.711 95.789 243.628 98.2046 232.872C103.034 211.367 113.13 183.281 127.355 153.717C141.579 124.153 157.225 98.7371 171.014 81.5439C177.912 72.9442 184.328 66.4228 189.853 62.4654C192.616 60.4866 195.137 59.1637 197.366 58.5338C199.592 57.9049 201.499 57.9737 203.078 58.7334Z" stroke="#F6F6F6" stroke-width="0.949284"/>
<path opacity="0.482759" d="M212.441 62.7009C213.948 63.5954 215.061 65.1455 215.769 67.3474C216.479 69.5531 216.772 72.3841 216.654 75.7807C216.417 82.5732 214.537 91.5265 211.194 102.031C204.508 123.032 192.002 150.132 175.256 178.344C158.509 206.555 140.707 230.511 125.472 246.437C117.851 254.403 110.891 260.34 105.042 263.801C102.117 265.532 99.4908 266.63 97.2146 267.063C94.9424 267.496 93.0486 267.261 91.5418 266.366C90.035 265.472 88.922 263.922 88.2135 261.72C87.5038 259.514 87.2104 256.683 87.3289 253.287C87.5657 246.494 89.4451 237.541 92.789 227.036C99.4743 206.035 111.98 178.935 128.727 150.723C145.474 122.512 163.275 98.556 178.511 82.63C186.131 74.6642 193.091 68.7268 198.941 65.266C201.866 63.5356 204.492 62.4374 206.768 62.0042C209.04 61.5717 210.934 61.8065 212.441 62.7009Z" stroke="#F6F6F6" stroke-width="0.949284"/>
<path opacity="0.517241" d="M221.343 67.443C222.766 68.4654 223.74 70.1066 224.253 72.3618C224.768 74.621 224.814 77.4668 224.4 80.8401C223.572 87.5862 220.919 96.3416 216.673 106.515C208.182 126.854 193.362 152.76 174.22 179.405C155.078 206.049 135.256 228.363 118.691 242.9C110.405 250.172 102.954 255.48 96.8253 258.418C93.7606 259.886 91.049 260.752 88.7437 260.985C86.4424 261.218 84.5763 260.819 83.1532 259.796C81.7301 258.774 80.7564 257.133 80.2426 254.877C79.7278 252.618 79.6823 249.772 80.0963 246.399C80.9243 239.653 83.5768 230.898 87.8235 220.725C96.3138 200.386 111.134 174.479 130.276 147.834C149.418 121.19 169.24 98.8766 185.805 84.339C194.091 77.0677 201.542 71.7595 207.671 68.8217C210.735 67.3528 213.447 66.4876 215.752 66.2545C218.054 66.0217 219.92 66.4206 221.343 67.443Z" stroke="#F6F6F6" stroke-width="0.949284"/>
<path opacity="0.551724" d="M229.719 72.9172C231.048 74.0597 231.875 75.7795 232.19 78.071C232.506 80.3664 232.303 83.2054 231.597 86.5298C230.184 93.178 226.778 101.669 221.661 111.433C211.431 130.955 194.409 155.471 173.018 180.346C151.626 205.221 129.935 225.722 112.166 238.76C103.278 245.282 95.3926 249.92 89.0308 252.313C85.8497 253.509 83.0731 254.134 80.7563 254.166C78.4434 254.197 76.6192 253.637 75.2906 252.495C73.962 251.352 73.1351 249.632 72.8197 247.341C72.5038 245.045 72.7065 242.206 73.413 238.882C74.8258 232.234 78.2313 223.743 83.3485 213.979C93.5791 194.457 110.601 169.941 131.992 145.066C153.383 120.191 175.074 99.6901 192.844 86.6516C201.732 80.1301 209.617 75.4915 215.979 73.0991C219.16 71.9028 221.937 71.2773 224.253 71.2459C226.566 71.2146 228.39 71.7747 229.719 72.9172Z" stroke="#F6F6F6" stroke-width="0.949284"/>
<path opacity="0.586207" d="M237.507 79.0747C238.731 80.3287 239.405 82.114 239.519 84.4242C239.634 86.7384 239.184 89.549 238.191 92.7991C236.204 99.2989 232.071 107.461 226.123 116.742C214.23 135.297 195.136 158.237 171.658 181.153C148.18 204.069 124.785 222.601 105.947 234.041C96.5242 239.763 88.2647 243.697 81.7187 245.526C78.4454 246.44 75.6248 246.821 73.3141 246.651C71.0073 246.48 69.2388 245.763 68.0148 244.509C66.7909 243.255 66.117 241.47 66.0026 239.16C65.8879 236.846 66.3373 234.035 67.3308 230.785C69.3176 224.285 73.4502 216.123 79.3989 206.842C91.2921 188.287 110.386 165.347 133.863 142.431C157.341 119.515 180.737 100.983 199.575 89.543C208.997 83.8209 217.257 79.8872 223.803 78.0584C227.076 77.1439 229.897 76.7628 232.208 76.9334C234.514 77.1038 236.283 77.8207 237.507 79.0747Z" stroke="#F6F6F6" stroke-width="0.949284"/>
<path opacity="0.62069" d="M244.651 85.8618C245.761 87.2176 246.276 89.0549 246.189 91.3663C246.102 93.6817 245.409 96.4424 244.136 99.5936C241.59 105.895 236.762 113.666 230.027 122.393C216.562 139.842 195.542 161.03 170.156 181.812C144.77 202.595 119.849 219.017 100.085 228.772C90.1996 233.651 81.6287 236.85 74.9482 238.101C71.6077 238.727 68.7646 238.861 66.4775 238.49C64.1944 238.119 62.4951 237.251 61.3851 235.895C60.2751 234.539 59.7594 232.702 59.8467 230.39C59.9342 228.075 60.6268 225.314 61.8998 222.163C64.4455 215.861 69.2738 208.09 76.0087 199.363C89.4738 181.915 110.494 160.726 135.88 139.944C161.266 119.162 186.187 102.739 205.951 92.9842C215.836 88.1051 224.407 84.9062 231.088 83.6549C234.428 83.0292 237.271 82.8954 239.558 83.2668C241.841 83.6376 243.541 84.5059 244.651 85.8618Z" stroke="#F6F6F6" stroke-width="0.949284"/>
<path opacity="0.655172" d="M251.097 93.2193C252.085 94.6668 252.438 96.542 252.15 98.837C251.861 101.136 250.93 103.826 249.388 106.854C246.302 112.91 240.815 120.23 233.345 128.337C218.411 144.546 195.624 163.821 168.523 182.312C141.423 200.803 115.165 214.991 94.6262 222.986C84.3532 226.985 75.5361 229.425 68.7719 230.089C65.3896 230.421 62.5457 230.307 60.2997 229.738C58.0575 229.169 56.4404 228.156 55.4528 226.709C54.4652 225.261 54.1116 223.386 54.4 221.091C54.689 218.792 55.6196 216.102 57.1624 213.074C60.2477 207.018 65.7348 199.698 73.2048 191.591C88.1394 175.382 110.926 156.107 138.027 137.616C165.127 119.125 191.385 104.937 211.924 96.9418C222.197 92.9428 231.014 90.5031 237.778 89.8388C241.16 89.5067 244.004 89.6211 246.25 90.1904C248.493 90.7588 250.11 91.7719 251.097 93.2193Z" stroke="#F6F6F6" stroke-width="0.949284"/>
<path opacity="0.689655" d="M256.799 101.085C257.657 102.613 257.846 104.512 257.358 106.773C256.87 109.039 255.708 111.637 253.908 114.519C250.306 120.283 244.202 127.097 236.054 134.523C219.763 149.368 195.383 166.584 166.774 182.642C138.165 198.701 110.771 210.547 89.6134 216.721C79.031 219.81 70.0348 221.472 63.2385 221.544C59.8401 221.58 57.017 221.218 54.8291 220.455C52.6451 219.693 51.1224 218.543 50.2647 217.015C49.407 215.487 49.2182 213.588 49.7056 211.327C50.1938 209.062 51.3553 206.464 53.1561 203.581C56.7575 197.817 62.8617 191.003 71.0098 183.578C87.3003 168.733 111.68 151.517 140.289 135.458C168.898 119.4 196.293 107.554 217.45 101.38C228.033 98.2911 237.029 96.6292 243.825 96.5569C247.224 96.5208 250.047 96.8827 252.235 97.6456C254.419 98.4072 255.941 99.5574 256.799 101.085Z" stroke="#F6F6F6" stroke-width="0.949284"/>
<path opacity="0.724138" d="M261.715 109.392C262.436 110.989 262.459 112.897 261.776 115.108C261.092 117.321 259.709 119.809 257.664 122.523C253.574 127.951 246.899 134.207 238.134 140.894C220.612 154.263 194.824 169.289 164.925 182.793C135.025 196.297 106.702 205.71 85.0871 210.017C74.2758 212.171 65.169 213.043 58.3923 212.522C55.0036 212.262 52.2228 211.656 50.1098 210.705C48.0004 209.756 46.5837 208.477 45.8625 206.88C45.1412 205.283 45.1186 203.375 45.8012 201.165C46.485 198.951 47.8685 196.464 49.9137 193.75C54.0038 188.321 60.6787 182.065 69.4429 175.378C86.9652 162.01 112.753 146.984 142.653 133.48C172.552 119.976 200.875 110.563 222.49 106.256C233.302 104.102 242.408 103.23 249.185 103.75C252.574 104.011 255.355 104.617 257.468 105.568C259.577 106.517 260.994 107.795 261.715 109.392Z" stroke="#F6F6F6" stroke-width="0.949284"/>
<path opacity="0.758621" d="M265.81 118.07C266.389 119.724 266.245 121.627 265.372 123.769C264.498 125.915 262.903 128.272 260.629 130.798C256.082 135.849 248.887 141.5 239.573 147.397C220.952 159.188 193.953 171.909 162.99 182.755C132.027 193.602 102.992 200.511 81.0839 202.918C70.126 204.122 60.9778 204.196 54.2722 203.087C50.9192 202.532 48.2018 201.686 46.1797 200.555C44.161 199.425 42.8612 198.028 42.2819 196.374C41.7025 194.721 41.8463 192.818 42.719 190.676C43.5931 188.53 45.1881 186.173 47.4621 183.647C52.0097 178.596 59.2045 172.945 68.5182 167.048C87.1389 155.257 114.138 142.536 145.101 131.689C176.064 120.842 205.099 113.934 227.008 111.527C237.965 110.323 247.114 110.249 253.819 111.358C257.172 111.912 259.89 112.759 261.912 113.89C263.93 115.019 265.23 116.416 265.81 118.07Z" stroke="#F6F6F6" stroke-width="0.949284"/>
<path opacity="0.793103" d="M269.053 127.046C269.486 128.744 269.177 130.627 268.121 132.685C267.063 134.747 265.269 136.956 262.783 139.274C257.813 143.91 250.153 148.912 240.361 153.975C220.783 164.098 192.778 174.417 160.987 182.524C129.197 190.631 99.67 194.983 77.6355 195.471C66.6144 195.715 57.4946 194.992 50.9111 193.303C47.6192 192.458 44.9859 191.378 43.0701 190.075C41.1575 188.774 39.9844 187.269 39.5514 185.571C39.1185 183.873 39.4276 181.99 40.4836 179.932C41.5414 177.87 43.3358 175.661 45.8213 173.343C50.7918 168.708 58.4517 163.706 68.2439 158.642C87.8215 148.519 115.827 138.2 147.617 130.093C179.407 121.986 208.935 117.634 230.969 117.146C241.99 116.902 251.11 117.625 257.693 119.314C260.985 120.159 263.619 121.239 265.535 122.542C267.447 123.843 268.62 125.348 269.053 127.046Z" stroke="#F6F6F6" stroke-width="0.949284"/>
<path opacity="0.827586" d="M271.424 136.245C271.707 137.974 271.235 139.823 270.004 141.781C268.77 143.742 266.79 145.787 264.112 147.88C258.756 152.064 250.69 156.38 240.493 160.57C220.108 168.948 191.31 176.788 158.934 182.093C126.558 187.398 96.7639 189.16 74.7708 187.726C63.7703 187.009 54.7482 185.494 48.337 183.237C45.1312 182.109 42.6021 180.803 40.8072 179.338C39.0153 177.875 37.9778 176.273 37.6945 174.544C37.4111 172.815 37.8831 170.966 39.1145 169.008C40.3479 167.047 42.3281 165.002 45.0061 162.91C50.3618 158.725 58.4285 154.409 68.6247 150.219C89.0101 141.841 117.808 134.001 150.184 128.696C182.56 123.391 212.354 121.629 234.347 123.063C245.348 123.78 254.37 125.295 260.781 127.552C263.987 128.68 266.516 129.986 268.311 131.451C270.103 132.914 271.14 134.516 271.424 136.245Z" stroke="#F6F6F6" stroke-width="0.949284"/>
<path opacity="0.862069" d="M272.905 145.589C273.036 147.337 272.405 149.138 271.007 150.981C269.608 152.827 267.457 154.691 264.607 156.543C258.907 160.245 250.495 163.841 239.972 167.127C218.934 173.696 189.562 178.996 156.847 181.459C124.132 183.922 94.2977 183.081 72.5131 179.735C61.617 178.062 52.7613 175.766 46.5712 172.959C43.476 171.556 41.0703 170.035 39.4098 168.419C37.7523 166.806 36.8583 165.12 36.7268 163.372C36.5952 161.625 37.2266 159.824 38.6239 157.981C40.0236 156.134 42.1745 154.27 45.0247 152.419C50.7247 148.717 59.1368 145.121 69.6595 141.835C90.6974 135.266 120.069 129.966 152.784 127.503C185.499 125.039 215.334 125.881 237.118 129.226C248.014 130.9 256.87 133.195 263.06 136.002C266.155 137.406 268.561 138.927 270.221 140.543C271.879 142.156 272.773 143.842 272.905 145.589Z" stroke="#F6F6F6" stroke-width="0.949284"/>
<path opacity="0.896552" d="M273.487 155.001C273.465 156.753 272.679 158.492 271.127 160.207C269.572 161.924 267.266 163.594 264.266 165.19C258.265 168.381 249.571 171.23 238.802 173.586C217.272 178.297 187.55 181.017 154.744 180.619C121.939 180.222 92.2918 176.783 70.8818 171.552C60.173 168.935 51.5511 165.877 45.6292 162.541C42.668 160.873 40.404 159.148 38.8908 157.394C37.3801 155.642 36.6365 153.884 36.6577 152.132C36.679 150.38 37.4649 148.641 39.0176 146.927C40.5729 145.209 42.878 143.54 45.8787 141.944C51.8796 138.753 60.5731 135.904 71.3422 133.547C92.8727 128.836 122.595 126.117 155.4 126.514C188.205 126.912 217.853 130.35 239.263 135.582C249.971 138.198 258.593 141.257 264.515 144.593C267.476 146.261 269.74 147.985 271.254 149.74C272.764 151.492 273.508 153.249 273.487 155.001Z" stroke="#F6F6F6" stroke-width="0.949284"/>
<path opacity="0.931035" d="M273.169 164.403C272.995 166.146 272.06 167.81 270.364 169.383C268.665 170.958 266.223 172.421 263.095 173.749C256.839 176.405 247.93 178.485 236.996 179.894C215.137 182.711 185.291 182.829 152.646 179.574C120 176.319 90.7649 170.31 69.8922 163.232C59.4522 159.692 51.1297 155.894 45.521 152.055C42.7165 150.135 40.6115 148.219 39.2569 146.34C37.9047 144.463 37.3171 142.647 37.4909 140.904C37.6648 139.16 38.5993 137.496 40.2955 135.924C41.9946 134.348 44.4364 132.886 47.5648 131.558C53.821 128.902 62.7297 126.821 73.6632 125.413C95.5224 122.596 125.368 122.477 158.014 125.732C190.66 128.987 219.895 134.997 240.767 142.074C251.207 145.614 259.53 149.413 265.139 153.252C267.943 155.171 270.048 157.087 271.403 158.967C272.755 160.844 273.342 162.659 273.169 164.403Z" stroke="#F6F6F6" stroke-width="0.949284"/>
<path opacity="0.965517" d="M271.952 173.715C271.627 175.436 270.551 177.013 268.724 178.431C266.894 179.853 264.334 181.097 261.102 182.147C254.638 184.248 245.582 185.544 234.567 185.994C212.546 186.895 182.803 184.412 150.565 178.324C118.327 172.236 89.7276 163.702 69.5512 154.832C59.4594 150.396 51.4996 145.886 46.2469 141.573C43.6204 139.416 41.6904 137.324 40.5048 135.333C39.3212 133.346 38.8941 131.486 39.2193 129.764C39.5444 128.042 40.6204 126.466 42.4472 125.048C44.2771 123.626 46.8371 122.382 50.0693 121.332C56.5332 119.231 65.5894 117.935 76.604 117.485C98.6255 116.584 128.368 119.067 160.606 125.155C192.844 131.243 221.444 139.777 241.62 148.647C251.712 153.083 259.672 157.593 264.924 161.906C267.551 164.063 269.481 166.155 270.667 168.146C271.85 170.133 272.277 171.993 271.952 173.715Z" stroke="#F6F6F6" stroke-width="0.949284"/>
<path d="M269.851 182.859C269.377 184.546 268.168 186.022 266.224 187.276C264.278 188.533 261.619 189.549 258.307 190.313C251.685 191.843 242.55 192.345 231.538 191.833C209.522 190.811 180.109 185.746 148.525 176.871C116.94 167.997 89.1928 157.002 69.8662 146.408C60.1995 141.108 52.663 135.922 47.8062 131.168C45.3777 128.79 43.6373 126.538 42.6297 124.452C41.6239 122.369 41.3605 120.479 41.8345 118.792C42.3085 117.105 43.5177 115.629 45.4612 114.374C47.408 113.118 50.0667 112.102 53.3782 111.337C60.0006 109.808 69.1352 109.306 80.1472 109.817C102.163 110.839 131.576 115.905 163.161 124.779C194.746 133.654 222.493 144.649 241.819 155.243C251.486 160.542 259.023 165.728 263.879 170.483C266.308 172.86 268.048 175.112 269.056 177.199C270.062 179.282 270.325 181.172 269.851 182.859Z" stroke="#F6F6F6" stroke-width="0.949284"/>
</g>
<defs>
<filter id="filter0_bf_400_655" x="110.743" y="-183.257" width="451.337" height="451.337" filterUnits="userSpaceOnUse" color-interpolation-filters="sRGB">
<feFlood flood-opacity="0" result="BackgroundImageFix"/>
<feGaussianBlur in="BackgroundImageFix" stdDeviation="100.668"/>
<feComposite in2="SourceAlpha" operator="in" result="effect1_backgroundBlur_400_655"/>
<feBlend mode="normal" in="SourceGraphic" in2="effect1_backgroundBlur_400_655" result="shape"/>
<feGaussianBlur stdDeviation="9.01967" result="effect2_foregroundBlur_400_655"/>
</filter>
<linearGradient id="paint0_linear_400_655" x1="19.6218" y1="6.80317e-05" x2="54.7943" y2="11.004" gradientUnits="userSpaceOnUse">
<stop stop-color="#131517"/>
<stop offset="1" stop-color="#7B8A98"/>
</linearGradient>
<linearGradient id="paint1_linear_400_655" x1="58.2058" y1="9.24706" x2="1.73445" y2="15.2976" gradientUnits="userSpaceOnUse">
<stop stop-color="#262C33"/>
<stop offset="1" stop-color="#718599" stop-opacity="0"/>
</linearGradient>
</defs>
</svg>
