<svg width="287" height="219" viewBox="0 0 287 219" fill="none" xmlns="http://www.w3.org/2000/svg">
<circle cx="285" cy="211" r="2" fill="#F6F6F6"/>
<rect opacity="0.0344828" x="18.9372" y="169.833" width="138.94" height="167.519" transform="rotate(-84 18.9372 169.833)" stroke="white" stroke-opacity="0.5" stroke-width="0.976775"/>
<rect opacity="0.0689655" x="15.9035" y="165.011" width="138.94" height="167.519" transform="rotate(-81 15.9035 165.011)" stroke="white" stroke-opacity="0.5" stroke-width="0.976775"/>
<rect opacity="0.103448" x="13.1261" y="160.036" width="138.94" height="167.519" transform="rotate(-78 13.1261 160.036)" stroke="white" stroke-opacity="0.5" stroke-width="0.976775"/>
<rect opacity="0.137931" x="10.6128" y="154.924" width="138.94" height="167.519" transform="rotate(-75 10.6128 154.924)" stroke="white" stroke-opacity="0.5" stroke-width="0.976775"/>
<rect opacity="0.172414" x="8.37224" y="149.686" width="138.94" height="167.519" transform="rotate(-72 8.37224 149.686)" stroke="white" stroke-opacity="0.5" stroke-width="0.976775"/>
<rect opacity="0.206897" x="6.40734" y="144.339" width="138.94" height="167.519" transform="rotate(-69 6.40734 144.339)" stroke="white" stroke-opacity="0.5" stroke-width="0.976775"/>
<rect opacity="0.241379" x="4.72489" y="138.895" width="138.94" height="167.519" transform="rotate(-66 4.72489 138.895)" stroke="white" stroke-opacity="0.5" stroke-width="0.976775"/>
<rect opacity="0.275862" x="3.33071" y="133.372" width="138.94" height="167.519" transform="rotate(-63 3.33071 133.372)" stroke="white" stroke-opacity="0.5" stroke-width="0.976775"/>
<rect opacity="0.310345" x="2.22574" y="127.782" width="138.94" height="167.519" transform="rotate(-60 2.22574 127.782)" stroke="white" stroke-opacity="0.5" stroke-width="0.976775"/>
<rect opacity="0.344828" x="1.4168" y="122.143" width="138.94" height="167.519" transform="rotate(-57 1.4168 122.143)" stroke="white" stroke-opacity="0.5" stroke-width="0.976775"/>
<rect opacity="0.37931" x="0.902884" y="116.469" width="138.94" height="167.519" transform="rotate(-54 0.902884 116.469)" stroke="white" stroke-opacity="0.5" stroke-width="0.976775"/>
<rect opacity="0.413793" x="0.686901" y="110.776" width="138.94" height="167.519" transform="rotate(-51 0.686901 110.776)" stroke="white" stroke-opacity="0.5" stroke-width="0.976775"/>
<rect opacity="0.448276" x="0.769816" y="105.079" width="138.94" height="167.519" transform="rotate(-48 0.769816 105.079)" stroke="white" stroke-opacity="0.5" stroke-width="0.976775"/>
<rect opacity="0.482759" x="1.14967" y="99.395" width="138.94" height="167.519" transform="rotate(-45 1.14967 99.395)" stroke="white" stroke-opacity="0.5" stroke-width="0.976775"/>
<rect opacity="0.517241" x="1.82646" y="93.7381" width="138.94" height="167.519" transform="rotate(-42 1.82646 93.7381)" stroke="white" stroke-opacity="0.5" stroke-width="0.976775"/>
<rect opacity="0.551724" x="2.79921" y="88.1249" width="138.94" height="167.519" transform="rotate(-39 2.79921 88.1249)" stroke="white" stroke-opacity="0.5" stroke-width="0.976775"/>
<rect opacity="0.586207" x="4.06402" y="82.57" width="138.94" height="167.519" transform="rotate(-36 4.06402 82.57)" stroke="white" stroke-opacity="0.5" stroke-width="0.976775"/>
<rect opacity="0.62069" x="5.61895" y="77.0889" width="138.94" height="167.519" transform="rotate(-33 5.61895 77.0889)" stroke="white" stroke-opacity="0.5" stroke-width="0.976775"/>
<rect opacity="0.655172" x="7.45621" y="71.6963" width="138.94" height="167.519" transform="rotate(-30 7.45621 71.6963)" stroke="white" stroke-opacity="0.5" stroke-width="0.976775"/>
<rect opacity="0.689655" x="9.57485" y="66.4075" width="138.94" height="167.519" transform="rotate(-27 9.57485 66.4075)" stroke="white" stroke-opacity="0.5" stroke-width="0.976775"/>
<rect opacity="0.724138" x="11.9661" y="61.2368" width="138.94" height="167.519" transform="rotate(-24 11.9661 61.2368)" stroke="white" stroke-opacity="0.5" stroke-width="0.976775"/>
<rect opacity="0.758621" x="14.6261" y="56.1987" width="138.94" height="167.519" transform="rotate(-21 14.6261 56.1987)" stroke="white" stroke-opacity="0.5" stroke-width="0.976775"/>
<rect opacity="0.793103" x="17.5461" y="51.3065" width="138.94" height="167.519" transform="rotate(-18 17.5461 51.3065)" stroke="white" stroke-opacity="0.5" stroke-width="0.976775"/>
<rect opacity="0.827586" x="20.7173" y="46.5743" width="138.94" height="167.519" transform="rotate(-15 20.7173 46.5743)" stroke="white" stroke-opacity="0.5" stroke-width="0.976775"/>
<rect opacity="0.862069" x="24.132" y="42.0139" width="138.94" height="167.519" transform="rotate(-12 24.132 42.0139)" stroke="white" stroke-opacity="0.5" stroke-width="0.976775"/>
<rect opacity="0.896552" x="27.7814" y="37.6382" width="138.94" height="167.519" transform="rotate(-9 27.7814 37.6382)" stroke="white" stroke-opacity="0.5" stroke-width="0.976775"/>
<rect opacity="0.931035" x="31.654" y="33.4601" width="138.94" height="167.519" transform="rotate(-6 31.654 33.4601)" stroke="white" stroke-opacity="0.5" stroke-width="0.976775"/>
<rect opacity="0.965517" x="35.7408" y="29.49" width="138.94" height="167.519" transform="rotate(-3 35.7408 29.49)" stroke="white" stroke-opacity="0.5" stroke-width="0.976775"/>
<rect x="40.0284" y="25.7394" width="138.94" height="167.519" stroke="white" stroke-opacity="0.5" stroke-width="0.976775"/>
</svg>
