<svg width="307" height="298" viewBox="0 0 307 298" fill="none" xmlns="http://www.w3.org/2000/svg">
<path opacity="0.0526316" d="M23.7895 240.597C30.2501 249.193 50.8988 263.576 81.8091 252.346C120.447 238.309 135.39 201.101 169.875 181.808C195.328 167.568 263.719 146.193 303.045 169.812" stroke="white" stroke-opacity="0.5" stroke-width="1.60589"/>
<path opacity="0.105263" d="M17.4172 222.578C22.944 231.801 41.9762 248.264 73.8909 240.327C113.784 230.406 132.535 194.963 168.848 179.38C195.649 167.879 265.9 153.771 302.542 181.371" stroke="white" stroke-opacity="0.5" stroke-width="1.60589"/>
<path opacity="0.157895" d="M12.6026 204.316C17.1349 214.067 34.342 232.429 66.9116 227.871C107.624 222.174 129.977 188.886 167.719 177.184C195.576 168.547 266.917 161.859 300.473 193.139" stroke="white" stroke-opacity="0.5" stroke-width="1.60589"/>
<path opacity="0.210526" d="M9.36426 185.975C12.8526 196.146 28.0461 216.206 60.9136 215.078C101.998 213.667 127.708 182.898 166.467 175.205C195.074 169.528 266.723 170.334 296.826 204.949" stroke="white" stroke-opacity="0.5" stroke-width="1.60589"/>
<path opacity="0.263158" d="M7.69919 167.72C10.1052 178.2 23.1186 199.738 55.9241 202.052C96.9309 204.943 125.716 177.03 165.067 173.431C194.111 170.775 265.283 179.066 291.603 216.638" stroke="white" stroke-opacity="0.5" stroke-width="1.60589"/>
<path opacity="0.315789" d="M7.59156 149.715C8.88896 160.389 19.5797 183.17 51.9636 188.9C92.4435 196.062 123.989 171.311 163.5 171.845C192.663 172.239 262.579 187.924 284.827 228.042" stroke="white" stroke-opacity="0.5" stroke-width="1.60589"/>
<path opacity="0.368421" d="M9.00738 132.122C9.18193 142.873 17.4329 166.646 49.0405 175.73C88.5499 187.085 122.51 165.766 161.749 170.427C190.71 173.868 258.604 196.775 276.536 238.999" stroke="white" stroke-opacity="0.5" stroke-width="1.60589"/>
<path opacity="0.421053" d="M11.8938 115.098C10.9436 125.808 16.6644 150.314 47.1493 162.652C85.2554 178.074 121.258 160.422 159.795 169.159C188.238 175.608 253.365 205.486 266.786 249.353" stroke="white" stroke-opacity="0.5" stroke-width="1.60589"/>
<path opacity="0.473684" d="M16.1836 98.7931C14.1191 109.346 17.247 134.315 46.2752 149.772C82.5606 169.092 120.211 155.3 157.623 168.018C185.236 177.405 246.884 213.927 255.646 258.956" stroke="white" stroke-opacity="0.5" stroke-width="1.60589"/>
<path opacity="0.526316" d="M21.7942 83.35C18.6379 93.6289 19.1387 118.788 46.3923 137.195C80.4592 160.203 119.345 150.421 155.223 166.98C181.704 179.202 239.196 221.968 243.203 267.667" stroke="white" stroke-opacity="0.5" stroke-width="1.60589"/>
<path opacity="0.578947" d="M28.6282 68.9021C24.4147 78.7947 22.2829 103.869 47.4632 125.023C78.9386 151.466 118.634 145.803 152.584 166.021C177.643 180.944 230.349 229.485 229.558 275.352" stroke="white" stroke-opacity="0.5" stroke-width="1.60589"/>
<path opacity="0.631579" d="M36.5737 55.5722C31.3492 64.9702 26.6082 89.6839 49.4393 113.354C77.9782 142.942 118.048 141.46 149.699 165.116C173.06 182.576 220.404 236.361 214.822 281.894" stroke="white" stroke-opacity="0.5" stroke-width="1.60589"/>
<path opacity="0.684211" d="M45.5103 43.4705C39.3322 52.2709 32.0338 76.3537 52.2656 102.281C77.5554 134.69 117.56 137.404 146.566 164.239C167.974 184.046 209.436 242.485 199.125 287.185" stroke="white" stroke-opacity="0.5" stroke-width="1.60589"/>
<path opacity="0.736842" d="M55.3019 32.6929C48.2377 40.7993 38.462 63.9873 55.8728 91.8873C77.6364 126.762 117.139 133.643 143.18 163.363C162.4 185.299 197.527 247.752 182.6 291.129" stroke="white" stroke-opacity="0.5" stroke-width="1.60589"/>
<path opacity="0.789474" d="M65.8062 23.3227C57.9333 30.6464 45.7873 52.6854 60.1865 82.2526C78.1853 119.211 116.752 130.184 139.544 162.463C156.366 186.287 184.773 252.07 165.393 293.65" stroke="white" stroke-opacity="0.5" stroke-width="1.60589"/>
<path opacity="0.842105" d="M76.8732 15.4257C68.2779 21.8863 53.8948 42.5351 65.1244 73.4453C79.1615 112.083 116.37 127.027 135.663 161.511C149.903 186.964 171.277 255.355 147.658 294.682" stroke="white" stroke-opacity="0.5" stroke-width="1.60589"/>
<path opacity="0.894737" d="M88.3435 9.05322C79.12 14.58 62.6573 33.6122 70.5944 65.5269C80.5158 105.42 115.958 124.171 131.541 160.484C143.042 187.285 157.151 257.536 129.55 294.178" stroke="white" stroke-opacity="0.5" stroke-width="1.60589"/>
<path opacity="0.947368" d="M100.058 4.23898C90.3075 8.77134 71.9455 25.9784 76.5031 58.548C82.2002 99.26 115.489 121.613 127.19 159.355C135.827 187.212 142.515 258.553 111.236 292.11" stroke="white" stroke-opacity="0.5" stroke-width="1.60589"/>
<path d="M111.852 1C101.681 4.4883 81.6206 19.6818 82.7488 52.5493C84.1591 93.6338 114.929 119.344 122.621 158.103C128.298 186.71 127.493 258.359 92.8771 288.462" stroke="white" stroke-opacity="0.5" stroke-width="1.60589"/>
</svg>
