<svg width="518" height="518" viewBox="0 0 518 518" fill="none" xmlns="http://www.w3.org/2000/svg">
<g filter="url(#filter0_bf_400_750)">
<circle cx="34.7076" cy="34.7076" r="34.7076" transform="matrix(0.707107 -0.707107 -0.707107 -0.707107 414.084 259.168)" fill="url(#paint0_linear_400_750)" fill-opacity="0.5"/>
<circle cx="34.7076" cy="34.7076" r="33.2288" transform="matrix(0.707107 -0.707107 -0.707107 -0.707107 414.084 259.168)" stroke="url(#paint1_linear_400_750)" stroke-width="2.95753"/>
</g>
<g opacity="0.5">
<path opacity="0.0344828" d="M114.864 225.96L175.847 215.286C186.253 213.464 193.337 203.714 191.854 193.255L183.161 131.958C180.609 113.965 203.234 103.891 214.898 117.827L254.633 165.303C261.414 173.405 273.399 174.664 281.716 168.15L330.454 129.973C344.761 118.766 364.797 133.323 358.56 150.393L337.313 208.543C333.687 218.466 338.589 229.475 348.389 233.421L405.82 256.541C422.679 263.327 420.09 287.958 402.189 291.091L341.206 301.765C330.799 303.586 323.715 313.336 325.199 323.796L333.892 385.093C336.444 403.086 313.819 413.16 302.155 399.224L262.419 351.748C255.639 343.646 243.653 342.386 235.336 348.901L186.598 387.078C172.292 398.285 152.255 383.727 158.493 366.658L179.74 308.508C183.366 298.585 178.464 287.575 168.664 283.63L111.233 260.51C94.3741 253.724 96.9629 229.093 114.864 225.96Z" stroke="#F6F6F6" stroke-width="1.51173"/>
<path opacity="0.0689655" d="M119.314 218.89L178.99 211.639C189.477 210.364 197.061 200.998 196.127 190.475L190.813 130.596C189.206 112.494 212.327 103.619 223.246 118.146L259.364 166.201C265.711 174.646 277.614 176.532 286.26 170.461L335.46 135.919C350.333 125.477 369.58 141.063 362.458 157.782L338.9 213.088C334.76 222.808 339.079 234.059 348.659 238.512L403.173 263.849C419.654 271.508 415.779 295.969 397.739 298.162L338.063 305.413C327.576 306.687 319.992 316.053 320.926 326.576L326.24 386.455C327.847 404.557 304.726 413.432 293.807 398.905L257.69 350.85C251.342 342.405 239.439 340.52 230.793 346.59L181.593 381.132C166.72 391.574 147.473 375.989 154.595 359.269L178.153 303.963C182.293 294.243 177.974 282.992 168.394 278.54L113.88 253.203C97.3995 245.543 101.274 221.082 119.314 218.89Z" stroke="#F6F6F6" stroke-width="1.51173"/>
<path opacity="0.103448" d="M124.103 212.195L182.285 208.2C192.824 207.476 200.888 198.52 200.507 187.962L198.398 129.682C197.741 111.521 221.295 103.868 231.438 118.947L263.989 167.336C269.885 176.102 281.674 178.607 290.626 172.998L340.044 142.032C355.443 132.382 373.848 148.954 365.861 165.278L340.23 217.662C335.587 227.151 339.311 238.613 348.645 243.561L400.172 270.875C416.228 279.387 411.079 303.612 392.949 304.856L334.767 308.851C324.228 309.575 316.164 318.531 316.546 329.089L318.654 387.369C319.311 405.53 295.757 413.184 285.614 398.105L253.063 349.716C247.167 340.95 235.378 338.444 226.426 344.054L177.008 375.02C161.609 384.669 143.204 368.098 151.191 351.774L176.822 299.39C181.465 289.9 177.741 278.438 168.407 273.49L116.88 246.176C100.824 237.665 105.973 213.44 124.103 212.195Z" stroke="#F6F6F6" stroke-width="1.51173"/>
<path opacity="0.137931" d="M129.205 205.891L185.72 204.976C196.283 204.805 204.805 196.283 204.976 185.72L205.891 129.205C206.186 111.034 230.108 104.624 239.448 120.213L268.499 168.699C273.928 177.761 285.569 180.88 294.803 175.747L344.204 148.282C360.087 139.452 377.6 156.964 368.769 172.848L341.305 222.249C336.171 231.482 339.291 243.123 348.353 248.553L396.838 277.603C412.428 286.944 406.018 310.866 387.847 311.16L331.332 312.076C320.769 312.247 312.247 320.769 312.076 331.332L311.161 387.847C310.866 406.017 286.944 412.427 277.604 396.838L248.553 348.353C243.124 339.29 231.483 336.171 222.249 341.304L172.848 368.769C156.965 377.599 139.452 360.087 148.283 344.204L175.747 294.803C180.881 285.569 177.761 273.928 168.699 268.498L120.214 239.448C104.624 230.108 111.034 206.185 129.205 205.891Z" stroke="#F6F6F6" stroke-width="1.51173"/>
<path opacity="0.172414" d="M134.591 199.993L189.281 201.971C199.839 202.353 208.795 194.289 209.519 183.75L213.268 129.152C214.513 111.021 238.738 105.872 247.249 121.929L272.881 170.281C277.829 179.616 289.291 183.34 298.78 178.697L347.938 154.644C364.262 146.657 380.833 165.062 371.184 180.462L342.125 226.836C336.515 235.788 339.021 247.576 347.787 253.473L393.195 284.018C408.274 294.162 400.621 317.716 382.46 317.059L327.769 315.08C317.212 314.698 308.256 322.762 307.532 333.302L303.783 387.9C302.538 406.03 278.313 411.179 269.802 395.123L244.17 346.77C239.222 337.436 227.76 333.712 218.271 338.355L169.113 362.407C152.789 370.394 136.217 351.989 145.867 336.59L174.926 290.216C180.535 281.264 178.03 269.475 169.264 263.579L123.855 233.033C108.776 222.89 116.429 199.336 134.591 199.993Z" stroke="#F6F6F6" stroke-width="1.51173"/>
<path opacity="0.206897" d="M140.233 194.511L192.956 199.191C203.48 200.125 212.845 192.54 214.12 182.053L220.504 129.509C222.696 111.469 247.158 107.594 254.817 124.074L277.126 172.074C281.579 181.654 292.83 185.973 302.55 181.833L351.246 161.09C367.966 153.968 383.552 173.215 373.109 188.089L342.695 231.409C336.625 240.055 338.51 251.958 346.955 258.305L389.267 290.106C403.795 301.025 394.919 324.146 376.817 322.54L324.094 317.86C313.571 316.926 304.205 324.511 302.931 334.998L296.546 387.542C294.354 405.582 269.893 409.457 262.233 392.976L239.924 344.977C235.472 335.397 224.221 331.078 214.501 335.218L165.804 355.961C149.085 363.083 133.499 343.836 143.941 328.962L174.355 285.642C180.426 276.996 178.541 265.093 170.095 258.746L127.783 226.945C113.256 216.026 122.131 192.905 140.233 194.511Z" stroke="#F6F6F6" stroke-width="1.51173"/>
<path opacity="0.241379" d="M146.104 189.458L196.732 196.638C207.191 198.121 216.941 191.038 218.763 180.631L227.579 130.263C230.712 112.362 255.343 109.773 262.129 126.631L281.225 174.066C285.17 183.866 296.18 188.768 306.103 185.142L354.131 167.593C371.201 161.356 385.758 181.392 374.551 195.699L343.019 235.954C336.505 244.271 337.764 256.256 345.866 263.037L385.078 295.856C399.014 307.52 388.941 330.145 370.948 327.593L320.32 320.413C309.86 318.93 300.11 326.013 298.289 336.42L289.473 386.788C286.34 404.689 261.709 407.278 254.922 390.42L235.827 342.985C231.882 333.185 220.872 328.283 210.949 331.908L162.92 349.458C145.851 355.695 131.294 335.659 142.5 321.352L174.032 281.097C180.547 272.78 179.287 260.795 171.186 254.014L131.973 221.195C118.037 209.531 128.111 186.906 146.104 189.458Z" stroke="#F6F6F6" stroke-width="1.51173"/>
<path opacity="0.275862" d="M152.172 184.841L200.592 194.316C210.96 196.344 221.067 189.781 223.431 179.484L234.469 131.396C238.535 113.684 263.267 112.387 269.162 129.578L285.166 176.248C288.593 186.242 299.331 191.713 309.43 188.612L356.595 174.127C373.967 168.792 387.456 189.563 375.516 203.263L343.1 240.459C336.159 248.423 336.79 260.458 344.526 267.653L380.651 301.257C393.958 313.634 382.715 335.701 364.88 332.211L316.46 322.736C306.092 320.707 295.984 327.271 293.621 337.567L282.583 385.655C278.517 403.368 253.784 404.664 247.889 387.473L231.885 340.803C228.458 330.81 217.72 325.338 207.621 328.44L160.457 342.924C143.084 348.259 129.596 327.489 141.536 313.788L173.951 276.593C180.892 268.628 180.261 256.593 172.526 249.398L136.4 215.795C123.093 203.417 134.337 181.351 152.172 184.841Z" stroke="#F6F6F6" stroke-width="1.51173"/>
<path opacity="0.310345" d="M158.409 180.665L204.525 192.225C214.772 194.794 225.209 188.768 228.108 178.609L241.155 132.892C246.143 115.416 270.909 115.416 275.896 132.892L288.943 178.609C291.842 188.768 302.279 194.794 312.527 192.225L358.642 180.665C376.27 176.247 388.653 197.695 376.013 210.752L342.944 244.909C335.596 252.5 335.596 264.551 342.944 272.141L376.013 306.299C388.653 319.356 376.27 340.804 358.642 336.385L312.527 324.826C302.279 322.257 291.842 328.283 288.943 338.442L275.896 384.159C270.909 401.634 246.143 401.634 241.155 384.159L228.108 338.442C225.209 328.283 214.772 322.257 204.525 324.826L158.409 336.385C140.781 340.804 128.398 319.356 141.039 306.299L174.107 272.141C181.455 264.551 181.455 252.5 174.107 244.909L141.039 210.752C128.398 197.695 140.781 176.247 158.409 180.665Z" stroke="#F6F6F6" stroke-width="1.51173"/>
<path opacity="0.344828" d="M164.785 176.938L208.516 190.368C218.615 193.469 229.353 187.998 232.78 178.005L247.619 134.732C253.514 117.542 278.246 118.838 282.312 136.55L292.547 181.137C294.91 191.434 305.018 197.997 315.386 195.969L360.28 187.183C378.115 183.693 389.359 205.76 376.052 218.138L342.557 249.294C334.821 256.49 334.19 268.525 341.131 276.489L371.187 310.977C383.127 324.677 369.638 345.448 352.266 340.113L308.535 326.683C298.436 323.581 287.698 329.053 284.271 339.046L269.432 382.319C263.537 399.509 238.805 398.213 234.739 380.5L224.504 335.914C222.141 325.617 212.033 319.053 201.666 321.082L156.771 329.867C138.936 333.357 127.692 311.29 140.999 298.913L174.495 267.756C182.23 260.561 182.861 248.526 175.92 240.561L145.864 206.074C133.924 192.373 147.413 171.603 164.785 176.938Z" stroke="#F6F6F6" stroke-width="1.51173"/>
<path opacity="0.37931" d="M171.272 173.661L212.552 188.745C222.475 192.37 233.485 187.469 237.43 177.668L253.843 136.898C260.63 120.039 285.26 122.628 288.393 140.529L295.971 183.821C297.792 194.227 307.542 201.311 318.002 199.828L361.517 193.656C379.51 191.105 389.583 213.73 375.647 225.394L341.944 253.602C333.843 260.383 332.583 272.368 339.097 280.685L366.199 315.284C377.406 329.591 362.849 349.627 345.779 343.39L304.498 328.306C294.576 324.681 283.566 329.582 279.621 339.383L263.208 380.153C256.421 397.012 231.791 394.423 228.658 376.522L221.08 333.23C219.259 322.823 209.509 315.74 199.049 317.223L155.534 323.394C137.541 325.946 127.467 303.321 141.404 291.657L175.107 263.449C183.208 256.668 184.468 244.683 177.953 236.366L150.851 201.767C139.645 187.46 154.202 167.424 171.272 173.661Z" stroke="#F6F6F6" stroke-width="1.51173"/>
<path opacity="0.413793" d="M177.838 170.835L216.621 187.355C226.34 191.495 237.591 187.176 242.044 177.595L259.811 139.368C267.471 122.888 291.932 126.763 294.124 144.803L299.209 186.65C300.483 197.137 309.849 204.721 320.372 203.787L362.362 200.06C380.464 198.454 389.339 221.575 374.811 232.494L341.114 257.821C332.669 264.168 330.783 276.071 336.854 284.717L361.076 319.218C371.518 334.091 355.932 353.338 339.213 346.216L300.43 329.697C290.711 325.557 279.46 329.875 275.007 339.456L257.24 377.683C249.58 394.163 225.119 390.289 222.927 372.248L217.842 330.402C216.568 319.914 207.202 312.33 196.679 313.264L154.689 316.991C136.587 318.597 127.712 295.476 142.239 284.557L175.937 259.231C184.382 252.883 186.268 240.98 180.197 232.334L155.975 197.833C145.533 182.96 161.119 163.713 177.838 170.835Z" stroke="#F6F6F6" stroke-width="1.51173"/>
<path opacity="0.448276" d="M184.456 168.459L220.708 186.197C230.198 190.84 241.659 187.115 246.607 177.781L265.51 142.123C274.021 126.067 298.246 131.216 299.491 149.346L302.256 189.61C302.98 200.149 311.936 208.214 322.493 207.832L362.825 206.373C380.986 205.715 388.64 229.269 373.561 239.413L340.074 261.939C331.308 267.835 328.802 279.624 334.412 288.576L355.841 322.775C365.491 338.174 348.919 356.579 332.595 348.592L296.344 330.855C286.854 326.212 275.393 329.936 270.445 339.27L251.542 374.928C243.031 390.985 218.806 385.835 217.561 367.705L214.796 327.441C214.072 316.902 205.116 308.838 194.559 309.22L154.227 310.679C136.065 311.336 128.412 287.782 143.491 277.638L176.978 255.112C185.744 249.216 188.25 237.428 182.64 228.475L161.21 194.276C151.561 178.877 168.133 160.472 184.456 168.459Z" stroke="#F6F6F6" stroke-width="1.51173"/>
<path opacity="0.482759" d="M191.096 166.531L224.8 185.268C234.034 190.402 245.675 187.283 251.104 178.22L270.924 145.141C280.264 129.552 304.187 135.962 304.481 154.132L305.105 192.69C305.277 203.253 313.798 211.775 324.361 211.946L362.919 212.57C381.09 212.865 387.499 236.787 371.91 246.127L338.831 265.947C329.769 271.376 326.649 283.017 331.783 292.251L350.521 325.955C359.351 341.838 341.839 359.351 325.955 350.52L292.251 331.782C283.018 326.649 271.377 329.768 265.947 338.831L246.128 371.91C236.787 387.499 212.865 381.089 212.571 362.918L211.946 324.361C211.775 313.798 203.253 305.276 192.69 305.105L154.133 304.481C135.962 304.186 129.552 280.264 145.141 270.924L178.221 251.104C187.283 245.674 190.402 234.033 185.269 224.8L166.531 191.096C157.701 175.212 175.213 157.7 191.096 166.531Z" stroke="#F6F6F6" stroke-width="1.51173"/>
<path opacity="0.517241" d="M197.731 165.046L228.886 184.568C237.838 190.178 249.627 187.672 255.523 178.906L276.044 148.4C286.188 133.321 309.742 140.974 309.085 159.135L307.755 195.877C307.373 206.435 315.438 215.391 325.977 216.115L362.657 218.633C380.788 219.878 385.937 244.103 369.88 252.615L337.396 269.835C328.062 274.783 324.338 286.245 328.981 295.734L345.139 328.759C353.127 345.083 334.722 361.655 319.322 352.005L288.167 332.483C279.215 326.873 267.427 329.379 261.53 338.145L241.009 368.651C230.865 383.73 207.311 376.077 207.968 357.916L209.298 321.174C209.68 310.616 201.616 301.66 191.076 300.936L154.396 298.418C136.265 297.173 131.116 272.948 147.173 264.436L179.657 247.216C188.991 242.268 192.716 230.806 188.072 221.317L171.914 188.292C163.927 171.968 182.331 155.396 197.731 165.046Z" stroke="#F6F6F6" stroke-width="1.51173"/>
<path opacity="0.551724" d="M204.33 163.997L232.951 184.091C241.597 190.162 253.501 188.276 259.848 179.831L280.859 151.876C291.777 137.349 314.898 146.224 313.292 164.326L310.2 199.16C309.266 209.683 316.851 219.049 327.338 220.323L362.053 224.541C380.093 226.733 383.968 251.194 367.487 258.854L335.775 273.593C326.195 278.046 321.876 289.297 326.016 299.017L339.72 331.19C346.842 347.909 327.595 363.495 312.722 353.053L284.101 332.959C275.455 326.888 263.551 328.774 257.204 337.219L236.194 365.174C225.275 379.701 202.154 370.826 203.76 352.724L206.852 317.89C207.786 307.367 200.202 298.001 189.714 296.727L154.999 292.509C136.959 290.317 133.085 265.856 149.565 258.196L181.277 243.457C190.857 239.004 195.176 227.753 191.036 218.033L177.332 185.86C170.21 169.141 189.457 153.555 204.33 163.997Z" stroke="#F6F6F6" stroke-width="1.51173"/>
<path opacity="0.586207" d="M210.868 163.379L236.984 183.836C245.301 190.35 257.287 189.091 264.067 180.989L285.359 155.549C297.023 141.613 319.648 151.687 317.097 169.68L312.438 202.525C310.955 212.985 318.039 222.735 328.445 224.557L361.123 230.276C379.024 233.409 381.612 258.04 364.754 264.827L333.98 277.215C324.179 281.16 319.278 292.17 322.903 302.093L334.289 333.252C340.526 350.322 320.49 364.879 306.183 353.672L280.067 333.215C271.75 326.701 259.765 327.961 252.984 336.062L231.692 361.502C220.028 375.438 197.403 365.365 199.955 347.371L204.613 314.526C206.096 304.066 199.013 294.316 188.606 292.495L155.929 286.775C138.028 283.642 135.439 259.011 152.297 252.225L183.072 239.836C192.872 235.891 197.774 224.881 194.148 214.958L182.763 183.799C176.526 166.729 196.562 152.172 210.868 163.379Z" stroke="#F6F6F6" stroke-width="1.51173"/>
<path opacity="0.62069" d="M217.32 163.179L240.975 183.795C248.94 190.736 260.975 190.105 268.17 182.369L289.541 159.394C301.919 146.087 323.985 157.331 320.495 175.166L314.469 205.96C312.441 216.328 319.004 226.435 329.301 228.799L359.884 235.819C377.597 239.885 378.893 264.617 361.702 270.512L332.021 280.691C322.027 284.118 316.556 294.856 319.658 304.955L328.869 334.95C334.204 352.323 313.434 365.811 299.733 353.871L276.078 333.256C268.113 326.315 256.078 326.945 248.883 334.681L227.512 357.656C215.134 370.963 193.068 359.719 196.558 341.884L202.584 311.09C204.612 300.722 198.049 290.615 187.752 288.251L157.169 281.231C139.456 277.165 138.16 252.433 155.351 246.538L185.032 236.36C195.026 232.933 200.497 222.195 197.395 212.096L188.184 182.1C182.849 164.728 203.619 151.239 217.32 163.179Z" stroke="#F6F6F6" stroke-width="1.51173"/>
<path opacity="0.655172" d="M223.655 163.388L244.909 183.964C252.499 191.313 264.551 191.313 272.141 183.964L293.395 163.388C306.452 150.747 327.9 163.13 323.481 180.758L316.289 209.453C313.72 219.7 319.746 230.137 329.905 233.037L358.351 241.155C375.827 246.142 375.827 270.908 358.351 275.896L329.905 284.014C319.746 286.913 313.72 297.35 316.289 307.597L323.481 336.292C327.9 353.92 306.452 366.303 293.395 353.662L272.141 333.086C264.551 325.738 252.499 325.738 244.909 333.086L223.655 353.662C210.598 366.303 189.15 353.92 193.569 336.292L200.761 307.597C203.33 297.35 197.304 286.913 187.145 284.014L158.699 275.896C141.223 270.908 141.223 246.142 158.699 241.155L187.145 233.037C197.304 230.137 203.33 219.7 200.761 209.453L193.569 180.758C189.15 163.13 210.598 150.747 223.655 163.388Z" stroke="#F6F6F6" stroke-width="1.51173"/>
<path opacity="0.689655" d="M229.855 163.988L248.779 184.333C255.975 192.069 268.01 192.7 275.974 185.759L296.922 167.503C310.622 155.563 331.393 169.052 326.058 186.424L317.9 212.986C314.799 223.085 320.27 233.823 330.264 237.25L356.547 246.263C373.738 252.158 372.442 276.891 354.729 280.956L327.647 287.173C317.351 289.537 310.787 299.644 312.816 310.012L318.152 337.281C321.642 355.116 299.575 366.359 287.198 353.053L268.273 332.707C261.078 324.972 249.043 324.341 241.078 331.282L220.13 349.538C206.43 361.478 185.659 347.989 190.994 330.617L199.152 304.055C202.253 293.956 196.782 283.218 186.789 279.791L160.505 270.778C143.314 264.882 144.61 240.15 162.323 236.084L189.405 229.868C199.702 227.504 206.265 217.397 204.237 207.029L198.901 179.76C195.41 161.925 217.477 150.682 229.855 163.988Z" stroke="#F6F6F6" stroke-width="1.51173"/>
<path opacity="0.724138" d="M235.891 164.975L252.572 184.905C259.353 193.007 271.338 194.267 279.655 187.752L300.115 171.725C314.422 160.518 334.458 175.076 328.221 192.145L319.301 216.557C315.676 226.48 320.578 237.489 330.378 241.435L354.488 251.14C371.346 257.927 368.757 282.558 350.856 285.691L325.255 290.172C314.849 291.993 307.765 301.743 309.249 312.203L312.898 337.936C315.45 355.929 292.825 366.002 281.161 352.066L264.48 332.135C257.699 324.034 245.713 322.774 237.397 329.289L216.936 345.316C202.63 356.522 182.593 341.965 188.83 324.896L197.75 300.484C201.376 290.561 196.474 279.552 186.674 275.606L162.564 265.9C145.706 259.114 148.294 234.483 166.195 231.35L191.796 226.869C202.203 225.048 209.287 215.298 207.803 204.838L204.154 179.105C201.602 161.112 224.227 151.039 235.891 164.975Z" stroke="#F6F6F6" stroke-width="1.51173"/>
<path opacity="0.758621" d="M241.743 166.328L256.279 185.669C262.626 194.114 274.53 195.999 283.176 189.929L302.977 176.027C317.851 165.584 337.098 181.17 329.976 197.89L320.494 220.149C316.354 229.868 320.673 241.119 330.254 245.572L352.194 255.769C368.674 263.429 364.8 287.89 346.759 290.082L322.742 293.001C312.254 294.275 304.67 303.641 305.604 314.164L307.743 338.264C309.349 356.366 286.228 365.241 275.31 350.714L260.773 331.373C254.426 322.928 242.523 321.042 233.877 327.113L214.075 341.015C199.202 351.457 179.955 335.872 187.077 319.152L196.558 296.893C200.698 287.174 196.379 275.922 186.799 271.47L164.859 261.272C148.378 253.613 152.253 229.151 170.293 226.959L194.311 224.041C204.798 222.767 212.383 213.401 211.449 202.878L209.31 178.778C207.703 160.676 230.824 151.801 241.743 166.328Z" stroke="#F6F6F6" stroke-width="1.51173"/>
<path opacity="0.793103" d="M247.388 168.03L259.89 186.615C265.786 195.381 277.575 197.886 286.527 192.277L305.507 180.384C320.906 170.734 339.311 187.306 331.324 203.63L321.48 223.749C316.837 233.238 320.561 244.7 329.895 249.648L349.685 260.139C365.742 268.65 360.593 292.875 342.462 294.12L320.116 295.655C309.577 296.378 301.513 305.334 301.895 315.892L302.704 338.276C303.361 356.437 279.807 364.09 269.664 349.011L257.162 330.426C251.266 321.661 239.477 319.155 230.525 324.764L211.545 336.658C196.146 346.307 177.741 329.735 185.728 313.411L195.572 293.292C200.215 283.803 196.491 272.341 187.157 267.393L167.367 256.903C151.311 248.391 156.46 224.166 174.59 222.921L196.936 221.387C207.476 220.663 215.54 211.707 215.158 201.149L214.348 178.766C213.691 160.604 237.245 152.951 247.388 168.03Z" stroke="#F6F6F6" stroke-width="1.51173"/>
<path opacity="0.827586" d="M252.807 170.064L263.396 187.737C268.826 196.799 280.467 199.919 289.7 194.785L307.707 184.774C323.59 175.944 341.103 193.456 332.272 209.34L322.261 227.346C317.128 236.58 320.247 248.221 329.31 253.651L346.983 264.239C362.572 273.58 356.162 297.502 337.991 297.796L317.391 298.13C306.828 298.301 298.307 306.823 298.135 317.386L297.802 337.986C297.507 356.156 273.585 362.566 264.245 346.977L253.656 329.304C248.226 320.242 236.585 317.123 227.352 322.256L209.345 332.267C193.462 341.097 175.949 323.585 184.78 307.701L194.791 289.695C199.924 280.461 196.805 268.82 187.742 263.391L170.069 252.802C154.48 243.461 160.89 219.539 179.061 219.245L199.661 218.911C210.224 218.74 218.746 210.218 218.917 199.655L219.25 179.056C219.545 160.885 243.467 154.475 252.807 170.064Z" stroke="#F6F6F6" stroke-width="1.51173"/>
<path opacity="0.862069" d="M257.981 172.41L266.789 189.026C271.737 198.361 283.199 202.085 292.689 197.442L309.581 189.176C325.905 181.189 342.477 199.594 332.827 214.994L322.841 230.93C317.232 239.882 319.738 251.67 328.503 257.567L344.108 268.064C359.187 278.207 351.533 301.761 333.372 301.104L314.578 300.424C304.021 300.042 295.064 308.106 294.341 318.646L293.052 337.408C291.808 355.538 267.583 360.688 259.071 344.631L250.263 328.015C245.315 318.681 233.853 314.957 224.364 319.6L207.471 327.865C191.147 335.852 174.575 317.447 184.225 302.048L194.211 286.112C199.82 277.159 197.315 265.371 188.549 259.475L172.944 248.978C157.865 238.834 165.519 215.28 183.68 215.937L202.474 216.617C213.032 216.999 221.988 208.935 222.711 198.396L224 179.633C225.245 161.503 249.47 156.354 257.981 172.41Z" stroke="#F6F6F6" stroke-width="1.51173"/>
<path opacity="0.896552" d="M262.893 175.048L270.062 190.474C274.515 200.054 285.766 204.373 295.486 200.233L311.135 193.567C327.855 186.445 343.441 205.692 332.998 220.566L323.224 234.487C317.154 243.134 319.039 255.037 327.484 261.384L341.082 271.604C355.61 282.523 346.734 305.644 328.632 304.037L311.688 302.534C301.165 301.6 291.799 309.184 290.525 319.671L288.473 336.557C286.281 354.598 261.82 358.472 254.16 341.992L246.991 326.566C242.538 316.986 231.287 312.667 221.567 316.807L205.918 323.473C189.198 330.595 173.612 311.348 184.055 296.475L193.829 282.553C199.899 273.907 198.014 262.004 189.569 255.656L175.971 245.436C161.444 234.518 170.319 211.396 188.421 213.003L205.365 214.507C215.888 215.441 225.254 207.857 226.528 197.369L228.58 180.483C230.772 162.443 255.233 158.568 262.893 175.048Z" stroke="#F6F6F6" stroke-width="1.51173"/>
<path opacity="0.931035" d="M267.525 177.958L273.206 192.072C277.152 201.872 288.161 206.774 298.084 203.148L312.374 197.927C329.444 191.69 344.001 211.726 332.794 226.032L323.413 238.01C316.898 246.326 318.158 258.312 326.259 265.093L337.926 274.858C351.862 286.522 341.789 309.147 323.796 306.595L308.732 304.458C298.272 302.975 288.522 310.059 286.701 320.465L284.078 335.451C280.945 353.353 256.314 355.941 249.528 339.083L243.846 324.969C239.901 315.169 228.891 310.267 218.968 313.893L204.678 319.115C187.609 325.352 173.051 305.315 184.258 291.009L193.64 279.031C200.154 270.715 198.895 258.729 190.793 251.949L179.126 242.184C165.19 230.52 175.263 207.895 193.256 210.446L208.32 212.583C218.78 214.066 228.53 206.982 230.351 196.576L232.974 181.59C236.108 163.689 260.738 161.1 267.525 177.958Z" stroke="#F6F6F6" stroke-width="1.51173"/>
<path opacity="0.965517" d="M271.864 181.117L276.217 193.81C279.644 203.803 290.382 209.274 300.481 206.173L313.308 202.234C330.68 196.899 344.169 217.669 332.229 231.37L323.413 241.486C316.472 249.45 317.103 261.485 324.838 268.68L334.663 277.819C347.97 290.197 336.726 312.263 318.891 308.773L305.723 306.197C295.355 304.168 285.247 310.732 282.884 321.028L279.882 334.106C275.816 351.819 251.084 353.115 245.189 335.925L240.836 323.232C237.409 313.239 226.671 307.767 216.572 310.869L203.745 314.808C186.373 320.143 172.884 299.372 184.824 285.672L193.64 275.556C200.581 267.592 199.95 255.557 192.215 248.361L182.39 239.222C169.083 226.845 180.327 204.778 198.162 208.268L211.33 210.845C221.698 212.874 231.805 206.31 234.169 196.013L237.171 182.935C241.237 165.223 265.969 163.927 271.864 181.117Z" stroke="#F6F6F6" stroke-width="1.51173"/>
<path d="M275.896 184.502L279.086 195.678C281.985 205.837 292.422 211.862 302.669 209.294L313.943 206.468C331.571 202.049 343.954 223.497 331.313 236.554L323.229 244.904C315.881 252.495 315.881 264.546 323.229 272.137L331.313 280.487C343.954 293.544 331.571 314.992 313.943 310.573L302.669 307.747C292.422 305.179 281.985 311.204 279.086 321.363L275.896 332.539C270.909 350.015 246.143 350.015 241.156 332.539L237.966 321.363C235.067 311.204 224.63 305.179 214.382 307.747L203.109 310.573C185.481 314.992 173.098 293.544 185.739 280.487L193.823 272.137C201.171 264.546 201.171 252.495 193.823 244.904L185.739 236.554C173.098 223.497 185.481 202.049 203.109 206.468L214.382 209.294C224.63 211.862 235.067 205.837 237.966 195.678L241.156 184.502C246.143 167.026 270.909 167.026 275.896 184.502Z" stroke="#F6F6F6" stroke-width="1.51173"/>
</g>
<g opacity="0.5">
<path opacity="0.0344828" d="M114.864 225.96L175.847 215.286C186.253 213.464 193.337 203.714 191.854 193.255L183.161 131.958C180.609 113.965 203.234 103.891 214.898 117.827L254.633 165.303C261.414 173.405 273.399 174.664 281.716 168.15L330.454 129.973C344.761 118.766 364.797 133.323 358.56 150.393L337.313 208.543C333.687 218.466 338.589 229.475 348.389 233.421L405.82 256.541C422.679 263.327 420.09 287.958 402.189 291.091L341.206 301.765C330.799 303.586 323.715 313.336 325.199 323.796L333.892 385.093C336.444 403.086 313.819 413.16 302.155 399.224L262.419 351.748C255.639 343.646 243.653 342.386 235.336 348.901L186.598 387.078C172.292 398.285 152.255 383.727 158.493 366.658L179.74 308.508C183.366 298.585 178.464 287.575 168.664 283.63L111.233 260.51C94.3741 253.724 96.9629 229.093 114.864 225.96Z" stroke="#F6F6F6" stroke-width="1.51173"/>
<path opacity="0.0689655" d="M119.314 218.89L178.99 211.639C189.477 210.364 197.061 200.998 196.127 190.475L190.813 130.596C189.206 112.494 212.327 103.619 223.246 118.146L259.364 166.201C265.711 174.646 277.614 176.532 286.26 170.461L335.46 135.919C350.333 125.477 369.58 141.063 362.458 157.782L338.9 213.088C334.76 222.808 339.079 234.059 348.659 238.512L403.173 263.849C419.654 271.508 415.779 295.969 397.739 298.162L338.063 305.413C327.576 306.687 319.992 316.053 320.926 326.576L326.24 386.455C327.847 404.557 304.726 413.432 293.807 398.905L257.69 350.85C251.342 342.405 239.439 340.52 230.793 346.59L181.593 381.132C166.72 391.574 147.473 375.989 154.595 359.269L178.153 303.963C182.293 294.243 177.974 282.992 168.394 278.54L113.88 253.203C97.3995 245.543 101.274 221.082 119.314 218.89Z" stroke="#F6F6F6" stroke-width="1.51173"/>
<path opacity="0.103448" d="M124.103 212.195L182.285 208.2C192.824 207.476 200.888 198.52 200.507 187.962L198.398 129.682C197.741 111.521 221.295 103.868 231.438 118.947L263.989 167.336C269.885 176.102 281.674 178.607 290.626 172.998L340.044 142.032C355.443 132.382 373.848 148.954 365.861 165.278L340.23 217.662C335.587 227.151 339.311 238.613 348.645 243.561L400.172 270.875C416.228 279.387 411.079 303.612 392.949 304.856L334.767 308.851C324.228 309.575 316.164 318.531 316.546 329.089L318.654 387.369C319.311 405.53 295.757 413.184 285.614 398.105L253.063 349.716C247.167 340.95 235.378 338.444 226.426 344.054L177.008 375.02C161.609 384.669 143.204 368.098 151.191 351.774L176.822 299.39C181.465 289.9 177.741 278.438 168.407 273.49L116.88 246.176C100.824 237.665 105.973 213.44 124.103 212.195Z" stroke="#F6F6F6" stroke-width="1.51173"/>
<path opacity="0.137931" d="M129.205 205.891L185.72 204.976C196.283 204.805 204.805 196.283 204.976 185.72L205.891 129.205C206.186 111.034 230.108 104.624 239.448 120.213L268.499 168.699C273.928 177.761 285.569 180.88 294.803 175.747L344.204 148.282C360.087 139.452 377.6 156.964 368.769 172.848L341.305 222.249C336.171 231.482 339.291 243.123 348.353 248.553L396.838 277.603C412.428 286.944 406.018 310.866 387.847 311.16L331.332 312.076C320.769 312.247 312.247 320.769 312.076 331.332L311.161 387.847C310.866 406.017 286.944 412.427 277.604 396.838L248.553 348.353C243.124 339.29 231.483 336.171 222.249 341.304L172.848 368.769C156.965 377.599 139.452 360.087 148.283 344.204L175.747 294.803C180.881 285.569 177.761 273.928 168.699 268.498L120.214 239.448C104.624 230.108 111.034 206.185 129.205 205.891Z" stroke="#F6F6F6" stroke-width="1.51173"/>
<path opacity="0.172414" d="M134.591 199.993L189.281 201.971C199.839 202.353 208.795 194.289 209.519 183.75L213.268 129.152C214.513 111.021 238.738 105.872 247.249 121.929L272.881 170.281C277.829 179.616 289.291 183.34 298.78 178.697L347.938 154.644C364.262 146.657 380.833 165.062 371.184 180.462L342.125 226.836C336.515 235.788 339.021 247.576 347.787 253.473L393.195 284.018C408.274 294.162 400.621 317.716 382.46 317.059L327.769 315.08C317.212 314.698 308.256 322.762 307.532 333.302L303.783 387.9C302.538 406.03 278.313 411.179 269.802 395.123L244.17 346.77C239.222 337.436 227.76 333.712 218.271 338.355L169.113 362.407C152.789 370.394 136.217 351.989 145.867 336.59L174.926 290.216C180.535 281.264 178.03 269.475 169.264 263.579L123.855 233.033C108.776 222.89 116.429 199.336 134.591 199.993Z" stroke="#F6F6F6" stroke-width="1.51173"/>
<path opacity="0.206897" d="M140.233 194.511L192.956 199.191C203.48 200.125 212.845 192.54 214.12 182.053L220.504 129.509C222.696 111.469 247.158 107.594 254.817 124.074L277.126 172.074C281.579 181.654 292.83 185.973 302.55 181.833L351.246 161.09C367.966 153.968 383.552 173.215 373.109 188.089L342.695 231.409C336.625 240.055 338.51 251.958 346.955 258.305L389.267 290.106C403.795 301.025 394.919 324.146 376.817 322.54L324.094 317.86C313.571 316.926 304.205 324.511 302.931 334.998L296.546 387.542C294.354 405.582 269.893 409.457 262.233 392.976L239.924 344.977C235.472 335.397 224.221 331.078 214.501 335.218L165.804 355.961C149.085 363.083 133.499 343.836 143.941 328.962L174.355 285.642C180.426 276.996 178.541 265.093 170.095 258.746L127.783 226.945C113.256 216.026 122.131 192.905 140.233 194.511Z" stroke="#F6F6F6" stroke-width="1.51173"/>
<path opacity="0.241379" d="M146.104 189.458L196.732 196.638C207.191 198.121 216.941 191.038 218.763 180.631L227.579 130.263C230.712 112.362 255.343 109.773 262.129 126.631L281.225 174.066C285.17 183.866 296.18 188.768 306.103 185.142L354.131 167.593C371.201 161.356 385.758 181.392 374.551 195.699L343.019 235.954C336.505 244.271 337.764 256.256 345.866 263.037L385.078 295.856C399.014 307.52 388.941 330.145 370.948 327.593L320.32 320.413C309.86 318.93 300.11 326.013 298.289 336.42L289.473 386.788C286.34 404.689 261.709 407.278 254.922 390.42L235.827 342.985C231.882 333.185 220.872 328.283 210.949 331.908L162.92 349.458C145.851 355.695 131.294 335.659 142.5 321.352L174.032 281.097C180.547 272.78 179.287 260.795 171.186 254.014L131.973 221.195C118.037 209.531 128.111 186.906 146.104 189.458Z" stroke="#F6F6F6" stroke-width="1.51173"/>
<path opacity="0.275862" d="M152.172 184.841L200.592 194.316C210.96 196.344 221.067 189.781 223.431 179.484L234.469 131.396C238.535 113.684 263.267 112.387 269.162 129.578L285.166 176.248C288.593 186.242 299.331 191.713 309.43 188.612L356.595 174.127C373.967 168.792 387.456 189.563 375.516 203.263L343.1 240.459C336.159 248.423 336.79 260.458 344.526 267.653L380.651 301.257C393.958 313.634 382.715 335.701 364.88 332.211L316.46 322.736C306.092 320.707 295.984 327.271 293.621 337.567L282.583 385.655C278.517 403.368 253.784 404.664 247.889 387.473L231.885 340.803C228.458 330.81 217.72 325.338 207.621 328.44L160.457 342.924C143.084 348.259 129.596 327.489 141.536 313.788L173.951 276.593C180.892 268.628 180.261 256.593 172.526 249.398L136.4 215.795C123.093 203.417 134.337 181.351 152.172 184.841Z" stroke="#F6F6F6" stroke-width="1.51173"/>
<path opacity="0.310345" d="M158.409 180.665L204.525 192.225C214.772 194.794 225.209 188.768 228.108 178.609L241.155 132.892C246.143 115.416 270.909 115.416 275.896 132.892L288.943 178.609C291.842 188.768 302.279 194.794 312.527 192.225L358.642 180.665C376.27 176.247 388.653 197.695 376.013 210.752L342.944 244.909C335.596 252.5 335.596 264.551 342.944 272.141L376.013 306.299C388.653 319.356 376.27 340.804 358.642 336.385L312.527 324.826C302.279 322.257 291.842 328.283 288.943 338.442L275.896 384.159C270.909 401.634 246.143 401.634 241.155 384.159L228.108 338.442C225.209 328.283 214.772 322.257 204.525 324.826L158.409 336.385C140.781 340.804 128.398 319.356 141.039 306.299L174.107 272.141C181.455 264.551 181.455 252.5 174.107 244.909L141.039 210.752C128.398 197.695 140.781 176.247 158.409 180.665Z" stroke="#F6F6F6" stroke-width="1.51173"/>
<path opacity="0.344828" d="M164.785 176.938L208.516 190.368C218.615 193.469 229.353 187.998 232.78 178.005L247.619 134.732C253.514 117.542 278.246 118.838 282.312 136.55L292.547 181.137C294.91 191.434 305.018 197.997 315.386 195.969L360.28 187.183C378.115 183.693 389.359 205.76 376.052 218.138L342.557 249.294C334.821 256.49 334.19 268.525 341.131 276.489L371.187 310.977C383.127 324.677 369.638 345.448 352.266 340.113L308.535 326.683C298.436 323.581 287.698 329.053 284.271 339.046L269.432 382.319C263.537 399.509 238.805 398.213 234.739 380.5L224.504 335.914C222.141 325.617 212.033 319.053 201.666 321.082L156.771 329.867C138.936 333.357 127.692 311.29 140.999 298.913L174.495 267.756C182.23 260.561 182.861 248.526 175.92 240.561L145.864 206.074C133.924 192.373 147.413 171.603 164.785 176.938Z" stroke="#F6F6F6" stroke-width="1.51173"/>
<path opacity="0.37931" d="M171.272 173.661L212.552 188.745C222.475 192.37 233.485 187.469 237.43 177.668L253.843 136.898C260.63 120.039 285.26 122.628 288.393 140.529L295.971 183.821C297.792 194.227 307.542 201.311 318.002 199.828L361.517 193.656C379.51 191.105 389.583 213.73 375.647 225.394L341.944 253.602C333.843 260.383 332.583 272.368 339.097 280.685L366.199 315.284C377.406 329.591 362.849 349.627 345.779 343.39L304.498 328.306C294.576 324.681 283.566 329.582 279.621 339.383L263.208 380.153C256.421 397.012 231.791 394.423 228.658 376.522L221.08 333.23C219.259 322.823 209.509 315.74 199.049 317.223L155.534 323.394C137.541 325.946 127.467 303.321 141.404 291.657L175.107 263.449C183.208 256.668 184.468 244.683 177.953 236.366L150.851 201.767C139.645 187.46 154.202 167.424 171.272 173.661Z" stroke="#F6F6F6" stroke-width="1.51173"/>
<path opacity="0.413793" d="M177.838 170.835L216.621 187.355C226.34 191.495 237.591 187.176 242.044 177.595L259.811 139.368C267.471 122.888 291.932 126.763 294.124 144.803L299.209 186.65C300.483 197.137 309.849 204.721 320.372 203.787L362.362 200.06C380.464 198.454 389.339 221.575 374.811 232.494L341.114 257.821C332.669 264.168 330.783 276.071 336.854 284.717L361.076 319.218C371.518 334.091 355.932 353.338 339.213 346.216L300.43 329.697C290.711 325.557 279.46 329.875 275.007 339.456L257.24 377.683C249.58 394.163 225.119 390.289 222.927 372.248L217.842 330.402C216.568 319.914 207.202 312.33 196.679 313.264L154.689 316.991C136.587 318.597 127.712 295.476 142.239 284.557L175.937 259.231C184.382 252.883 186.268 240.98 180.197 232.334L155.975 197.833C145.533 182.96 161.119 163.713 177.838 170.835Z" stroke="#F6F6F6" stroke-width="1.51173"/>
<path opacity="0.448276" d="M184.456 168.459L220.708 186.197C230.198 190.84 241.659 187.115 246.607 177.781L265.51 142.123C274.021 126.067 298.246 131.216 299.491 149.346L302.256 189.61C302.98 200.149 311.936 208.214 322.493 207.832L362.825 206.373C380.986 205.715 388.64 229.269 373.561 239.413L340.074 261.939C331.308 267.835 328.802 279.624 334.412 288.576L355.841 322.775C365.491 338.174 348.919 356.579 332.595 348.592L296.344 330.855C286.854 326.212 275.393 329.936 270.445 339.27L251.542 374.928C243.031 390.985 218.806 385.835 217.561 367.705L214.796 327.441C214.072 316.902 205.116 308.838 194.559 309.22L154.227 310.679C136.065 311.336 128.412 287.782 143.491 277.638L176.978 255.112C185.744 249.216 188.25 237.428 182.64 228.475L161.21 194.276C151.561 178.877 168.133 160.472 184.456 168.459Z" stroke="#F6F6F6" stroke-width="1.51173"/>
<path opacity="0.482759" d="M191.096 166.531L224.8 185.268C234.034 190.402 245.675 187.283 251.104 178.22L270.924 145.141C280.264 129.552 304.187 135.962 304.481 154.132L305.105 192.69C305.277 203.253 313.798 211.775 324.361 211.946L362.919 212.57C381.09 212.865 387.499 236.787 371.91 246.127L338.831 265.947C329.769 271.376 326.649 283.017 331.783 292.251L350.521 325.955C359.351 341.838 341.839 359.351 325.955 350.52L292.251 331.782C283.018 326.649 271.377 329.768 265.947 338.831L246.128 371.91C236.787 387.499 212.865 381.089 212.571 362.918L211.946 324.361C211.775 313.798 203.253 305.276 192.69 305.105L154.133 304.481C135.962 304.186 129.552 280.264 145.141 270.924L178.221 251.104C187.283 245.674 190.402 234.033 185.269 224.8L166.531 191.096C157.701 175.212 175.213 157.7 191.096 166.531Z" stroke="#F6F6F6" stroke-width="1.51173"/>
<path opacity="0.517241" d="M197.731 165.046L228.886 184.568C237.838 190.178 249.627 187.672 255.523 178.906L276.044 148.4C286.188 133.321 309.742 140.974 309.085 159.135L307.755 195.877C307.373 206.435 315.438 215.391 325.977 216.115L362.657 218.633C380.788 219.878 385.937 244.103 369.88 252.615L337.396 269.835C328.062 274.783 324.338 286.245 328.981 295.734L345.139 328.759C353.127 345.083 334.722 361.655 319.322 352.005L288.167 332.483C279.215 326.873 267.427 329.379 261.53 338.145L241.009 368.651C230.865 383.73 207.311 376.077 207.968 357.916L209.298 321.174C209.68 310.616 201.616 301.66 191.076 300.936L154.396 298.418C136.265 297.173 131.116 272.948 147.173 264.436L179.657 247.216C188.991 242.268 192.716 230.806 188.072 221.317L171.914 188.292C163.927 171.968 182.331 155.396 197.731 165.046Z" stroke="#F6F6F6" stroke-width="1.51173"/>
<path opacity="0.551724" d="M204.33 163.997L232.951 184.091C241.597 190.162 253.501 188.276 259.848 179.831L280.859 151.876C291.777 137.349 314.898 146.224 313.292 164.326L310.2 199.16C309.266 209.683 316.851 219.049 327.338 220.323L362.053 224.541C380.093 226.733 383.968 251.194 367.487 258.854L335.775 273.593C326.195 278.046 321.876 289.297 326.016 299.017L339.72 331.19C346.842 347.909 327.595 363.495 312.722 353.053L284.101 332.959C275.455 326.888 263.551 328.774 257.204 337.219L236.194 365.174C225.275 379.701 202.154 370.826 203.76 352.724L206.852 317.89C207.786 307.367 200.202 298.001 189.714 296.727L154.999 292.509C136.959 290.317 133.085 265.856 149.565 258.196L181.277 243.457C190.857 239.004 195.176 227.753 191.036 218.033L177.332 185.86C170.21 169.141 189.457 153.555 204.33 163.997Z" stroke="#F6F6F6" stroke-width="1.51173"/>
<path opacity="0.586207" d="M210.868 163.379L236.984 183.836C245.301 190.35 257.287 189.091 264.067 180.989L285.359 155.549C297.023 141.613 319.648 151.687 317.097 169.68L312.438 202.525C310.955 212.985 318.039 222.735 328.445 224.557L361.123 230.276C379.024 233.409 381.612 258.04 364.754 264.827L333.98 277.215C324.179 281.16 319.278 292.17 322.903 302.093L334.289 333.252C340.526 350.322 320.49 364.879 306.183 353.672L280.067 333.215C271.75 326.701 259.765 327.961 252.984 336.062L231.692 361.502C220.028 375.438 197.403 365.365 199.955 347.371L204.613 314.526C206.096 304.066 199.013 294.316 188.606 292.495L155.929 286.775C138.028 283.642 135.439 259.011 152.297 252.225L183.072 239.836C192.872 235.891 197.774 224.881 194.148 214.958L182.763 183.799C176.526 166.729 196.562 152.172 210.868 163.379Z" stroke="#F6F6F6" stroke-width="1.51173"/>
<path opacity="0.62069" d="M217.32 163.179L240.975 183.795C248.94 190.736 260.975 190.105 268.17 182.369L289.541 159.394C301.919 146.087 323.985 157.331 320.495 175.166L314.469 205.96C312.441 216.328 319.004 226.435 329.301 228.799L359.884 235.819C377.597 239.885 378.893 264.617 361.702 270.512L332.021 280.691C322.027 284.118 316.556 294.856 319.658 304.955L328.869 334.95C334.204 352.323 313.434 365.811 299.733 353.871L276.078 333.256C268.113 326.315 256.078 326.945 248.883 334.681L227.512 357.656C215.134 370.963 193.068 359.719 196.558 341.884L202.584 311.09C204.612 300.722 198.049 290.615 187.752 288.251L157.169 281.231C139.456 277.165 138.16 252.433 155.351 246.538L185.032 236.36C195.026 232.933 200.497 222.195 197.395 212.096L188.184 182.1C182.849 164.728 203.619 151.239 217.32 163.179Z" stroke="#F6F6F6" stroke-width="1.51173"/>
<path opacity="0.655172" d="M223.655 163.388L244.909 183.964C252.499 191.313 264.551 191.313 272.141 183.964L293.395 163.388C306.452 150.747 327.9 163.13 323.481 180.758L316.289 209.453C313.72 219.7 319.746 230.137 329.905 233.037L358.351 241.155C375.827 246.142 375.827 270.908 358.351 275.896L329.905 284.014C319.746 286.913 313.72 297.35 316.289 307.597L323.481 336.292C327.9 353.92 306.452 366.303 293.395 353.662L272.141 333.086C264.551 325.738 252.499 325.738 244.909 333.086L223.655 353.662C210.598 366.303 189.15 353.92 193.569 336.292L200.761 307.597C203.33 297.35 197.304 286.913 187.145 284.014L158.699 275.896C141.223 270.908 141.223 246.142 158.699 241.155L187.145 233.037C197.304 230.137 203.33 219.7 200.761 209.453L193.569 180.758C189.15 163.13 210.598 150.747 223.655 163.388Z" stroke="#F6F6F6" stroke-width="1.51173"/>
<path opacity="0.689655" d="M229.855 163.988L248.779 184.333C255.975 192.069 268.01 192.7 275.974 185.759L296.922 167.503C310.622 155.563 331.393 169.052 326.058 186.424L317.9 212.986C314.799 223.085 320.27 233.823 330.264 237.25L356.547 246.263C373.738 252.158 372.442 276.891 354.729 280.956L327.647 287.173C317.351 289.537 310.787 299.644 312.816 310.012L318.152 337.281C321.642 355.116 299.575 366.359 287.198 353.053L268.273 332.707C261.078 324.972 249.043 324.341 241.078 331.282L220.13 349.538C206.43 361.478 185.659 347.989 190.994 330.617L199.152 304.055C202.253 293.956 196.782 283.218 186.789 279.791L160.505 270.778C143.314 264.882 144.61 240.15 162.323 236.084L189.405 229.868C199.702 227.504 206.265 217.397 204.237 207.029L198.901 179.76C195.41 161.925 217.477 150.682 229.855 163.988Z" stroke="#F6F6F6" stroke-width="1.51173"/>
<path opacity="0.724138" d="M235.891 164.975L252.572 184.905C259.353 193.007 271.338 194.267 279.655 187.752L300.115 171.725C314.422 160.518 334.458 175.076 328.221 192.145L319.301 216.557C315.676 226.48 320.578 237.489 330.378 241.435L354.488 251.14C371.346 257.927 368.757 282.558 350.856 285.691L325.255 290.172C314.849 291.993 307.765 301.743 309.249 312.203L312.898 337.936C315.45 355.929 292.825 366.002 281.161 352.066L264.48 332.135C257.699 324.034 245.713 322.774 237.397 329.289L216.936 345.316C202.63 356.522 182.593 341.965 188.83 324.896L197.75 300.484C201.376 290.561 196.474 279.552 186.674 275.606L162.564 265.9C145.706 259.114 148.294 234.483 166.195 231.35L191.796 226.869C202.203 225.048 209.287 215.298 207.803 204.838L204.154 179.105C201.602 161.112 224.227 151.039 235.891 164.975Z" stroke="#F6F6F6" stroke-width="1.51173"/>
<path opacity="0.758621" d="M241.743 166.328L256.279 185.669C262.626 194.114 274.53 195.999 283.176 189.929L302.977 176.027C317.851 165.584 337.098 181.17 329.976 197.89L320.494 220.149C316.354 229.868 320.673 241.119 330.254 245.572L352.194 255.769C368.674 263.429 364.8 287.89 346.759 290.082L322.742 293.001C312.254 294.275 304.67 303.641 305.604 314.164L307.743 338.264C309.349 356.366 286.228 365.241 275.31 350.714L260.773 331.373C254.426 322.928 242.523 321.042 233.877 327.113L214.075 341.015C199.202 351.457 179.955 335.872 187.077 319.152L196.558 296.893C200.698 287.174 196.379 275.922 186.799 271.47L164.859 261.272C148.378 253.613 152.253 229.151 170.293 226.959L194.311 224.041C204.798 222.767 212.383 213.401 211.449 202.878L209.31 178.778C207.703 160.676 230.824 151.801 241.743 166.328Z" stroke="#F6F6F6" stroke-width="1.51173"/>
<path opacity="0.793103" d="M247.388 168.03L259.89 186.615C265.786 195.381 277.575 197.886 286.527 192.277L305.507 180.384C320.906 170.734 339.311 187.306 331.324 203.63L321.48 223.749C316.837 233.238 320.561 244.7 329.895 249.648L349.685 260.139C365.742 268.65 360.593 292.875 342.462 294.12L320.116 295.655C309.577 296.378 301.513 305.334 301.895 315.892L302.704 338.276C303.361 356.437 279.807 364.09 269.664 349.011L257.162 330.426C251.266 321.661 239.477 319.155 230.525 324.764L211.545 336.658C196.146 346.307 177.741 329.735 185.728 313.411L195.572 293.292C200.215 283.803 196.491 272.341 187.157 267.393L167.367 256.903C151.311 248.391 156.46 224.166 174.59 222.921L196.936 221.387C207.476 220.663 215.54 211.707 215.158 201.149L214.348 178.766C213.691 160.604 237.245 152.951 247.388 168.03Z" stroke="#F6F6F6" stroke-width="1.51173"/>
<path opacity="0.827586" d="M252.807 170.064L263.396 187.737C268.826 196.799 280.467 199.919 289.7 194.785L307.707 184.774C323.59 175.944 341.103 193.456 332.272 209.34L322.261 227.346C317.128 236.58 320.247 248.221 329.31 253.651L346.983 264.239C362.572 273.58 356.162 297.502 337.991 297.796L317.391 298.13C306.828 298.301 298.307 306.823 298.135 317.386L297.802 337.986C297.507 356.156 273.585 362.566 264.245 346.977L253.656 329.304C248.226 320.242 236.585 317.123 227.352 322.256L209.345 332.267C193.462 341.097 175.949 323.585 184.78 307.701L194.791 289.695C199.924 280.461 196.805 268.82 187.742 263.391L170.069 252.802C154.48 243.461 160.89 219.539 179.061 219.245L199.661 218.911C210.224 218.74 218.746 210.218 218.917 199.655L219.25 179.056C219.545 160.885 243.467 154.475 252.807 170.064Z" stroke="#F6F6F6" stroke-width="1.51173"/>
<path opacity="0.862069" d="M257.981 172.41L266.789 189.026C271.737 198.361 283.199 202.085 292.689 197.442L309.581 189.176C325.905 181.189 342.477 199.594 332.827 214.994L322.841 230.93C317.232 239.882 319.738 251.67 328.503 257.567L344.108 268.064C359.187 278.207 351.533 301.761 333.372 301.104L314.578 300.424C304.021 300.042 295.064 308.106 294.341 318.646L293.052 337.408C291.808 355.538 267.583 360.688 259.071 344.631L250.263 328.015C245.315 318.681 233.853 314.957 224.364 319.6L207.471 327.865C191.147 335.852 174.575 317.447 184.225 302.048L194.211 286.112C199.82 277.159 197.315 265.371 188.549 259.475L172.944 248.978C157.865 238.834 165.519 215.28 183.68 215.937L202.474 216.617C213.032 216.999 221.988 208.935 222.711 198.396L224 179.633C225.245 161.503 249.47 156.354 257.981 172.41Z" stroke="#F6F6F6" stroke-width="1.51173"/>
<path opacity="0.896552" d="M262.893 175.048L270.062 190.474C274.515 200.054 285.766 204.373 295.486 200.233L311.135 193.567C327.855 186.445 343.441 205.692 332.998 220.566L323.224 234.487C317.154 243.134 319.039 255.037 327.484 261.384L341.082 271.604C355.61 282.523 346.734 305.644 328.632 304.037L311.688 302.534C301.165 301.6 291.799 309.184 290.525 319.671L288.473 336.557C286.281 354.598 261.82 358.472 254.16 341.992L246.991 326.566C242.538 316.986 231.287 312.667 221.567 316.807L205.918 323.473C189.198 330.595 173.612 311.348 184.055 296.475L193.829 282.553C199.899 273.907 198.014 262.004 189.569 255.656L175.971 245.436C161.444 234.518 170.319 211.396 188.421 213.003L205.365 214.507C215.888 215.441 225.254 207.857 226.528 197.369L228.58 180.483C230.772 162.443 255.233 158.568 262.893 175.048Z" stroke="#F6F6F6" stroke-width="1.51173"/>
<path opacity="0.931035" d="M267.525 177.958L273.206 192.072C277.152 201.872 288.161 206.774 298.084 203.148L312.374 197.927C329.444 191.69 344.001 211.726 332.794 226.032L323.413 238.01C316.898 246.326 318.158 258.312 326.259 265.093L337.926 274.858C351.862 286.522 341.789 309.147 323.796 306.595L308.732 304.458C298.272 302.975 288.522 310.059 286.701 320.465L284.078 335.451C280.945 353.353 256.314 355.941 249.528 339.083L243.846 324.969C239.901 315.169 228.891 310.267 218.968 313.893L204.678 319.115C187.609 325.352 173.051 305.315 184.258 291.009L193.64 279.031C200.154 270.715 198.895 258.729 190.793 251.949L179.126 242.184C165.19 230.52 175.263 207.895 193.256 210.446L208.32 212.583C218.78 214.066 228.53 206.982 230.351 196.576L232.974 181.59C236.108 163.689 260.738 161.1 267.525 177.958Z" stroke="#F6F6F6" stroke-width="1.51173"/>
<path opacity="0.965517" d="M271.864 181.117L276.217 193.81C279.644 203.803 290.382 209.274 300.481 206.173L313.308 202.234C330.68 196.899 344.169 217.669 332.229 231.37L323.413 241.486C316.472 249.45 317.103 261.485 324.838 268.68L334.663 277.819C347.97 290.197 336.726 312.263 318.891 308.773L305.723 306.197C295.355 304.168 285.247 310.732 282.884 321.028L279.882 334.106C275.816 351.819 251.084 353.115 245.189 335.925L240.836 323.232C237.409 313.239 226.671 307.767 216.572 310.869L203.745 314.808C186.373 320.143 172.884 299.372 184.824 285.672L193.64 275.556C200.581 267.592 199.95 255.557 192.215 248.361L182.39 239.222C169.083 226.845 180.327 204.778 198.162 208.268L211.33 210.845C221.698 212.874 231.805 206.31 234.169 196.013L237.171 182.935C241.237 165.223 265.969 163.927 271.864 181.117Z" stroke="#F6F6F6" stroke-width="1.51173"/>
<path d="M275.896 184.502L279.086 195.678C281.985 205.837 292.422 211.862 302.669 209.294L313.943 206.468C331.571 202.049 343.954 223.497 331.313 236.554L323.229 244.904C315.881 252.495 315.881 264.546 323.229 272.137L331.313 280.487C343.954 293.544 331.571 314.992 313.943 310.573L302.669 307.747C292.422 305.179 281.985 311.204 279.086 321.363L275.896 332.539C270.909 350.015 246.143 350.015 241.156 332.539L237.966 321.363C235.067 311.204 224.63 305.179 214.382 307.747L203.109 310.573C185.481 314.992 173.098 293.544 185.739 280.487L193.823 272.137C201.171 264.546 201.171 252.495 193.823 244.904L185.739 236.554C173.098 223.497 185.481 202.049 203.109 206.468L214.382 209.294C224.63 211.862 235.067 205.837 237.966 195.678L241.156 184.502C246.143 167.026 270.909 167.026 275.896 184.502Z" stroke="#F6F6F6" stroke-width="1.51173"/>
</g>
<defs>
<filter id="filter0_bf_400_750" x="92.1999" y="-111.8" width="643.768" height="643.767" filterUnits="userSpaceOnUse" color-interpolation-filters="sRGB">
<feFlood flood-opacity="0" result="BackgroundImageFix"/>
<feGaussianBlur in="BackgroundImageFix" stdDeviation="143.588"/>
<feComposite in2="SourceAlpha" operator="in" result="effect1_backgroundBlur_400_750"/>
<feBlend mode="normal" in="SourceGraphic" in2="effect1_backgroundBlur_400_750" result="shape"/>
<feGaussianBlur stdDeviation="12.8653" result="effect2_foregroundBlur_400_750"/>
</filter>
<linearGradient id="paint0_linear_400_750" x1="27.9877" y1="9.70373e-05" x2="78.1561" y2="15.6956" gradientUnits="userSpaceOnUse">
<stop stop-color="#131517"/>
<stop offset="1" stop-color="#7B8A98"/>
</linearGradient>
<linearGradient id="paint1_linear_400_750" x1="83.0221" y1="13.1896" x2="2.47394" y2="21.8197" gradientUnits="userSpaceOnUse">
<stop stop-color="#262C33"/>
<stop offset="1" stop-color="#718599" stop-opacity="0"/>
</linearGradient>
</defs>
</svg>
