<svg width="38" height="37" viewBox="0 0 38 37" fill="none" xmlns="http://www.w3.org/2000/svg">
<g clip-path="url(#clip0_500_188)">
<path d="M18.1394 6.9375C18.778 6.9375 19.2957 7.45517 19.2957 8.09375C19.2957 8.73233 18.778 9.25 18.1394 9.25H1.9519C1.31333 9.25 0.795654 8.73233 0.795654 8.09375C0.795654 7.45517 1.31333 6.9375 1.9519 6.9375H18.1394ZM0.795654 17.3438C0.795654 16.7052 1.31333 16.1875 1.9519 16.1875H36.6394C37.278 16.1875 37.7957 16.7052 37.7957 17.3438C37.7957 17.9823 37.278 18.5 36.6394 18.5H1.9519C1.31333 18.5 0.795654 17.9823 0.795654 17.3438ZM20.4519 27.75C19.8133 27.75 19.2957 27.2323 19.2957 26.5938C19.2957 25.9552 19.8133 25.4375 20.4519 25.4375H36.6394C37.278 25.4375 37.7957 25.9552 37.7957 26.5938C37.7957 27.2323 37.278 27.75 36.6394 27.75H20.4519Z" fill="#DFFE00"/>
</g>
<defs>
<clipPath id="clip0_500_188">
<rect width="37" height="37" fill="white" transform="translate(0.795654)"/>
</clipPath>
</defs>
</svg>
