<svg width="29" height="30" viewBox="0 0 29 30" fill="none" xmlns="http://www.w3.org/2000/svg">
<path d="M10.094 8.30358C10.8506 8.30345 11.5799 8.02073 12.1388 7.51082C12.6978 7.00092 13.0461 6.30062 13.1155 5.54721L13.432 2.05423C13.4422 1.9419 13.4302 1.82866 13.3966 1.72098C13.363 1.6133 13.3085 1.51329 13.2363 1.42667C13.164 1.34004 13.0754 1.26849 12.9755 1.2161C12.8757 1.16372 12.7664 1.13152 12.6541 1.12134C12.5418 1.11117 12.4285 1.12322 12.3208 1.15682C12.2132 1.19041 12.1131 1.24488 12.0265 1.31712C11.9399 1.38936 11.8683 1.47795 11.816 1.57784C11.7636 1.67774 11.7314 1.78697 11.7212 1.8993L11.4047 5.39229C11.3829 5.63365 11.2946 5.86426 11.1498 6.05856C11.005 6.25287 10.8092 6.40328 10.5841 6.49313C10.359 6.58298 10.1135 6.60877 9.87462 6.56763C9.63579 6.5265 9.41301 6.42004 9.23096 6.26007L6.60672 3.95612C6.43568 3.80601 6.21202 3.72999 5.98493 3.74478C5.75784 3.75958 5.54593 3.86398 5.39582 4.03501C5.2457 4.20605 5.16968 4.42971 5.18447 4.6568C5.19927 4.88389 5.30367 5.0958 5.47471 5.24591L8.09896 7.54986C8.65007 8.03554 9.35941 8.30353 10.094 8.30358Z" fill="#DFFE00"/>
<path d="M8.73971 2.849C8.16072 2.849 7.69135 2.37963 7.69135 1.80063C7.69135 1.22163 8.16072 0.752258 8.73971 0.752258C9.31871 0.752258 9.78809 1.22163 9.78809 1.80063C9.78809 2.37963 9.31871 2.849 8.73971 2.849Z" fill="#DFFE00"/>
<path d="M6.60452 13.2719C7.1402 12.737 7.45667 12.0213 7.49184 11.2652C7.52701 10.5091 7.27833 9.76707 6.79462 9.18483L4.54865 6.4912C4.40295 6.31638 4.19377 6.2066 3.96713 6.18602C3.74049 6.16543 3.51495 6.23572 3.34013 6.38142C3.16532 6.52712 3.05554 6.7363 3.03495 6.96295C3.01436 7.18959 3.08465 7.41513 3.23035 7.58994L5.47347 10.2845C5.62864 10.4706 5.72931 10.696 5.76435 10.9358C5.79938 11.1755 5.76743 11.4203 5.672 11.643C5.57658 11.8657 5.42141 12.0577 5.22365 12.1978C5.0259 12.3378 4.79328 12.4204 4.55151 12.4364L1.06708 12.6626C0.840212 12.6774 0.628489 12.7816 0.478493 12.9525C0.328497 13.1233 0.252512 13.3468 0.267259 13.5736C0.282006 13.8005 0.386272 14.0122 0.557123 14.1622C0.727973 14.3122 0.951416 14.3882 1.17829 14.3735L4.66271 14.1472C5.39491 14.1013 6.08527 13.7901 6.60452 13.2719Z" fill="#DFFE00"/>
<path d="M1.04831 10.6799C0.469315 10.6799 -5.91278e-05 10.2106 -5.91278e-05 9.63158C-5.91278e-05 9.05258 0.469315 8.58321 1.04831 8.58321C1.62731 8.58321 2.09668 9.05258 2.09668 9.63158C2.09668 10.2106 1.62731 10.6799 1.04831 10.6799Z" fill="#DFFE00"/>
<path d="M7.65039 19.2522C7.65003 18.4958 7.36719 17.7667 6.85731 17.208C6.34743 16.6492 5.64726 16.301 4.89402 16.2316L1.40104 15.9151C1.28871 15.9049 1.17547 15.917 1.06779 15.9506C0.960113 15.9842 0.860104 16.0386 0.773478 16.1109C0.686851 16.1831 0.615304 16.2717 0.562917 16.3716C0.510529 16.4715 0.478326 16.5807 0.468154 16.6931C0.457981 16.8054 0.470037 16.9186 0.503628 17.0263C0.537219 17.134 0.591687 17.234 0.663928 17.3206C0.736168 17.4072 0.824765 17.4788 0.924657 17.5312C1.02455 17.5836 1.13378 17.6158 1.24611 17.6259L4.74195 17.9405C4.98331 17.9624 5.21392 18.0506 5.40823 18.1954C5.60253 18.3403 5.75294 18.5361 5.8428 18.7612C5.93265 18.9862 5.95844 19.2318 5.9173 19.4706C5.87616 19.7094 5.76971 19.9322 5.60973 20.1143L3.30579 22.7385C3.15568 22.9096 3.07965 23.1332 3.09445 23.3603C3.10924 23.5874 3.21364 23.7993 3.38468 23.9494C3.55571 24.0995 3.77938 24.1756 4.00647 24.1608C4.23355 24.146 4.44547 24.0416 4.59558 23.8705L6.89952 21.2463C7.38388 20.695 7.65081 19.9861 7.65039 19.2522Z" fill="#DFFE00"/>
<path d="M1.14694 21.6559C0.567942 21.6559 0.0985737 21.1866 0.0985737 20.6076C0.0985737 20.0286 0.567942 19.5592 1.14694 19.5592C1.72594 19.5592 2.19531 20.0286 2.19531 20.6076C2.19531 21.1866 1.72594 21.6559 1.14694 21.6559Z" fill="#DFFE00"/>
<path d="M12.6183 22.7423C12.0835 22.2066 11.3678 21.8901 10.6116 21.855C9.85547 21.8198 9.11349 22.0685 8.53125 22.5522L5.83856 24.802C5.752 24.8742 5.68052 24.9627 5.62818 25.0626C5.57584 25.1624 5.54367 25.2716 5.53352 25.3838C5.52337 25.4961 5.53544 25.6093 5.56902 25.7169C5.60261 25.8245 5.65706 25.9244 5.72926 26.011C5.80147 26.0975 5.89002 26.169 5.98985 26.2214C6.08969 26.2737 6.19886 26.3059 6.31112 26.316C6.42339 26.3262 6.53656 26.3141 6.64416 26.2805C6.75177 26.2469 6.8517 26.1925 6.93826 26.1203L9.6319 23.8734C9.81845 23.7182 10.0443 23.6178 10.2845 23.5832C10.5246 23.5486 10.7697 23.5812 10.9924 23.6773C11.2152 23.7735 11.407 23.9295 11.5465 24.128C11.686 24.3265 11.7678 24.5598 11.7828 24.802L12.009 28.2864C12.0163 28.3987 12.0457 28.5085 12.0954 28.6095C12.1452 28.7105 12.2143 28.8007 12.2989 28.875C12.3835 28.9493 12.4819 29.0061 12.5885 29.0424C12.695 29.0786 12.8077 29.0935 12.92 29.0862C13.0324 29.0789 13.1422 29.0496 13.2432 28.9998C13.3442 28.9501 13.4344 28.8809 13.5086 28.7963C13.5829 28.7117 13.6398 28.6133 13.676 28.5068C13.7123 28.4002 13.7272 28.2875 13.7199 28.1752L13.4937 24.6908C13.4497 23.9561 13.1383 23.263 12.6183 22.7423Z" fill="#DFFE00"/>
<path d="M8.978 29.347C8.399 29.347 7.92963 28.8776 7.92963 28.2986C7.92963 27.7196 8.399 27.2502 8.978 27.2502C9.557 27.2502 10.0264 27.7196 10.0264 28.2986C10.0264 28.8776 9.557 29.347 8.978 29.347Z" fill="#DFFE00"/>
<path d="M18.5994 21.6967C17.8428 21.6968 17.1135 21.9795 16.5546 22.4894C15.9956 22.9993 15.6473 23.6996 15.5778 24.4531L15.2623 27.946C15.2521 28.0584 15.2642 28.1716 15.2977 28.2793C15.3313 28.387 15.3858 28.487 15.4581 28.5736C15.5303 28.6602 15.6189 28.7318 15.7188 28.7842C15.8187 28.8366 15.9279 28.8687 16.0402 28.8789C16.1526 28.8891 16.2658 28.877 16.3735 28.8435C16.4812 28.8099 16.5812 28.7554 16.6678 28.6832C16.7544 28.6109 16.826 28.5223 16.8784 28.4224C16.9308 28.3225 16.963 28.2133 16.9731 28.101L17.2877 24.6118C17.3097 24.3705 17.398 24.14 17.5429 23.9458C17.6877 23.7516 17.8834 23.6012 18.1084 23.5113C18.3334 23.4214 18.5788 23.3955 18.8176 23.4364C19.0564 23.4773 19.2792 23.5834 19.4615 23.7431L22.0857 26.0479C22.1704 26.1223 22.2689 26.1792 22.3756 26.2155C22.4823 26.2517 22.5951 26.2666 22.7075 26.2593C22.8199 26.252 22.9298 26.2226 23.0309 26.1728C23.132 26.123 23.2223 26.0537 23.2966 25.9691C23.3709 25.8844 23.4279 25.7859 23.4641 25.6792C23.5004 25.5725 23.5153 25.4597 23.508 25.3473C23.5006 25.2348 23.4712 25.1249 23.4214 25.0238C23.3716 24.9228 23.3024 24.8325 23.2177 24.7582L20.5944 22.4542C20.044 21.967 19.3345 21.6976 18.5994 21.6967Z" fill="#DFFE00"/>
<path d="M19.9536 29.2483C19.3746 29.2483 18.9052 28.7789 18.9052 28.1999C18.9052 27.6209 19.3746 27.1516 19.9536 27.1516C20.5326 27.1516 21.002 27.6209 21.002 28.1999C21.002 28.7789 20.5326 29.2483 19.9536 29.2483Z" fill="#DFFE00"/>
<path d="M22.0896 16.7286C21.5539 17.2634 21.2374 17.9791 21.2022 18.7353C21.1671 19.4914 21.4157 20.2334 21.8995 20.8156L24.1464 23.5093C24.2186 23.5957 24.3072 23.6671 24.4071 23.7193C24.5069 23.7715 24.6161 23.8035 24.7283 23.8135C24.8405 23.8235 24.9536 23.8113 25.0611 23.7777C25.1686 23.744 25.2685 23.6894 25.3549 23.6172C25.4413 23.5449 25.5127 23.4563 25.5649 23.3565C25.6171 23.2566 25.6491 23.1475 25.6591 23.0352C25.6692 22.923 25.657 22.8099 25.6233 22.7024C25.5896 22.5949 25.535 22.4951 25.4628 22.4086L23.2168 19.715C23.0615 19.5289 22.9608 19.3035 22.9257 19.0637C22.8907 18.8239 22.9227 18.5791 23.0183 18.3564C23.1139 18.1336 23.2692 17.9417 23.4672 17.8019C23.6651 17.6621 23.8979 17.5797 24.1397 17.5641L27.6241 17.3379C27.851 17.3231 28.0627 17.2189 28.2127 17.048C28.3627 16.8772 28.4387 16.6537 28.424 16.4268C28.4092 16.2 28.305 15.9882 28.1341 15.8383C27.9633 15.6883 27.7398 15.6123 27.5129 15.627L24.0371 15.8523C23.3027 15.8967 22.6099 16.2084 22.0896 16.7286Z" fill="#DFFE00"/>
<path d="M27.645 21.4173C27.066 21.4173 26.5966 20.948 26.5966 20.369C26.5966 19.79 27.066 19.3206 27.645 19.3206C28.224 19.3206 28.6934 19.79 28.6934 20.369C28.6934 20.948 28.224 21.4173 27.645 21.4173Z" fill="#DFFE00"/>
<path d="M21.0428 10.7473C21.0429 11.5039 21.3256 12.2332 21.8355 12.7921C22.3454 13.3511 23.0457 13.6994 23.7991 13.7688L27.2921 14.0844C27.4045 14.0946 27.5177 14.0825 27.6254 14.0489C27.7331 14.0153 27.8331 13.9609 27.9197 13.8886C28.0063 13.8164 28.0779 13.7278 28.1303 13.6279C28.1826 13.528 28.2148 13.4188 28.225 13.3064C28.2352 13.1941 28.2231 13.0809 28.1895 12.9732C28.156 12.8655 28.1015 12.7655 28.0292 12.6789C27.957 12.5922 27.8684 12.5207 27.7685 12.4683C27.6686 12.4159 27.5594 12.3837 27.4471 12.3735L23.9541 12.057C23.7132 12.035 23.483 11.9468 23.2891 11.8022C23.0952 11.6576 22.9449 11.4622 22.8551 11.2376C22.7652 11.013 22.7391 10.7679 22.7798 10.5294C22.8204 10.2909 22.9262 10.0683 23.0853 9.88617L25.3893 7.26192C25.5394 7.09088 25.6154 6.86722 25.6006 6.64013C25.5858 6.41304 25.4814 6.20113 25.3104 6.05102C25.1394 5.9009 24.9157 5.82488 24.6886 5.83968C24.4615 5.85447 24.2496 5.95887 24.0995 6.12991L21.7956 8.75321C21.3107 9.30435 21.0431 10.0132 21.0428 10.7473Z" fill="#DFFE00"/>
<path d="M27.5473 10.4413C26.9683 10.4413 26.499 9.97196 26.499 9.39296C26.499 8.81396 26.9683 8.34459 27.5473 8.34459C28.1263 8.34459 28.5957 8.81396 28.5957 9.39296C28.5957 9.97196 28.1263 10.4413 27.5473 10.4413Z" fill="#DFFE00"/>
<path d="M16.0749 7.25822C16.6097 7.79389 17.3254 8.11037 18.0816 8.14554C18.8377 8.1807 19.5797 7.93203 20.1619 7.44832L22.8556 5.2014C22.9423 5.12913 23.014 5.04049 23.0665 4.94052C23.119 4.84056 23.1513 4.73123 23.1615 4.61879C23.1717 4.50634 23.1597 4.39299 23.1262 4.28519C23.0926 4.17738 23.0381 4.07725 22.9658 3.9905C22.8936 3.90375 22.8049 3.83209 22.705 3.7796C22.605 3.72711 22.4957 3.69483 22.3832 3.68459C22.2708 3.67435 22.1574 3.68636 22.0496 3.71993C21.9418 3.7535 21.8417 3.80798 21.7549 3.88025L19.0613 6.12621C18.8752 6.28196 18.6495 6.38309 18.4094 6.41839C18.1693 6.45368 17.9241 6.42177 17.701 6.32617C17.4779 6.23058 17.2857 6.07505 17.1456 5.87685C17.0056 5.67864 16.9231 5.4455 16.9075 5.2033L16.6813 1.71888C16.6666 1.49201 16.5623 1.28028 16.3915 1.13029C16.3069 1.05602 16.2085 0.999137 16.1019 0.962894C15.9953 0.926651 15.8826 0.911755 15.7703 0.919057C15.658 0.926359 15.5482 0.955715 15.4472 1.00545C15.3462 1.05519 15.256 1.12433 15.1817 1.20892C15.1074 1.29352 15.0506 1.39191 15.0143 1.49849C14.9781 1.60507 14.9632 1.71775 14.9705 1.83008L15.1967 5.31736C15.2434 6.04965 15.5557 6.73975 16.0749 7.25822Z" fill="#DFFE00"/>
<path d="M19.7153 2.75005C19.1363 2.75005 18.6669 2.28067 18.6669 1.70168C18.6669 1.12268 19.1363 0.653305 19.7153 0.653305C20.2943 0.653305 20.7637 1.12268 20.7637 1.70168C20.7637 2.28067 20.2943 2.75005 19.7153 2.75005Z" fill="#DFFE00"/>
</svg>
