<svg width="164" height="41" viewBox="0 0 164 41" fill="none" xmlns="http://www.w3.org/2000/svg">
<path d="M31.4465 1.89215L23.7016 23.1909V29.4378H21.1619V23.1909L13.417 1.89215H0.930664V39.0983H9.31285V20.557L5.97156 9.98376L8.35682 9.15653L19.2498 39.1078H25.6233L36.5163 9.15653L38.9016 9.98376L35.5506 20.557V39.0983H43.9328V1.89215H31.4465ZM123.564 6.12337C121.516 4.63056 119.131 3.55611 116.389 2.89053C113.646 2.22494 110.759 1.89215 107.707 1.89215H95.1337V39.0983H108.837C111.666 39.0983 114.37 38.699 116.949 37.8908C119.527 37.0825 121.806 35.9035 123.776 34.3441C125.746 32.7848 127.31 30.8546 128.479 28.5631C129.647 26.2716 130.227 23.6187 130.227 20.6046C130.227 17.2101 129.628 14.3196 128.431 11.933C127.233 9.54637 125.611 7.61618 123.564 6.12337ZM120.473 25.5204C119.778 26.9752 118.812 28.1447 117.596 29.0385C116.379 29.9323 114.94 30.5693 113.269 30.9592C111.599 31.349 109.803 31.5392 107.871 31.5392H103.516V9.4608H108.46C110.218 9.4608 111.888 9.67949 113.482 10.1169C115.075 10.5543 116.466 11.2103 117.644 12.0851C118.822 12.9599 119.768 14.0723 120.464 15.4225C121.159 16.7727 121.516 18.3606 121.516 20.1767C121.526 22.2876 121.178 24.0656 120.473 25.5204ZM144.635 31.5392V23.9705H161.139V16.4019H144.635V9.4608H163.07V1.89215H136.253V39.0983H163.07V31.5297H144.635V31.5392Z" fill="#DFFE00"/>
<path d="M68.9729 41C80.5517 41 89.9381 31.8218 89.9381 20.5C89.9381 9.17816 80.5517 0 68.9729 0C57.3942 0 48.0078 9.17816 48.0078 20.5C48.0078 31.8218 57.3942 41 68.9729 41Z" fill="#DFFE00"/>
</svg>
